<svg width="36" height="405" viewBox="0 0 36 405" fill="none" xmlns="http://www.w3.org/2000/svg">
<path d="M23.7336 86.4815C22.1892 86.4805 20.6815 86.4857 19.1995 86.4909C15.764 86.5029 12.466 86.5144 9.16629 86.4465C7.72379 86.4168 6.44607 86.1619 5.55261 85.5486C4.69809 84.962 4.12917 84.0023 4.17656 82.3735C4.22337 80.767 4.81877 79.8452 5.6854 79.2978C6.59179 78.7252 7.86922 78.5143 9.35432 78.5216C9.9801 78.5247 10.606 78.528 11.2321 78.5313C15.8782 78.556 20.5313 78.5807 25.1825 78.5034C26.8073 78.4764 28.3047 78.6058 29.3938 79.1611C29.9266 79.4327 30.3545 79.8031 30.6567 80.3072C30.9603 80.8134 31.1555 81.4853 31.1727 82.3869L31.6726 82.3774L31.1727 82.3869C31.1898 83.2903 31.0181 83.9742 30.7307 84.497C30.4443 85.0179 30.0264 85.409 29.5016 85.7026C28.4309 86.3016 26.938 86.4823 25.3348 86.4789C25.1021 86.4784 24.8684 86.479 24.5637 86.4798C24.3362 86.4804 24.0692 86.4811 23.7336 86.4815ZM23.7336 86.4815C23.7338 86.4815 23.734 86.4815 23.7342 86.4815L23.7339 86.9815L23.7333 86.4815C23.7334 86.4815 23.7335 86.4815 23.7336 86.4815Z" fill="#587535" stroke="black"/>
<path d="M24.0597 261.481C22.5154 261.48 21.0077 261.486 19.5257 261.491C16.0902 261.503 12.7922 261.514 9.49246 261.446C8.04996 261.417 6.77224 261.162 5.87878 260.549C5.02426 259.962 4.45534 259.002 4.50274 257.374C4.54954 255.767 5.14494 254.845 6.01157 254.298C6.91796 253.725 8.19539 253.514 9.6805 253.522C10.3063 253.525 10.9322 253.528 11.5583 253.531C16.2043 253.556 20.8574 253.581 25.5086 253.503C27.1335 253.476 28.6309 253.606 29.7199 254.161C30.2527 254.433 30.6806 254.803 30.9829 255.307C31.2864 255.813 31.4817 256.485 31.4988 257.387L31.9987 257.377L31.4988 257.387C31.516 258.29 31.3443 258.974 31.0569 259.497C30.7705 260.018 30.3526 260.409 29.8278 260.703C28.757 261.302 27.2642 261.482 25.661 261.479C25.4283 261.478 25.1946 261.479 24.8898 261.48C24.6624 261.48 24.3954 261.481 24.0597 261.481ZM24.0597 261.481C24.06 261.481 24.0602 261.481 24.0604 261.481L24.06 261.981L24.0594 261.481C24.0595 261.481 24.0596 261.481 24.0597 261.481Z" fill="#587535" stroke="black"/>
<path d="M18.3349 39.0211C18.2265 31.727 18.2229 24.5686 18.2204 17.4075C18.3095 17.3327 18.4008 17.2568 18.4936 17.1798C18.8422 16.8902 19.2097 16.5851 19.5406 16.2629C22.446 13.4341 25.3491 10.6017 28.2519 7.76958C30.4344 5.64012 32.6169 3.51078 34.8002 1.38316C34.8922 1.29352 34.9858 1.21415 35.1014 1.12157C35.1323 1.40429 35.1539 1.63857 35.1542 1.8838C35.1556 2.99643 35.1576 4.10889 35.1596 5.2212C35.1696 10.8681 35.1796 16.5113 35.1163 22.1538C35.109 22.7956 34.746 23.6349 34.2813 24.0989C30.1462 28.2273 25.9517 32.2983 21.7229 36.3339C20.6875 37.3221 19.5384 38.2004 18.3349 39.0211Z" fill="#69883D" stroke="black"/>
<path d="M17.2882 17.163C17.3394 24.5031 17.3434 31.7477 17.3464 39.1373C17.0952 39.03 16.8683 38.8969 16.6936 38.7277L16.3457 39.0868L16.6936 38.7277C11.5891 33.784 6.50056 28.8247 1.44561 23.8322C1.27535 23.6641 1.10481 23.4327 0.978231 23.1841C0.849453 22.9312 0.784519 22.6969 0.783205 22.5192C0.740284 16.7165 0.743053 10.9138 0.745975 4.78812C0.746544 3.59699 0.747118 2.39364 0.747364 1.17571C6.44734 6.66608 11.8463 11.8689 17.2882 17.163Z" fill="#587535" stroke="black"/>
<path d="M31.4948 173.403L31.4948 173.403C31.3919 174.076 30.8621 174.994 30.1288 175.783C29.7698 176.169 29.3798 176.505 29.0006 176.749C28.6155 176.996 28.2734 177.129 28.0048 177.155C24.1228 177.522 20.2154 177.469 16.1303 177.413C14.55 177.391 12.9431 177.369 11.3008 177.371C10.7569 177.362 10.192 177.405 9.69054 177.444C9.43526 177.464 9.19644 177.482 8.98525 177.492C8.2914 177.523 7.85446 177.466 7.57977 177.273C6.89211 176.789 6.07777 176.13 5.45296 175.446C5.14045 175.104 4.88729 174.769 4.71964 174.458C4.54959 174.143 4.48821 173.892 4.50184 173.702C4.54923 173.044 4.99227 172.07 5.61616 171.226C5.92174 170.813 6.25238 170.456 6.56728 170.204C6.89461 169.941 7.14919 169.836 7.30882 169.826C14.362 169.4 21.4628 169.39 28.5161 169.804C28.6961 169.815 28.9901 169.936 29.3657 170.216C29.7258 170.485 30.1043 170.858 30.4446 171.274C30.7848 171.689 31.074 172.131 31.2644 172.53C31.4643 172.949 31.5188 173.246 31.4948 173.403Z" fill="#F1BA19" stroke="black"/>
<path d="M31.4948 363.403L31.4948 363.403C31.3919 364.076 30.8621 364.994 30.1288 365.783C29.7698 366.169 29.3798 366.505 29.0006 366.749C28.6155 366.996 28.2734 367.129 28.0048 367.155C24.1228 367.522 20.2154 367.469 16.1303 367.413C14.55 367.391 12.9431 367.369 11.3008 367.371C10.7569 367.362 10.192 367.405 9.69054 367.444C9.43526 367.464 9.19644 367.482 8.98525 367.492C8.2914 367.523 7.85446 367.466 7.57977 367.273C6.89211 366.789 6.07777 366.13 5.45296 365.446C5.14045 365.104 4.88729 364.769 4.71964 364.458C4.54959 364.143 4.48821 363.892 4.50184 363.702C4.54923 363.044 4.99227 362.07 5.61616 361.226C5.92174 360.813 6.25238 360.456 6.56728 360.204C6.89461 359.941 7.14919 359.836 7.30882 359.826C14.362 359.4 21.4628 359.39 28.5161 359.804C28.6961 359.815 28.9901 359.936 29.3657 360.216C29.7258 360.485 30.1043 360.858 30.4446 361.274C30.7848 361.689 31.074 362.131 31.2644 362.53C31.4643 362.949 31.5188 363.246 31.4948 363.403Z" fill="#F1BA19" stroke="black"/>
<path d="M17.8325 57.4312L17.62 405" stroke="black" stroke-width="5"/>
<path d="M34.6988 26.799L34.6989 26.799C34.7788 26.7211 34.8716 26.6473 35.0155 26.5422L35.0155 26.7905L35.0155 27.7576C35.0155 29.4528 35.0012 31.1524 34.9869 32.8545C34.9519 37.0103 34.9168 41.1806 35.0895 45.3358C35.145 46.6696 34.946 47.7557 34.5115 48.7129C34.0759 49.6726 33.3896 50.5332 32.4266 51.3957C30.4081 53.2035 28.4529 55.1119 26.5064 57.0117C25.2048 58.2822 23.9071 59.5488 22.5971 60.7789C21.2081 62.0831 19.7269 63.2934 18.1894 64.4318C18.0854 57.1993 18.0851 50.1011 18.0858 43.0002C18.2337 42.856 18.3816 42.7118 18.5296 42.5676C18.926 42.1811 19.3225 41.7946 19.7188 41.4079C20.5844 40.5633 21.45 39.7186 22.3156 38.874C26.442 34.8473 30.5682 30.8209 34.6988 26.799Z" fill="#69883D" stroke="black"/>
<path d="M16.4393 64.2052L16.1191 64.5359L16.4393 64.2052C11.3395 59.2665 6.25583 54.312 1.20478 49.3251C1.03137 49.1539 0.856932 48.9216 0.727579 48.6744C0.595602 48.4222 0.530123 48.1921 0.528965 48.0198C0.486399 41.7085 0.499563 35.3968 0.512735 29.0826C0.514309 28.3279 0.515882 27.5732 0.517363 26.8184C0.662155 26.9342 0.806055 27.0485 0.948902 27.1619C1.66245 27.7285 2.34978 28.2744 2.99151 28.8902C7.16406 32.8945 11.3068 36.9307 15.4424 40.976C15.7177 41.2453 15.973 41.5439 16.2449 41.8747C16.3118 41.9562 16.3802 42.0402 16.45 42.126C16.6235 42.339 16.8063 42.5636 17.0011 42.7914C17.0895 50.0672 17.0915 57.267 17.0913 64.6141C16.8404 64.507 16.6138 64.3742 16.4393 64.2052Z" fill="#587535" stroke="black"/>
</svg>
