<svg width="868" height="436" viewBox="0 0 868 436" fill="none" xmlns="http://www.w3.org/2000/svg">
<path d="M196.806 20.708H158.719V78.7633L383.175 307.657V416.741H321.792" stroke="black" stroke-width="5"/>
<path d="M448.256 23.666H410.169V81.7213L634.625 310.615V419.699H573.241" stroke="black" stroke-width="5"/>
<path d="M305.889 218.006C305.886 222.665 305.946 226.976 305.857 231.284C305.802 233.975 304.917 236.369 301.703 236.275C298.541 236.182 297.762 233.862 297.776 231.101C297.799 226.299 297.839 221.496 297.759 216.694C297.71 213.719 298.208 210.843 301.72 210.776C305.241 210.708 305.893 213.598 305.887 216.549C305.886 216.918 305.888 217.288 305.889 218.006Z" fill="#587535"/>
<path d="M651.279 247.764C652.665 206.802 667.536 171.887 696.057 143.042C711.055 127.873 728.833 116.941 749.991 112.553C786.652 104.95 819.488 122.604 833.935 157.489C844.994 184.192 845.034 211.55 837.562 238.994C828.195 273.396 809.892 301.985 780.32 322.595C764.649 333.517 747.396 340.283 727.95 340.301C699.887 340.328 679.211 327.461 665.048 303.751C654.848 286.676 651.348 267.789 651.279 247.764ZM807.278 256.915C817.056 236.319 821.465 214.769 818.385 192.01C816.058 174.815 809.754 159.328 796.453 147.661C778.556 131.962 757.917 130.022 736.299 137.988C711.785 147.022 694.712 164.76 682.754 187.455C668.759 214.017 663.73 241.992 672.817 271.265C678.991 291.151 691.254 305.951 711.783 312.394C728.172 317.538 743.98 314.784 759.032 307.346C780.981 296.501 796.125 278.951 807.278 256.915Z" fill="#587535"/>
<path d="M632.776 253.286C634.393 207.613 651.738 168.683 685.004 136.521C702.497 119.608 723.234 107.418 747.911 102.525C790.672 94.0475 828.972 113.732 845.822 152.629C858.721 182.404 858.768 212.907 850.052 243.508C839.127 281.867 817.779 313.743 783.286 336.724C765.008 348.902 744.885 356.446 722.204 356.467C689.472 356.496 665.356 342.15 648.836 315.713C636.939 296.674 632.857 275.615 632.776 253.286ZM814.73 263.49C826.135 240.526 831.278 216.497 827.685 191.12C824.971 171.948 817.618 154.68 802.103 141.671C781.229 124.167 757.156 122.003 731.942 130.885C703.349 140.958 683.435 160.736 669.488 186.042C653.165 215.658 647.299 246.851 657.898 279.49C665.099 301.664 679.403 318.166 703.347 325.35C722.462 331.085 740.901 328.014 758.457 319.721C784.058 307.628 801.721 288.06 814.73 263.49Z" fill="black"/>
<path d="M35.1428 221.855C34.2721 220.842 33.453 219.779 32.5228 218.823C22.3117 208.336 12.0814 197.866 1.86551 187.383C1.36802 186.873 0.956513 186.278 0.0925293 185.216C1.60728 185.078 2.62028 184.906 3.6335 184.905C17.5593 184.887 31.486 184.827 45.4101 184.983C47.0132 185.001 48.9969 185.866 50.1351 187.006C58.6479 195.532 67.0412 204.18 75.36 212.897C77.8812 215.539 80.0502 218.517 82.0565 221.59C66.2026 221.844 50.6727 221.85 35.1428 221.855Z" fill="#69883D"/>
<path d="M34.924 221.962C50.6729 221.85 66.2028 221.845 82.0693 221.838C81.7905 222.877 81.3506 224.087 80.5332 224.931C70.3459 235.449 60.1256 245.936 49.8361 256.354C48.9808 257.221 47.5662 258.017 46.4053 258.026C31.3747 258.137 16.343 258.099 0 258.099C12.0383 245.601 23.3716 233.835 34.924 221.962Z" fill="#587535"/>
<path d="M214.526 0C218.076 2.33485 222.317 2.77039 224.916 6.66534C228.844 12.5518 229.31 20.3616 224.821 25.8945C217.357 35.0932 203.62 33.4163 198.541 24.3916C193.975 16.2796 196.995 4.27422 206.078 1.33109C208.679 0.488495 211.527 0.407888 214.526 0ZM213.666 21.5063C215.719 19.0893 215.82 16.3652 214.662 13.6021C213.472 10.761 209.096 9.87414 207.881 12.4593C206.82 14.7159 206.684 17.9046 207.356 20.3467C208.111 23.0874 210.87 22.81 213.666 21.5063ZM220.434 22.1465C220.612 18.5666 220.79 14.9867 220.968 11.4068C220.65 11.2342 220.332 11.0616 220.015 10.889C219.028 12.1726 216.06 9.43801 216.4 13.1639C216.607 15.4343 217.243 17.6975 217.958 19.8749C218.276 20.8417 219.263 21.5884 220.434 22.1465Z" fill="#69883D"/>
<path d="M291.173 409.427C293.786 404.18 297.433 400.518 303.299 400.153C311.153 399.664 317.395 402.603 320.523 410.126C322.876 415.786 321.55 421.088 317.678 425.871C313.671 430.82 308.75 432.903 302.441 431.551C294.436 429.836 289.818 423.837 290.412 415.778C290.563 413.726 290.82 411.681 291.173 409.427ZM305.197 418.175C304.973 412.758 301.909 410.043 298.451 412.323C295.772 414.09 295.803 417.097 296.659 419.596C297.159 421.056 299.109 422.679 300.65 422.979C303.448 423.524 304.667 421.309 305.197 418.175ZM308.963 419.638C308.228 419.677 307.493 419.716 306.55 419.766C307.588 423.253 309.971 423.772 312.451 422.932C314.82 422.13 315.452 420.238 313.842 417.954C313.591 417.599 313.587 416.825 313.803 416.426C315.117 414.008 314.388 412.256 311.901 411.601C309.39 410.94 307.441 411.83 306.802 415.005C308.64 414.719 310.146 414.484 311.651 414.249C311.682 414.514 311.712 414.78 311.742 415.045C310.941 415.782 310.14 416.52 309.568 417.046C310.47 418.384 311.121 419.35 311.772 420.316C310.984 420.21 310.196 420.105 308.963 419.638Z" fill="#69883D"/>
<path d="M472.342 11.0021C478.844 13.533 481.593 18.5576 482.024 24.9299C482.469 31.5249 479.147 36.407 473.719 39.5727C467.218 43.3644 457.834 41.462 453.967 35.9426C447.812 27.1577 448.932 20.8026 455.1 14.0475C459.63 9.0852 465.987 9.74242 472.342 11.0021ZM465.607 22.7697C463.078 19.4703 459.183 19.1124 458.212 22.3762C457.497 24.7793 458.064 27.7803 458.837 30.2738C459.06 30.9906 463.017 31.6201 463.473 30.9919C464.821 29.1332 465.296 26.6333 466.052 24.3639C466.148 24.0757 465.885 23.6675 465.607 22.7697ZM469.679 20.5127C468.849 21.4983 468.02 22.4838 467.19 23.4693C467.476 23.7881 467.761 24.1069 468.047 24.4257C469.17 23.8167 470.292 23.2077 471.794 22.3928C473.207 26.8657 467.748 27.4791 467.176 31.1107C470.02 31.4401 472.661 31.9424 476.246 30.3891C474.339 29.5158 473.378 29.0755 473.213 28.9997C473.77 26.336 474.568 24.0848 474.482 21.8677C474.46 21.2884 471.691 20.8147 469.679 20.5127Z" fill="#F3BE1E"/>
<path d="M565.915 434.359C561.656 436.127 557.563 436.743 553.479 434.806C547.29 431.872 542.486 425.827 543.401 418.397C544.437 409.98 550.232 404.147 558.317 404.559C569.661 405.136 572.955 408.603 575.253 418.293C576.39 423.091 571.833 432.923 565.915 434.359ZM564.705 424.087C565.663 424.643 565.795 432.86 566.184 432.591C567.14 431.931 567.414 423.956 567.293 422.977C566.993 420.551 566.748 418.17 566.591 415.692C563.573 415.748 560.264 420.224 560.267 424.456C561.441 424.514 562.897 423.924 564.705 424.087ZM552.433 415.592C549.174 417.061 548.848 419.808 549.393 422.561C549.69 424.066 551.079 425.943 552.453 426.524C555.146 427.665 557.265 425.904 557.836 422.721C558.644 418.221 557.147 415.981 552.433 415.592Z" fill="#F3BE1E"/>
<path d="M554.664 229.374C554.639 230.829 555.02 232.205 554.5 232.972C553.641 234.24 552.136 236.01 551.025 235.927C549.65 235.824 547.336 234.11 547.27 232.984C546.901 226.63 546.892 220.233 547.251 213.878C547.318 212.697 549.791 210.614 550.862 210.784C552.274 211.008 554.35 212.96 554.474 214.321C554.918 219.187 554.658 224.117 554.664 229.374Z" fill="#F1BA19"/>
<path d="M807.161 257.166C796.126 278.951 780.982 296.501 759.033 307.347C743.981 314.784 728.172 317.538 711.784 312.394C691.255 305.952 678.992 291.152 672.818 271.265C663.731 241.993 668.76 214.017 682.755 187.455C694.713 164.76 711.785 147.022 736.3 137.988C757.918 130.022 778.557 131.962 796.453 147.661C809.754 159.329 816.059 174.816 818.386 192.01C821.466 214.769 817.057 236.32 807.161 257.166ZM700.876 187.576C689.154 205.61 683.368 225.16 686.047 246.77C687.603 259.321 692.042 270.757 701.517 279.44C715.951 292.667 732.573 293.714 749.986 286.426C785.615 271.512 806.807 223.335 794.091 186.678C785.226 161.122 761.665 149.717 736.207 158.824C721.277 164.165 710.169 174.373 700.876 187.576Z" fill="#FDFEFD"/>
<path d="M701.033 187.361C710.168 174.373 721.276 164.165 736.206 158.824C761.664 149.717 785.225 161.121 794.09 186.678C806.806 223.334 785.615 271.512 749.985 286.426C732.572 293.714 715.951 292.667 701.516 279.44C692.042 270.757 687.602 259.321 686.046 246.769C683.367 225.159 689.154 205.61 701.033 187.361ZM746.284 180.071C741.106 181.414 735.479 181.878 730.829 184.254C712.046 193.851 700.587 218.649 704.775 239.285C709.275 261.459 728.963 270.522 748.489 259.408C767.362 248.667 778.188 222.713 772.54 201.753C769.004 188.63 759.665 180.726 746.284 180.071Z" fill="#69883D"/>
<path d="M209.032 17.5579C209.026 16.2757 208.918 15.2519 209.227 14.3752C209.403 13.8748 210.488 13.1857 210.764 13.3326C211.387 13.664 212.177 14.4806 212.152 15.0671C212.093 16.4212 211.588 17.7558 211.264 19.0983C210.544 18.6914 209.824 18.2846 209.032 17.5579Z" fill="#69883D"/>
<path d="M459.972 24.7031C460.842 23.9684 461.642 23.5245 462.442 23.0806C462.753 24.413 463.293 25.7492 463.272 27.0763C463.262 27.6867 462.152 28.2795 461.541 28.8803C460.985 28.0656 460.356 27.2886 459.908 26.4187C459.714 26.0426 459.893 25.4747 459.972 24.7031Z" fill="#F3BE1E"/>
<path d="M551.425 421.641C552.104 420.524 553.152 419.418 553.827 418.59C554.34 419.704 555.245 420.818 555.247 421.933C555.249 422.873 554.2 423.814 553.616 424.754C553.009 423.719 552.029 422.963 551.425 421.641Z" fill="#F3BE1E"/>
<path d="M746.603 180.072C759.665 180.726 769.004 188.63 772.54 201.753C778.189 222.714 767.362 248.667 748.489 259.409C728.963 270.523 709.276 261.46 704.775 239.286C700.587 218.65 712.046 193.851 730.829 184.254C735.48 181.879 741.107 181.414 746.603 180.072ZM741.66 237.402C749.383 232.616 752.944 225.596 752.551 216.612C752.341 211.802 750.473 207.733 745.981 205.383C741.559 203.071 737.275 204.019 733.415 206.649C726.574 211.309 723.394 217.979 723.64 226.214C723.949 236.502 731.552 241.426 741.66 237.402Z" fill="#FDFEFD"/>
<path d="M741.401 237.522C731.552 241.426 723.949 236.502 723.641 226.214C723.394 217.979 726.574 211.309 733.415 206.649C737.276 204.019 741.559 203.071 745.981 205.383C750.474 207.733 752.341 211.802 752.551 216.612C752.944 225.596 749.383 232.616 741.401 237.522Z" fill="#F3BE1E"/>
<path d="M804.723 109.085C814.905 111.964 824.484 116.21 832.429 122.317C841.49 129.281 848.402 137.831 853.851 147.18C859.639 157.11 863.328 167.728 865.714 178.765C867.903 188.895 868.026 199.056 867.934 209.269C867.819 222.167 865.432 234.818 861.107 247.049C857.512 257.215 853.337 267.326 848.143 276.919C841.641 288.928 833.304 300.016 823.447 310.235C804.425 329.955 781.902 344.927 753.586 352.499C741.802 355.649 729.735 357.052 717.487 356.241C706.215 355.495 695.343 354.099 685.284 349.071C689.337 349.791 693.363 349.62 697.448 350.141C719.26 352.922 739.929 349.364 759.521 340.773C795.079 325.183 819.581 300.118 836.592 268.955C849.269 245.732 855.811 221.153 855.073 195.256C854.358 170.153 847.223 147.249 829.294 127.2C822.633 119.752 813.56 114.37 804.723 109.085Z" fill="#F1BA19"/>
<path d="M118.043 224.086H644.609" stroke="black" stroke-width="5"/>
<path d="M90.1885 221.835C88.994 220.61 87.7998 219.384 86.6049 218.16C76.5687 207.874 66.5297 197.591 56.5044 187.294C56.0245 186.801 55.6653 186.191 54.6948 184.893C56.6803 184.893 57.9489 184.893 59.2175 184.893C71.2779 184.893 83.3527 185.242 95.3922 184.741C101.152 184.502 105.005 186.457 108.688 190.57C114.906 197.512 121.621 204.006 128.004 210.804C131.179 214.185 134.081 217.822 136.783 221.591C121.036 221.838 105.612 221.836 90.1885 221.835Z" fill="#69883D"/>
<path d="M90.0141 222.029C105.613 221.836 121.036 221.838 136.797 221.838C136.519 222.876 136.08 224.085 135.263 224.929C125.086 235.437 114.876 245.914 104.598 256.324C103.74 257.193 102.337 258.015 101.182 258.023C86.2837 258.124 71.3842 258.074 56.4851 258.045C56.2907 258.045 56.0967 257.834 55.6926 257.6C57.4805 255.437 59.1129 253.191 61.0179 251.206C69.2717 242.605 77.5905 234.067 85.9259 225.546C87.1174 224.328 88.5294 223.325 90.0141 222.029Z" fill="#587535"/>
</svg>
