<svg width="588" height="313" viewBox="0 0 588 313" fill="none" xmlns="http://www.w3.org/2000/svg">
<path d="M242.053 230.259C247.148 227.648 251.997 224.93 256.964 222.492C264.596 218.746 272.782 216.838 281.014 215.969C288.418 215.186 295.953 215.649 303.424 215.837C311.915 216.05 320.057 218.305 328.041 221.329C338.966 225.466 348.825 231.511 357.728 239.55C367.906 248.738 375.626 259.874 381.117 272.794C384.727 281.287 387.12 290.229 387.964 299.585C388.363 304.006 388.736 308.429 389.134 313C325.571 313 262.295 313 199.019 313C198.594 285.177 210.111 251.121 242.053 230.259Z" fill="white"/>
<path d="M486.18 184.938C482.25 188.228 478.205 191.158 474.835 194.812C468.588 201.588 465.743 210.141 464.453 219.547C462.733 232.088 467.034 242.627 473.643 252.139C479.25 260.207 487.161 265.008 496.59 266.08C502.835 266.79 509.14 266.904 515.42 267.227C516.224 267.269 517.043 266.966 518.115 266.778C519.48 280.937 520.845 295.102 522.289 310.078C518.344 310.078 514.626 310.078 510.907 310.078C473.717 310.078 436.527 310.078 399.338 310.078C393.97 310.078 392.785 308.947 392.35 303.258C391.033 286.04 385.525 270.404 376.814 256.046C374.472 252.185 371.614 248.682 368.921 245.077C367.375 243.009 367.457 241.686 369.288 240.139C370.686 238.958 372.033 237.686 373.293 236.335C380.481 228.628 387.604 220.85 394.81 213.162C404.988 202.302 415.216 191.498 425.426 180.673C435.023 170.499 444.613 160.314 454.239 150.172C455.754 148.576 457.449 147.18 459.324 145.447C461.882 148.905 464.5 152.412 467.086 155.944C471.937 162.569 476.76 169.217 481.617 175.836C483.188 177.977 484.924 179.986 486.377 182.214C486.767 182.813 486.392 183.992 486.18 184.938Z" fill="#FBAE17"/>
<path d="M274.204 210.5C267.979 212.405 261.84 213.898 256.011 216.274C247.918 219.572 240.479 224.336 233.57 229.995C231.424 231.753 229.338 233.596 227.305 235.332C196.674 202.855 166.086 170.424 135.327 137.811C145.926 128.585 156.354 119.508 166.895 110.333C171.721 119.134 178.083 125.91 186.553 130.026C193.366 133.338 200.431 134.93 208.103 133.889C218.786 132.439 227.778 127.896 234.909 119.211C239.309 113.852 241.812 107.374 242.716 100.437C243.577 93.8351 243.547 87.0948 243.84 80.4117C243.913 78.729 243.132 76.5994 243.838 75.4807C244.396 74.5975 246.636 74.9584 248.127 74.752C253.303 74.0352 258.479 73.3139 263.654 72.5907C268.663 71.8909 273.667 71.1596 278.68 70.4941C281.929 70.0627 285.189 69.7244 288.599 69.3262C288.812 72.4544 289.201 75.5445 289.204 78.6351C289.244 119.871 289.225 161.108 289.238 202.344C289.24 207.649 288.22 208.447 283.356 208.903C280.36 209.184 277.403 209.94 274.204 210.5Z" fill="#FBAE17"/>
<path d="M200.07 277.893C198.146 287 196.155 295.866 194.416 304.789C193.755 308.183 192.771 309.518 189.606 309.519C149.658 309.526 109.711 309.509 69.7644 309.559C67.2899 309.562 66.2814 308.554 66.5029 305.944C67.0221 299.827 67.5333 293.71 68.0152 287.59C68.397 282.742 68.7095 277.889 69.0972 273.042C69.228 271.407 69.4953 269.786 69.7439 267.811C73.0037 267.999 76.2084 268.396 79.4046 268.329C91.8074 268.068 102.931 264.244 111.218 253.706C117.098 246.23 120.877 237.681 121.719 227.691C122.785 215.067 119.139 204.224 111.487 194.909C108.477 191.246 104.893 188.131 101.278 184.47C108.751 170.799 118.368 158.189 129.218 146.428C129.682 146.787 130.053 147 130.338 147.306C159.21 178.253 188.08 209.203 216.935 240.168C219.282 242.687 219.275 244.217 216.494 247.497C209.025 256.308 203.883 266.553 200.07 277.893Z" fill="#5D7B36"/>
<path d="M355.638 127.802C363.065 132.303 370.79 135.003 379.203 134.283C388.582 133.479 397.042 130.107 404.091 123.078C408.838 118.345 412.594 112.864 415.345 106.391C421.542 111.625 427.536 116.705 433.547 121.761C439.567 126.824 445.604 131.862 452.075 137.281C450.939 138.572 449.958 139.762 448.905 140.873C441.979 148.181 435.016 155.448 428.107 162.775C415.809 175.82 403.547 188.905 391.257 201.958C381.72 212.086 372.137 222.162 362.64 232.332C361.08 234.003 360.04 234.354 357.93 232.927C349.805 227.435 341.635 221.97 333.171 217.124C325.249 212.588 316.511 210.5 307.603 209.415C305.662 209.178 303.71 209.039 301.764 208.848C298.925 208.568 298.046 207.542 297.997 204.462C297.991 204.092 297.996 203.721 297.996 203.35C297.996 160.537 297.996 117.724 297.996 74.9108C297.996 74.7255 297.995 74.5401 297.996 74.3548C298.007 69.8995 298.933 69.2411 303.084 69.8222C309.394 70.7056 315.739 71.296 322.066 72.04C327.376 72.6645 332.682 73.3306 338.102 73.992C333.056 95.9632 337.154 114.517 355.638 127.802Z" fill="#5D7B36"/>
<path d="M166.525 84.2284C167.136 77.2169 169.438 71.1466 173.166 65.7382C179.158 57.0463 187.025 51.5523 197.034 49.7749C206.582 48.0792 215.59 49.6581 223.699 55.3915C232.832 61.8485 238.488 70.896 240.285 82.6955C242.098 94.6087 239.544 105.415 232.742 114.724C227.287 122.191 219.939 126.845 211.094 128.851C201.98 130.918 193.455 129.473 185.445 124.793C175.511 118.989 169.343 109.912 167.081 97.9317C166.464 94.6621 166.282 91.2871 166.05 87.9483C165.971 86.8118 166.353 85.6381 166.525 84.2284ZM216.155 58.1952C212.592 57.2513 209.066 55.7139 205.462 55.4622C185.656 54.0783 170.202 72.3702 172.055 92.8484C173.911 113.371 193.073 127.884 211.514 122.368C224.613 118.45 233.678 106.848 235.017 92.2856C236.297 78.3627 228.974 64.935 216.155 58.1952Z" fill="#FFFEFC"/>
<path d="M98.799 259.894C94.0281 262.139 89.3587 263.66 84.2497 264.004C71.8875 264.836 61.5573 260.41 53.4221 250.533C47.491 243.333 44.4681 234.728 44.2938 224.932C44.0766 212.723 47.9502 202.388 56.2144 194.19C62.7089 187.748 70.4282 184.092 79.4543 183.767C85.7845 183.538 91.8924 184.421 97.5944 187.276C103.086 190.026 107.578 194.308 111.369 199.418C115.075 204.412 117.456 210.159 118.392 216.361C120.267 228.782 117.862 240.13 110.169 249.975C106.985 254.05 103.142 257.098 98.799 259.894ZM51.0128 215.34C45.2748 240.054 64.9221 262.203 88.1849 257.247C103.352 254.015 114.266 238.311 113.084 221.417C111.898 204.453 99.0407 190.7 83.6283 189.907C68.3127 189.12 56.2097 198.416 51.0128 215.34Z" fill="#FDFDFD"/>
<path d="M340.257 81.4561C343.636 65.147 353.271 55.1126 367.545 51.1275C381.615 47.199 394.254 51.6404 404.332 63.0989C409.521 68.9988 412.415 76.2254 413.551 84.3983C415.1 95.5524 412.673 105.643 406.63 114.488C400.92 122.844 393.109 128.166 383.394 129.902C375.387 131.332 367.61 130.573 360.334 126.708C351.225 121.869 344.782 114.216 341.331 103.831C339.012 96.8542 338.679 89.6728 339.84 82.3951C339.88 82.1448 340.106 81.929 340.257 81.4561ZM390.558 59.7551C383.935 56.1587 376.98 55.377 369.776 57.0106C353.391 60.7259 342.618 78.194 345.489 96.3337C348.241 113.722 364.071 126.422 380.218 124.196C394.025 122.293 405.238 111.037 407.712 96.5987C410.263 81.7111 403.631 67.2266 390.558 59.7551Z" fill="#FDFDFD"/>
<path d="M534.007 250.418C527.974 257.711 520.49 262.125 511.828 263.217C500.195 264.684 489.511 261.778 480.674 252.751C474.358 246.298 470.3 238.444 469.3 229.308C467.927 216.761 470.63 205.238 478.989 195.695C484.968 188.867 492.257 184.507 500.719 183.421C512.347 181.93 523.03 184.849 531.88 193.862C538.212 200.31 542.269 208.172 543.252 217.302C544.417 228.128 542.91 238.645 536.178 247.523C535.488 248.433 534.815 249.357 534.007 250.418ZM492.582 192.641C478.885 200.28 471.991 215.963 475.58 231.395C479.433 247.967 493.463 257.745 507.186 257.409C525.745 256.955 540.757 237.89 537.565 218.188C533.873 195.402 512.543 183.107 492.582 192.641Z" fill="#FFFEFC"/>
<path d="M216.336 58.2778C228.974 64.9353 236.297 78.363 235.017 92.2859C233.678 106.848 224.613 118.451 211.514 122.369C193.073 127.884 173.911 113.372 172.055 92.8487C170.202 72.3705 185.656 54.0786 205.462 55.4625C209.066 55.7143 212.592 57.2516 216.336 58.2778ZM201.589 72.9048C201.589 72.1651 201.59 71.4253 201.589 70.6856C201.588 66.9572 199.45 65.3335 196.115 66.7901C194.919 67.3129 193.961 68.5105 192.947 69.4656C192.457 69.927 192.184 70.7055 191.652 71.0587C186.769 74.302 186.103 76.6692 188.704 81.8573C186.108 87.0829 186.774 89.4867 191.658 92.6234C192.001 92.8437 192.358 93.1727 192.531 93.5467C194.431 97.6654 197.794 97.6498 201.589 97.3403C201.589 89.2976 201.589 81.374 201.589 72.9048ZM204.074 95.0063C204.135 95.793 204.195 96.5798 204.253 97.3208C209.429 97.7226 209.874 97.5107 213.205 93.291C213.416 93.0234 213.698 92.8015 213.981 92.6224C218.797 89.5839 219.458 87.1486 217.43 82.8881C217.71 79.7395 218.663 77.2304 217.936 75.5864C216.065 71.3566 212.576 68.348 208.624 66.6303C205.658 65.3416 204.075 67.1115 204.074 70.588C204.073 78.5494 204.074 86.5107 204.074 95.0063ZM206.85 99.5093C203.284 99.5093 199.718 99.5093 196.115 99.5093C195.839 102.17 196.13 104.473 198.545 104.844C201.314 105.269 204.194 105.139 207 104.896C208.922 104.729 209.534 102.979 209.63 101.056C209.734 98.9911 208.319 99.6233 206.85 99.5093ZM198.526 107.862C198.191 109.58 198.681 110.513 200.465 110.425C201.993 110.349 203.53 110.352 205.06 110.424C206.885 110.51 207.521 109.66 207.081 107.592C204.348 107.592 201.641 107.592 198.526 107.862ZM218.046 94.2101C218.897 94.5761 219.748 94.9422 220.599 95.3082C220.744 94.9039 221.119 94.2865 220.995 94.1316C220.412 93.3995 219.692 92.7939 219.02 92.1432C218.638 92.7145 218.257 93.2858 218.046 94.2101ZM220.604 83.0374C221.463 82.6922 222.322 82.347 223.182 82.0017C222.962 81.5475 222.792 80.7511 222.514 80.7043C221.731 80.5728 220.903 80.75 220.093 80.8054C220.137 81.4915 220.181 82.1776 220.604 83.0374ZM217.989 70.9585C219.384 72.3015 220.168 71.0328 220.802 70.0229C221.01 69.6912 220.513 68.8443 220.338 68.233C219.533 68.7572 218.712 69.2558 217.938 69.8287C217.797 69.9337 217.847 70.3409 217.989 70.9585ZM185.721 82.7107C186.421 81.0994 185.447 80.6158 184.325 80.7228C183.682 80.7841 183.098 81.568 182.487 82.0265C183.137 82.4349 183.762 82.9037 184.448 83.2206C184.706 83.3394 185.103 83.1049 185.721 82.7107ZM185.761 71.1791C186.4 71.053 187.039 70.9269 187.678 70.8007C187.34 70.0476 187.141 69.1345 186.612 68.6021C186.3 68.2872 185.466 68.5743 184.867 68.5907C185.062 69.3572 185.258 70.1238 185.761 71.1791ZM185.066 95.3156C185.68 95.1875 186.556 95.2796 186.845 94.879C187.264 94.297 187.26 93.3594 187.436 92.5735C186.714 92.7436 185.861 92.7193 185.315 93.149C184.921 93.4584 184.937 94.373 185.066 95.3156Z" fill="#F9AE1A"/>
<path d="M51.0543 215.117C56.2097 198.416 68.3127 189.12 83.6283 189.908C99.0407 190.7 111.898 204.454 113.084 221.417C114.266 238.311 103.352 254.015 88.1849 257.247C64.9221 262.203 45.2748 240.054 51.0543 215.117ZM87.7012 231.309C90.0776 231.642 92.4462 232.118 94.8325 232.269C97.5221 232.439 98.8248 231.312 98.7366 229.139C98.635 226.635 97.1534 226.012 95.056 225.969C90.7945 225.88 86.7013 224.957 83.1811 222.159C79.3627 219.123 75.3371 219.032 70.9912 220.663C68.8076 221.482 67.7239 222.609 68.0901 225.238C68.3171 226.867 68.1322 228.563 68.1322 230.229C68.1322 235.293 68.1439 235.254 72.4599 236.788C73.9169 237.305 75.2829 238.114 76.7179 238.713C78.9497 239.645 81.1523 240.741 83.4611 241.36C88.4955 242.71 94.2499 240.101 96.8127 235.519C96.4455 235.497 96.1053 235.507 95.7748 235.451C91.9772 234.809 88.1693 234.224 84.3973 233.438C83.8196 233.318 83.4098 232.26 82.9224 231.636C83.6181 231.332 84.2985 230.844 85.0136 230.775C85.7486 230.704 86.5175 231.042 87.7012 231.309ZM77.8196 204.208C77.6197 204.815 77.3795 205.41 77.2262 206.03C76.1505 210.379 77.2079 214.177 80.2449 217.112C83.4666 220.225 87.3019 220.832 91.2637 218.887C95.018 217.044 97.0178 213.742 97.2065 209.281C97.4119 204.423 94.4613 199.884 90.2499 198.423C85.5034 196.777 80.9651 198.769 77.8196 204.208ZM61.0825 238.65C62.6358 238.268 65.1982 239.774 65.3837 236.734C65.6614 232.183 65.4559 227.597 65.4559 222.845C63.0184 222.845 60.8942 222.902 58.7742 222.826C57.0542 222.765 56.5633 223.66 56.6047 225.369C56.6784 228.408 56.6248 231.452 56.6252 234.493C56.6258 238.64 56.6261 238.64 61.0825 238.65ZM99.2469 223.282C100.149 225.399 101.052 227.515 102.001 229.742C102.751 228.727 103.769 227.611 104.482 226.303C105.062 225.239 105.279 223.944 105.656 222.751C104.301 222.491 102.95 222.08 101.588 222.033C100.91 222.01 100.213 222.652 99.2469 223.282Z" fill="#5F7C38"/>
<path d="M390.736 59.8326C403.631 67.2264 410.262 81.7109 407.712 96.5985C405.238 111.037 394.024 122.293 380.217 124.196C364.071 126.421 348.241 113.722 345.489 96.3334C342.618 78.1938 353.39 60.7256 369.775 57.0103C376.98 55.3767 383.934 56.1584 390.736 59.8326ZM387.751 97.6879C388.581 100.002 390.039 100.084 391.566 98.6737C393.256 97.1126 394.845 95.395 396.308 93.5857C397.674 91.8974 397.608 89.9933 396.202 88.307C394.998 86.8624 393.687 85.5223 392.425 84.1333C389.917 81.3714 390.218 80.2062 393.694 79.2212C396.044 78.5553 397.224 76.6198 396.709 74.2886C396.18 71.8911 394.658 70.5989 392.499 70.5124C390.29 70.4239 389.166 71.9518 388.688 74.2232C388.006 77.4654 386.755 77.8561 384.523 75.5991C383.147 74.2083 381.866 72.7064 380.471 71.3396C378.728 69.6316 376.915 69.6797 375.204 71.423C373.894 72.7582 372.656 74.1751 371.361 75.5286C369.066 77.9283 367.831 77.5435 367.042 74.207C366.321 71.1579 364.366 69.8533 361.925 70.8036C359.922 71.5837 358.81 73.1621 358.872 75.4281C358.934 77.6808 360.292 78.8172 362.263 79.3268C365.404 80.1388 365.746 81.4839 363.508 83.9953C362.378 85.2637 361.177 86.4603 360.06 87.7418C358.003 90.1024 358.004 91.9355 360.051 94.2549C361.175 95.529 362.378 96.7228 363.501 97.9993C365.71 100.512 365.352 101.782 362.233 102.633C359.504 103.377 358.258 105.644 359.192 108.217C359.965 110.35 361.473 111.519 363.562 111.386C365.639 111.253 366.642 109.728 367.082 107.602C367.716 104.543 368.998 104.116 371.122 106.226C372.447 107.543 373.656 108.995 374.963 110.335C377.007 112.432 378.7 112.449 380.808 110.371C381.947 109.248 383.014 108.037 384.094 106.844C386.735 103.928 386.361 102.775 382.774 101.373C381.651 100.934 380.274 99.6511 380.061 98.5239C379.821 97.256 380.401 95.3488 381.264 94.3844C383.71 91.6481 386.677 93.0738 387.751 97.6879Z" fill="#5F7C38"/>
<path d="M492.758 192.551C512.543 183.107 533.873 195.401 537.565 218.188C540.757 237.889 525.744 256.955 507.185 257.409C493.463 257.744 479.433 247.967 475.579 231.394C471.991 215.963 478.884 200.28 492.758 192.551ZM490.6 224.339C491.096 225.422 491.477 226.594 492.118 227.566C492.86 228.691 493.83 229.641 494.701 230.666C494.45 230.932 494.2 231.198 493.95 231.464C492.686 230.113 491.381 228.804 490.17 227.4C488.873 225.895 488.938 224.315 490.009 222.616C490.495 221.846 490.848 220.845 490.908 219.922C491.041 217.894 490.91 215.847 490.961 213.81C491.006 212.001 490.8 210.2 488.77 210.135C486.632 210.067 486.226 211.849 486.241 213.812C486.272 218.074 486.344 222.34 486.215 226.598C486.139 229.116 486.969 231.015 488.536 232.803C490.146 234.64 491.529 236.708 493.142 238.848C494.867 238.354 496.932 237.748 499.005 237.172C502.442 236.216 503.316 232.834 500.793 229.953C498.965 227.867 497.033 225.887 495.129 223.879C493.66 222.328 492.186 222.083 490.6 224.339ZM511.496 231.061C510.894 233.11 510.34 235.522 512.487 236.561C515.004 237.779 517.853 238.199 519.957 238.795C521.823 236.38 523.453 234.412 524.922 232.313C525.718 231.174 526.746 229.838 526.799 228.549C527.016 223.288 527.016 218.005 526.793 212.745C526.754 211.816 525.272 210.959 524.457 210.068C523.697 211.008 522.411 211.872 522.282 212.904C521.964 215.447 522.152 218.068 522.199 220.656C522.209 221.161 522.416 221.723 522.68 222.152C524.753 225.518 522.625 230.19 518.121 230.967C519.389 229.52 520.338 228.407 521.319 227.327C522.313 226.235 523.446 225.067 522.115 223.57C520.8 222.092 519.325 222.477 518.057 223.835C515.928 226.113 513.821 228.416 511.496 231.061ZM496.444 221.389C500.975 226.44 506.917 227.498 512.057 224.167C516.943 221.002 519.221 214.633 517.397 208.785C515.736 203.459 512.18 200.319 507.04 199.721C502.001 199.135 497.902 201.32 495.309 206.039C492.493 211.166 492.919 216.273 496.444 221.389ZM510.283 237.687C509.89 238.606 509.498 239.525 508.994 240.705C513.37 241.949 517.287 243.064 521.401 244.234C521.704 242.939 521.917 242.028 522.183 240.891C518.137 239.76 514.428 238.724 510.283 237.687ZM502.125 241.255C503.498 241.125 504.327 240.386 503.594 238.942C503.292 238.347 502.137 237.783 501.518 237.93C498.522 238.643 495.551 239.52 492.633 240.544C492.061 240.745 491.426 241.845 491.408 242.549C491.367 244.125 492.434 244.156 493.571 243.814C496.285 243 499.005 242.212 502.125 241.255Z" fill="#F9AE1A"/>
<path d="M201.589 73.1775C201.589 81.3739 201.589 89.2976 201.589 97.3403C197.794 97.6498 194.431 97.6654 192.531 93.5466C192.358 93.1726 192.001 92.8436 191.658 92.6234C186.774 89.4866 186.107 87.0829 188.704 81.8573C186.103 76.6691 186.769 74.302 191.652 71.0586C192.184 70.7054 192.457 69.927 192.946 69.4655C193.96 68.5104 194.918 67.3128 196.115 66.7901C199.45 65.3334 201.588 66.9571 201.589 70.6855C201.589 71.4253 201.589 72.165 201.589 73.1775ZM198.859 76.2774C198.919 76.008 199.074 75.7142 199.021 75.4736C198.844 74.6691 198.592 73.8835 198.369 73.0907C197.855 73.6323 197.346 74.1812 196.824 74.7137C196.226 75.3231 195.557 75.8642 195.024 76.5329C194.391 77.3286 193.788 78.1842 193.353 79.1124C193.234 79.3651 193.676 80.1154 194.028 80.369C194.284 80.554 194.944 80.4573 195.199 80.2128C196.382 79.076 197.487 77.8439 198.859 76.2774ZM193.997 88.3114C195.061 88.4367 196.829 89.027 197.067 88.607C198.118 86.7567 196.084 86.8381 195.313 86.102C194.867 85.6759 194.445 85.1563 193.918 84.9148C193.516 84.7301 192.809 84.7229 192.529 84.9909C192.252 85.2555 192.138 86.0771 192.317 86.4542C192.611 87.0773 193.198 87.5396 193.997 88.3114Z" fill="#060401"/>
<path d="M204.074 94.7387C204.074 86.5103 204.073 78.5489 204.074 70.5875C204.075 67.1111 205.658 65.3411 208.623 66.6298C212.576 68.3475 216.064 71.3562 217.935 75.5859C218.663 77.2299 217.709 79.7391 217.43 82.8876C219.458 87.1481 218.797 89.5834 213.981 92.622C213.697 92.801 213.415 93.0229 213.204 93.2905C209.874 97.5102 209.428 97.7221 204.252 97.3203C204.195 96.5793 204.134 95.7926 204.074 94.7387ZM207.86 77.7765C208.618 78.4758 209.322 79.2657 210.154 79.8396C210.635 80.1713 211.386 80.3762 211.892 80.2066C212.168 80.1138 212.465 78.9491 212.263 78.5727C211.817 77.7399 211.067 77.0945 210.431 76.3828C209.918 75.809 209.396 75.2442 208.869 74.686C208.347 74.1343 207.814 73.5959 207.286 73.0518C207.051 73.9022 206.624 74.7576 206.643 75.6014C206.658 76.2478 207.234 76.8796 207.86 77.7765ZM210.232 86.1678C209.585 86.8808 208.938 87.5939 208.29 88.3069C208.747 88.6255 209.422 89.3327 209.625 89.1999C210.976 88.3179 212.261 87.3016 213.471 86.2052C213.659 86.0352 213.506 85.0613 213.229 84.7691C212.974 84.4993 212.261 84.4648 211.893 84.6529C211.375 84.9177 210.989 85.4836 210.232 86.1678Z" fill="#060401"/>
<path d="M207.084 99.5092C208.319 99.6231 209.734 98.9909 209.63 101.056C209.533 102.979 208.922 104.729 207 104.896C204.194 105.139 201.314 105.269 198.544 104.844C196.13 104.473 195.839 102.17 196.114 99.5092C199.718 99.5092 203.283 99.5092 207.084 99.5092Z" fill="#110C02"/>
<path d="M198.73 107.727C201.641 107.592 204.347 107.592 207.08 107.592C207.52 109.659 206.885 110.51 205.059 110.424C203.53 110.352 201.993 110.349 200.464 110.425C198.681 110.513 198.191 109.579 198.73 107.727Z" fill="black"/>
<path d="M217.96 94.0329C218.256 93.2851 218.638 92.7138 219.02 92.1426C219.691 92.7933 220.411 93.3989 220.995 94.131C221.118 94.2859 220.744 94.9033 220.598 95.3075C219.747 94.9415 218.896 94.5755 217.96 94.0329Z" fill="#110C02"/>
<path d="M220.414 82.95C220.18 82.1771 220.137 81.491 220.093 80.8049C220.903 80.7494 221.73 80.5723 222.513 80.7038C222.792 80.7505 222.962 81.547 223.181 82.0012C222.322 82.3464 221.463 82.6916 220.414 82.95Z" fill="#110C02"/>
<path d="M217.899 70.783C217.847 70.3403 217.796 69.9331 217.938 69.8281C218.712 69.2551 219.533 68.7566 220.338 68.2324C220.512 68.8437 221.01 69.6905 220.802 70.0222C220.168 71.0321 219.384 72.3008 217.899 70.783Z" fill="#110C02"/>
<path d="M185.578 82.8694C185.103 83.1032 184.705 83.3377 184.448 83.2189C183.762 82.902 183.136 82.4333 182.487 82.0249C183.098 81.5663 183.682 80.7824 184.325 80.7211C185.447 80.6141 186.421 81.0977 185.578 82.8694Z" fill="#090601"/>
<path d="M185.607 71.0345C185.258 70.1236 185.062 69.357 184.867 68.5905C185.466 68.5741 186.299 68.287 186.612 68.6019C187.141 69.1343 187.34 70.0474 187.678 70.8005C187.038 70.9266 186.399 71.0528 185.607 71.0345Z" fill="#110C02"/>
<path d="M184.918 95.1673C184.937 94.3737 184.921 93.4591 185.314 93.1497C185.861 92.72 186.714 92.7443 187.436 92.5742C187.26 93.3601 187.264 94.2977 186.845 94.8797C186.556 95.2804 185.68 95.1882 184.918 95.1673Z" fill="#090601"/>
<path d="M87.4864 231.255C86.5175 231.042 85.7486 230.705 85.0137 230.776C84.2985 230.845 83.6181 231.332 82.9224 231.636C83.4099 232.26 83.8197 233.318 84.3973 233.438C88.1693 234.224 91.9773 234.81 95.7748 235.451C96.1054 235.507 96.4456 235.497 96.8127 235.519C94.2499 240.101 88.4955 242.71 83.4611 241.36C81.1523 240.741 78.9498 239.645 76.7179 238.713C75.2829 238.114 73.917 237.305 72.4599 236.788C68.1439 235.254 68.1322 235.293 68.1322 230.229C68.1322 228.563 68.3171 226.867 68.0901 225.238C67.7239 222.609 68.8076 221.483 70.9912 220.663C75.3371 219.032 79.3628 219.123 83.1812 222.159C86.7013 224.958 90.7945 225.88 95.0561 225.969C97.1534 226.013 98.635 226.636 98.7367 229.139C98.8249 231.312 97.5221 232.439 94.8326 232.269C92.4463 232.118 90.0776 231.642 87.4864 231.255Z" fill="#FBFCFB"/>
<path d="M77.8934 204.011C80.9652 198.769 85.5035 196.776 90.25 198.423C94.4613 199.884 97.412 204.422 97.2065 209.28C97.0178 213.742 95.018 217.043 91.2637 218.886C87.3019 220.831 83.4667 220.224 80.2449 217.111C77.2079 214.176 76.1506 210.379 77.2262 206.03C77.3795 205.409 77.6197 204.814 77.8934 204.011ZM89.1582 211.36C89.9433 210.153 90.8396 209.009 91.4629 207.711C91.7393 207.136 91.4639 206.252 91.439 205.508C90.7273 205.72 89.8108 205.705 89.347 206.192C88.4066 207.179 87.7113 208.438 86.8734 209.645C86.097 208.908 85.5679 208.012 84.9363 207.918C84.3051 207.824 83.5713 208.533 82.8825 208.89C84.106 210.364 85.2552 211.931 86.6342 213.209C86.8381 213.398 88.1283 212.223 89.1582 211.36Z" fill="#FBFCFB"/>
<path d="M60.8484 238.651C56.6261 238.641 56.6257 238.641 56.6251 234.494C56.6247 231.452 56.6784 228.409 56.6047 225.369C56.5632 223.66 57.0541 222.766 58.7742 222.827C60.8942 222.903 63.0183 222.845 65.4558 222.845C65.4558 227.598 65.6614 232.183 65.3837 236.735C65.1981 239.775 62.6358 238.268 60.8484 238.651Z" fill="#FBFCFB"/>
<path d="M99.3857 223.138C100.213 222.652 100.91 222.01 101.588 222.034C102.95 222.081 104.301 222.491 105.656 222.751C105.278 223.944 105.062 225.24 104.482 226.304C103.768 227.612 102.751 228.727 102.001 229.743C101.052 227.516 100.149 225.399 99.3857 223.138Z" fill="#FBFCFB"/>
<path d="M387.724 97.4819C386.677 93.0751 383.71 91.6494 381.264 94.3857C380.402 95.3501 379.821 97.2573 380.061 98.5252C380.274 99.6524 381.651 100.935 382.774 101.374C386.362 102.776 386.735 103.929 384.094 106.846C383.014 108.038 381.948 109.249 380.808 110.373C378.7 112.45 377.007 112.433 374.963 110.336C373.656 108.996 372.448 107.544 371.122 106.228C368.998 104.117 367.716 104.544 367.082 107.604C366.642 109.729 365.639 111.255 363.562 111.387C361.473 111.52 359.966 110.352 359.192 108.218C358.259 105.645 359.504 103.378 362.233 102.634C365.352 101.783 365.71 100.513 363.501 98.0006C362.378 96.7242 361.175 95.5303 360.051 94.2562C358.004 91.9368 358.003 90.1037 360.061 87.7432C361.177 86.4616 362.378 85.265 363.508 83.9967C365.746 81.4853 365.404 80.1401 362.264 79.3281C360.292 78.8185 358.934 77.6822 358.872 75.4295C358.81 73.1634 359.922 71.585 361.926 70.8049C364.366 69.8546 366.321 71.1592 367.042 74.2084C367.831 77.5448 369.066 77.9296 371.361 75.5299C372.656 74.1764 373.894 72.7595 375.204 71.4243C376.915 69.681 378.728 69.6329 380.471 71.341C381.866 72.7077 383.147 74.2096 384.523 75.6004C386.756 77.8574 388.006 77.4667 388.689 74.2245C389.167 71.9531 390.29 70.4252 392.499 70.5137C394.658 70.6002 396.18 71.8924 396.709 74.2899C397.224 76.6211 396.044 78.5566 393.694 79.2226C390.218 80.2075 389.917 81.3727 392.425 84.1347C393.687 85.5237 394.998 86.8637 396.202 88.3084C397.608 89.9946 397.674 91.8987 396.309 93.587C394.845 95.3963 393.256 97.1139 391.566 98.675C390.039 100.085 388.581 100.004 387.724 97.4819Z" fill="#FDFDFD"/>
<path d="M490.681 224.153C492.186 222.085 493.66 222.329 495.13 223.88C497.033 225.888 498.966 227.868 500.793 229.954C503.316 232.835 502.442 236.217 499.005 237.173C496.933 237.749 494.868 238.355 493.142 238.849C491.529 236.709 490.146 234.641 488.536 232.804C486.97 231.016 486.139 229.117 486.215 226.599C486.344 222.341 486.273 218.075 486.241 213.813C486.227 211.85 486.632 210.069 488.77 210.137C490.8 210.201 491.007 212.002 490.961 213.811C490.91 215.848 491.041 217.895 490.909 219.923C490.848 220.846 490.495 221.847 490.01 222.617C488.938 224.316 488.873 225.896 490.17 227.401C491.381 228.805 492.686 230.114 493.95 231.465C494.2 231.199 494.451 230.933 494.701 230.667C493.83 229.642 492.86 228.692 492.118 227.567C491.477 226.595 491.096 225.424 490.681 224.153Z" fill="#090601"/>
<path d="M511.6 230.885C513.821 228.416 515.928 226.113 518.057 223.835C519.326 222.478 520.8 222.092 522.115 223.57C523.446 225.067 522.314 226.235 521.32 227.328C520.338 228.407 519.389 229.521 518.121 230.967C522.625 230.19 524.753 225.519 522.68 222.153C522.416 221.723 522.209 221.162 522.199 220.656C522.152 218.068 521.964 215.447 522.282 212.904C522.411 211.872 523.697 211.008 524.457 210.068C525.272 210.959 526.754 211.817 526.793 212.745C527.016 218.005 527.016 223.288 526.799 228.549C526.746 229.838 525.718 231.175 524.922 232.313C523.453 234.412 521.823 236.38 519.957 238.796C517.853 238.199 515.004 237.779 512.487 236.561C510.34 235.522 510.894 233.11 511.6 230.885Z" fill="#070501"/>
<path d="M496.322 221.235C492.919 216.273 492.493 211.165 495.309 206.038C497.902 201.319 502.001 199.134 507.04 199.72C512.18 200.318 515.736 203.459 517.397 208.785C519.221 214.632 516.943 221.001 512.057 224.167C506.917 227.497 500.975 226.439 496.322 221.235ZM514.008 206.431C510.194 201.66 504.977 200.515 500.486 203.464C496.299 206.213 494.516 211.867 496.293 216.761C498.467 222.748 504.712 225.465 510.069 222.755C515.667 219.922 517.428 213.155 514.008 206.431Z" fill="#110C02"/>
<path d="M510.501 237.688C514.429 238.724 518.138 239.761 522.184 240.892C521.918 242.028 521.704 242.939 521.401 244.234C517.288 243.064 513.37 241.95 508.995 240.705C509.498 239.525 509.891 238.607 510.501 237.688Z" fill="#090601"/>
<path d="M501.924 241.336C499.006 242.214 496.285 243.001 493.571 243.816C492.434 244.157 491.368 244.126 491.408 242.55C491.427 241.847 492.061 240.746 492.633 240.546C495.551 239.521 498.522 238.644 501.518 237.932C502.137 237.785 503.292 238.349 503.594 238.943C504.327 240.388 503.498 241.126 501.924 241.336Z" fill="#090601"/>
<path d="M198.739 76.4608C197.486 77.843 196.382 79.0751 195.198 80.212C194.944 80.4564 194.284 80.5532 194.027 80.3681C193.676 80.1146 193.234 79.3642 193.353 79.1116C193.788 78.1834 194.39 77.3278 195.024 76.5321C195.556 75.8634 196.225 75.3223 196.824 74.7129C197.346 74.1804 197.855 73.6315 198.369 73.0898C198.592 73.8827 198.844 74.6682 199.021 75.4728C199.074 75.7133 198.919 76.0071 198.739 76.4608Z" fill="#F9AE1A"/>
<path d="M193.83 88.1898C193.198 87.5388 192.611 87.0765 192.317 86.4534C192.138 86.0763 192.252 85.2547 192.529 84.9901C192.809 84.722 193.516 84.7293 193.918 84.9139C194.445 85.1555 194.868 85.6751 195.314 86.1012C196.084 86.8372 198.118 86.7559 197.067 88.6061C196.829 89.0262 195.061 88.4359 193.83 88.1898Z" fill="#E39E17"/>
<path d="M207.71 77.6462C207.234 76.8786 206.658 76.2468 206.643 75.6004C206.624 74.7566 207.051 73.9012 207.286 73.0508C207.814 73.595 208.347 74.1333 208.869 74.6851C209.396 75.2432 209.918 75.808 210.431 76.3819C211.067 77.0935 211.817 77.7389 212.263 78.5717C212.465 78.9481 212.168 80.1128 211.892 80.2056C211.386 80.3752 210.635 80.1703 210.154 79.8386C209.322 79.2648 208.617 78.4748 207.71 77.6462Z" fill="#E39E17"/>
<path d="M210.39 86.0448C210.989 85.4841 211.375 84.9182 211.893 84.6534C212.261 84.4653 212.974 84.4999 213.229 84.7696C213.506 85.0618 213.659 86.0357 213.471 86.2057C212.261 87.3021 210.976 88.3185 209.625 89.2004C209.422 89.3332 208.747 88.626 208.291 88.3075C208.938 87.5944 209.585 86.8814 210.39 86.0448Z" fill="#E39E17"/>
<path d="M89.0369 211.521C88.1281 212.224 86.8379 213.399 86.6341 213.21C85.2551 211.932 84.1059 210.365 82.8823 208.892C83.5711 208.535 84.3049 207.825 84.9362 207.919C85.5678 208.013 86.0969 208.91 86.8732 209.646C87.7112 208.439 88.4065 207.18 89.3469 206.193C89.8106 205.706 90.7272 205.722 91.4389 205.51C91.4638 206.254 91.7392 207.137 91.4628 207.713C90.8395 209.01 89.9432 210.155 89.0369 211.521Z" fill="#5F7C38"/>
<path d="M514.119 206.6C517.428 213.155 515.667 219.923 510.069 222.755C504.712 225.466 498.467 222.749 496.293 216.762C494.516 211.868 496.299 206.214 500.486 203.465C504.977 200.516 510.194 201.661 514.119 206.6ZM502.892 216.569C500.935 213.688 500.893 211.304 502.764 209.394C504.386 207.739 506.941 207.678 508.63 209.254C510.561 211.057 510.604 213.584 508.752 216.409C508.653 216.56 508.574 216.726 508.489 216.889C509.651 217.755 510.814 218.621 511.955 219.471C515.541 215.077 515.369 209.338 511.65 205.768C507.983 202.248 502.455 202.587 499.173 206.534C496 210.351 496.232 216.007 499.699 219.395C500.821 218.569 501.943 217.743 502.892 216.569ZM504.106 210.085C503.708 211.377 502.82 212.769 503.023 213.94C503.347 215.811 504.983 216.499 506.663 215.926C508.32 215.361 509.252 213.904 508.696 212.042C508.052 209.888 506.572 208.996 504.106 210.085ZM508.162 221.998C508.953 221.6 509.743 221.202 510.633 220.754C507.443 217.06 503.297 217.203 500.739 221.485C503.321 221.723 505.534 221.927 508.162 221.998Z" fill="#E39E17"/>
<path d="M502.978 216.743C501.942 217.743 500.821 218.569 499.7 219.397C496.232 216.007 495.999 210.351 499.173 206.535C502.454 202.588 507.982 202.248 511.65 205.768C515.369 209.338 515.54 215.077 511.955 219.471C510.813 218.621 509.651 217.755 508.487 216.887C508.574 216.726 508.653 216.56 508.752 216.41C510.603 213.584 510.561 211.057 508.629 209.254C506.941 207.678 504.386 207.739 502.764 209.394C500.892 211.304 500.935 213.688 502.978 216.743Z" fill="#070501"/>
<path d="M504.281 209.987C506.572 208.996 508.052 209.888 508.696 212.042C509.252 213.904 508.32 215.361 506.663 215.926C504.983 216.499 503.347 215.812 503.023 213.94C502.82 212.769 503.708 211.378 504.281 209.987Z" fill="#090601"/>
<path d="M507.955 222.064C505.534 221.927 503.321 221.723 500.739 221.485C503.296 217.202 507.443 217.06 510.633 220.754C509.743 221.201 508.953 221.599 507.955 222.064Z" fill="#090601"/>
<path d="M40.9873 200.513L2.06226 173.816" stroke="black" stroke-width="5"/>
<path d="M547.012 203.292L585.938 176.596" stroke="black" stroke-width="5"/>
<path d="M177.056 49.9554L154.576 6.50586" stroke="black" stroke-width="5"/>
<path d="M395.894 45.873L418.359 2.41406" stroke="black" stroke-width="5"/>
<ellipse cx="3.86673" cy="174.65" rx="3.86673" ry="4.17134" fill="black"/>
<ellipse cx="3.86673" cy="4.17134" rx="3.86673" ry="4.17134" transform="matrix(-1 0 0 1 588 173.26)" fill="black"/>
<ellipse cx="3.93763" cy="4.10447" rx="3.93763" ry="4.10447" transform="matrix(0.863929 0.503614 -0.447861 0.894103 154.232 2.51172)" fill="black"/>
<ellipse cx="4.17036" cy="3.86777" rx="4.17036" ry="3.86777" transform="matrix(0.0533863 0.998574 -0.99807 0.0620976 421.328 0)" fill="black"/>
</svg>
