<svg width="693" height="349" viewBox="0 0 693 349" fill="none" xmlns="http://www.w3.org/2000/svg">
<path d="M157.136 16.5337H126.726V62.8867L305.938 245.642V332.738H256.928" stroke="black" stroke-width="5"/>
<path d="M357.9 18.8955H327.49V65.2485L506.702 248.003V335.1H457.692" stroke="black" stroke-width="5"/>
<path d="M244.231 174.062C244.228 177.782 244.276 181.224 244.205 184.664C244.161 186.812 243.455 188.723 240.888 188.648C238.363 188.574 237.742 186.722 237.752 184.518C237.771 180.683 237.803 176.848 237.739 173.015C237.7 170.639 238.097 168.343 240.902 168.289C243.713 168.235 244.234 170.543 244.229 172.899C244.228 173.194 244.23 173.489 244.231 174.062Z" fill="#587535"/>
<path d="M520 197.821C521.106 165.116 532.98 137.239 555.751 114.209C567.726 102.098 581.921 93.3689 598.814 89.8655C628.085 83.7947 654.303 97.8903 665.838 125.743C674.667 147.064 674.699 168.907 668.733 190.819C661.255 218.287 646.641 241.113 623.029 257.569C610.517 266.289 596.742 271.692 581.216 271.706C558.81 271.727 542.302 261.454 530.993 242.523C522.849 228.89 520.055 213.81 520 197.821ZM644.554 205.128C652.361 188.684 655.881 171.477 653.422 153.306C651.564 139.577 646.53 127.212 635.91 117.896C621.621 105.362 605.142 103.813 587.882 110.173C568.309 117.386 554.678 131.549 545.13 149.669C533.956 170.877 529.941 193.213 537.196 216.585C542.126 232.463 551.917 244.28 568.308 249.424C581.393 253.531 594.015 251.332 606.033 245.394C623.557 236.734 635.649 222.722 644.554 205.128Z" fill="#587535"/>
<path d="M505.226 202.231C506.517 165.764 520.366 134.681 546.926 109.002C560.894 95.4982 577.45 85.7656 597.153 81.8592C631.295 75.0903 661.875 90.807 675.328 121.863C685.627 145.636 685.664 169.991 678.706 194.424C669.983 225.05 652.938 250.501 625.398 268.85C610.804 278.573 594.737 284.597 576.628 284.613C550.494 284.637 531.239 273.182 518.049 252.074C508.55 236.873 505.291 220.059 505.226 202.231ZM650.504 210.378C659.61 192.043 663.715 172.857 660.847 152.596C658.68 137.289 652.809 123.501 640.422 113.114C623.755 99.1381 604.535 97.4106 584.403 104.503C561.573 112.545 545.674 128.336 534.538 148.541C521.505 172.188 516.821 197.093 525.284 223.153C531.034 240.857 542.454 254.033 561.572 259.769C576.834 264.348 591.556 261.896 605.573 255.275C626.014 245.619 640.117 229.996 650.504 210.378Z" fill="black"/>
<path d="M28.0591 177.136C27.3639 176.327 26.7099 175.478 25.9672 174.715C17.8144 166.341 9.64622 157.982 1.48957 149.612C1.09236 149.205 0.763804 148.73 0.0739746 147.882C1.2834 147.771 2.0922 147.634 2.90118 147.633C14.02 147.619 25.1394 147.571 36.2568 147.696C37.5367 147.71 39.1206 148.4 40.0294 149.311C46.8263 156.119 53.5277 163.023 60.1696 169.983C62.1826 172.093 63.9145 174.47 65.5164 176.924C52.8581 177.127 40.4586 177.131 28.0591 177.136Z" fill="#69883D"/>
<path d="M27.8843 177.221C40.4587 177.131 52.8582 177.127 65.5264 177.122C65.3038 177.951 64.9526 178.917 64.3 179.591C56.1662 187.99 48.006 196.363 39.7906 204.681C39.1076 205.372 37.9782 206.008 37.0513 206.015C25.0505 206.104 13.0487 206.074 0 206.074C9.61171 196.095 18.6606 186.7 27.8843 177.221Z" fill="#587535"/>
<path d="M171.284 0C174.118 1.86421 177.504 2.21195 179.579 5.3218C182.716 10.0217 183.088 16.2573 179.503 20.6749C173.544 28.0194 162.576 26.6805 158.521 19.4749C154.875 12.9981 157.286 3.41265 164.539 1.06278C166.615 0.390028 168.889 0.325669 171.284 0ZM170.597 17.1713C172.236 15.2414 172.317 13.0664 171.393 10.8603C170.442 8.5919 166.948 7.8838 165.978 9.94788C165.131 11.7496 165.023 14.2955 165.559 16.2454C166.161 18.4336 168.364 18.2122 170.597 17.1713ZM176.001 17.6824C176.143 14.8241 176.285 11.9658 176.427 9.10749C176.173 8.96969 175.92 8.83187 175.666 8.69405C174.878 9.71891 172.508 7.53557 172.78 10.5104C172.945 12.3232 173.453 14.1302 174.024 15.8687C174.278 16.6406 175.066 17.2368 176.001 17.6824Z" fill="#69883D"/>
<path d="M232.481 326.898C234.567 322.709 237.479 319.785 242.162 319.494C248.433 319.103 253.417 321.45 255.914 327.457C257.793 331.976 256.735 336.208 253.643 340.028C250.444 343.979 246.515 345.642 241.477 344.563C235.086 343.194 231.399 338.403 231.873 331.969C231.993 330.33 232.199 328.698 232.481 326.898ZM243.678 333.883C243.499 329.558 241.053 327.39 238.292 329.211C236.153 330.621 236.178 333.023 236.861 335.017C237.26 336.183 238.817 337.479 240.048 337.719C242.282 338.153 243.255 336.386 243.678 333.883ZM246.685 335.051C246.098 335.082 245.511 335.113 244.758 335.153C245.587 337.938 247.489 338.352 249.47 337.681C251.361 337.041 251.865 335.53 250.58 333.706C250.38 333.423 250.376 332.805 250.549 332.487C251.598 330.556 251.016 329.157 249.03 328.634C247.026 328.106 245.47 328.817 244.959 331.352C246.427 331.123 247.629 330.936 248.831 330.748C248.855 330.96 248.879 331.172 248.904 331.384C248.264 331.972 247.625 332.561 247.168 332.982C247.888 334.05 248.408 334.821 248.927 335.592C248.298 335.508 247.67 335.424 246.685 335.051Z" fill="#69883D"/>
<path d="M377.131 8.78428C382.323 10.805 384.518 14.8167 384.861 19.9046C385.217 25.1702 382.565 29.0682 378.231 31.5958C373.04 34.6232 365.547 33.1043 362.46 28.6975C357.546 21.6833 358.44 16.6092 363.364 11.2158C366.982 7.25374 372.057 7.77848 377.131 8.78428ZM371.754 18.1798C369.734 15.5455 366.625 15.2598 365.85 17.8656C365.279 19.7844 365.731 22.1805 366.349 24.1713C366.526 24.7437 369.686 25.2463 370.05 24.7447C371.126 23.2606 371.506 21.2646 372.109 19.4527C372.186 19.2225 371.975 18.8967 371.754 18.1798ZM375.005 16.3778C374.343 17.1647 373.68 17.9516 373.018 18.7384C373.246 18.993 373.474 19.2475 373.702 19.502C374.598 19.0158 375.495 18.5296 376.694 17.8789C377.822 21.4502 373.463 21.94 373.007 24.8395C375.277 25.1025 377.386 25.5036 380.248 24.2634C378.726 23.5661 377.958 23.2146 377.826 23.1541C378.271 21.0273 378.908 19.2299 378.84 17.4596C378.822 16.9971 376.611 16.6189 375.005 16.3778Z" fill="#F3BE1E"/>
<path d="M451.842 346.805C448.442 348.216 445.174 348.708 441.913 347.162C436.972 344.819 433.136 339.992 433.867 334.06C434.694 327.34 439.321 322.682 445.776 323.011C454.833 323.472 457.463 326.24 459.298 333.977C460.206 337.808 456.567 345.658 451.842 346.805ZM450.876 338.603C451.642 339.047 451.747 345.608 452.057 345.393C452.821 344.866 453.04 338.499 452.943 337.717C452.704 335.779 452.508 333.879 452.382 331.9C449.973 331.945 447.33 335.519 447.333 338.898C448.27 338.944 449.433 338.473 450.876 338.603ZM441.078 331.82C438.476 332.993 438.216 335.186 438.651 337.384C438.888 338.587 439.997 340.085 441.094 340.549C443.244 341.46 444.936 340.054 445.392 337.513C446.037 333.92 444.842 332.131 441.078 331.82Z" fill="#F3BE1E"/>
<path d="M442.859 183.139C442.84 184.3 443.143 185.399 442.728 186.011C442.043 187.024 440.84 188.437 439.954 188.371C438.856 188.289 437.008 186.92 436.956 186.021C436.661 180.948 436.654 175.84 436.941 170.766C436.994 169.823 438.969 168.16 439.824 168.296C440.951 168.475 442.609 170.033 442.708 171.12C443.062 175.005 442.854 178.941 442.859 183.139Z" fill="#F1BA19"/>
<path d="M644.46 205.328C635.649 222.722 623.558 236.735 606.033 245.394C594.016 251.332 581.393 253.531 568.308 249.424C551.918 244.28 542.126 232.464 537.197 216.586C529.941 193.214 533.957 170.877 545.131 149.669C554.678 131.549 568.309 117.386 587.883 110.174C605.143 103.813 621.621 105.362 635.911 117.897C646.531 127.212 651.564 139.578 653.422 153.306C655.881 171.478 652.361 188.684 644.46 205.328ZM559.599 149.766C550.24 164.165 545.62 179.774 547.759 197.028C549.001 207.049 552.546 216.18 560.111 223.112C571.636 233.674 584.907 234.51 598.81 228.69C627.257 216.783 644.177 178.316 634.025 149.049C626.946 128.644 608.135 119.538 587.808 126.809C575.888 131.074 567.019 139.224 559.599 149.766Z" fill="#FDFEFD"/>
<path d="M559.724 149.594C567.018 139.224 575.888 131.074 587.808 126.81C608.134 119.538 626.946 128.644 634.024 149.049C644.177 178.317 627.257 216.783 598.81 228.69C584.907 234.51 571.635 233.674 560.111 223.113C552.546 216.18 549.001 207.049 547.759 197.028C545.62 179.774 550.24 164.165 559.724 149.594ZM595.855 143.774C591.72 144.846 587.228 145.217 583.515 147.114C568.518 154.776 559.369 174.576 562.713 191.052C566.306 208.757 582.025 215.993 597.615 207.119C612.684 198.542 621.328 177.821 616.818 161.085C613.994 150.608 606.538 144.297 595.855 143.774Z" fill="#69883D"/>
<path d="M166.897 14.0185C166.893 12.9948 166.806 12.1774 167.052 11.4774C167.193 11.0779 168.059 10.5277 168.28 10.645C168.777 10.9095 169.408 11.5616 169.388 12.0298C169.341 13.1109 168.938 14.1765 168.679 15.2484C168.105 14.9236 167.53 14.5988 166.897 14.0185Z" fill="#69883D"/>
<path d="M367.254 19.7237C367.949 19.1371 368.588 18.7827 369.227 18.4282C369.475 19.4921 369.906 20.5589 369.889 21.6185C369.881 22.1059 368.995 22.5792 368.507 23.0589C368.063 22.4084 367.561 21.7881 367.203 21.0935C367.049 20.7932 367.191 20.3397 367.254 19.7237Z" fill="#F3BE1E"/>
<path d="M440.273 336.65C440.815 335.758 441.652 334.875 442.191 334.214C442.601 335.104 443.323 335.993 443.325 336.883C443.326 337.633 442.489 338.385 442.023 339.135C441.538 338.31 440.755 337.706 440.273 336.65Z" fill="#F3BE1E"/>
<path d="M596.109 143.774C606.538 144.297 613.994 150.608 616.818 161.086C621.328 177.821 612.684 198.543 597.615 207.119C582.025 215.993 566.306 208.757 562.713 191.052C559.369 174.576 568.518 154.776 583.515 147.114C587.228 145.217 591.72 144.846 596.109 143.774ZM592.162 189.548C598.328 185.727 601.172 180.122 600.858 172.949C600.69 169.109 599.199 165.86 595.612 163.984C592.082 162.137 588.662 162.894 585.579 164.994C580.117 168.715 577.578 174.041 577.775 180.616C578.021 188.83 584.091 192.761 592.162 189.548Z" fill="#FDFEFD"/>
<path d="M591.955 189.645C584.092 192.761 578.021 188.83 577.775 180.616C577.578 174.04 580.117 168.715 585.579 164.994C588.662 162.894 592.082 162.137 595.612 163.984C599.199 165.86 600.69 169.108 600.858 172.949C601.172 180.122 598.329 185.727 591.955 189.645Z" fill="#F3BE1E"/>
<path d="M642.514 87.0967C650.643 89.3957 658.292 92.7855 664.635 97.6612C671.87 103.222 677.388 110.048 681.739 117.513C686.36 125.442 689.306 133.919 691.21 142.731C692.958 150.82 693.056 158.932 692.983 167.086C692.891 177.384 690.985 187.486 687.532 197.251C684.662 205.368 681.329 213.44 677.182 221.1C671.99 230.688 665.333 239.542 657.464 247.7C642.276 263.446 624.293 275.4 601.685 281.445C592.276 283.961 582.641 285.081 572.862 284.433C563.862 283.837 555.182 282.723 547.15 278.709C550.387 279.283 553.601 279.147 556.862 279.563C574.277 281.783 590.78 278.942 606.423 272.083C634.814 259.636 654.376 239.623 667.959 214.741C678.08 196.2 683.303 176.575 682.714 155.898C682.144 135.855 676.447 117.568 662.132 101.56C656.814 95.6135 649.57 91.3162 642.514 87.0967Z" fill="#F1BA19"/>
<path d="M94.249 178.917H514.674" stroke="black" stroke-width="5"/>
<path d="M72.0091 177.119C71.0553 176.141 70.1019 175.162 69.1478 174.185C61.1347 165.972 53.1192 157.762 45.1147 149.541C44.7316 149.147 44.4448 148.66 43.6699 147.624C45.2552 147.624 46.2681 147.624 47.281 147.624C56.9103 147.624 66.5512 147.902 76.1638 147.502C80.7629 147.311 83.8386 148.872 86.7796 152.156C91.7441 157.699 97.1058 162.884 102.202 168.312C104.737 171.011 107.054 173.915 109.211 176.925C96.6387 177.121 84.3239 177.12 72.0091 177.119Z" fill="#69883D"/>
<path d="M71.8698 177.274C84.324 177.12 96.6388 177.122 109.222 177.122C109 177.951 108.65 178.916 107.998 179.589C99.8723 187.98 91.7199 196.345 83.5137 204.657C82.829 205.35 81.7089 206.007 80.7867 206.013C68.8913 206.093 56.9952 206.053 45.0992 206.031C44.9441 206.03 44.7892 205.862 44.4666 205.675C45.894 203.949 47.1974 202.155 48.7184 200.57C55.3084 193.703 61.9504 186.886 68.6056 180.082C69.5569 179.109 70.6844 178.309 71.8698 177.274Z" fill="#587535"/>
</svg>
