<svg width="1174" height="590" viewBox="0 0 1174 590" fill="none" xmlns="http://www.w3.org/2000/svg">
<path d="M266.113 28H214.613V106.5L518.113 416V563.5H435.113" stroke="black" stroke-width="5"/>
<path d="M606.113 32H554.613V110.5L858.113 420V567.5H775.113" stroke="black" stroke-width="5"/>
<path d="M413.611 294.779C413.607 301.078 413.687 306.907 413.568 312.732C413.493 316.371 412.296 319.607 407.951 319.48C403.674 319.355 402.622 316.218 402.64 312.485C402.671 305.992 402.725 299.497 402.617 293.005C402.551 288.981 403.224 285.092 407.973 285.002C412.735 284.911 413.616 288.818 413.607 292.808C413.606 293.308 413.609 293.807 413.611 294.779Z" fill="#587535"/>
<path d="M880.633 335.016C882.508 279.629 902.615 232.419 941.18 193.415C961.459 172.905 985.499 158.123 1014.11 152.19C1063.68 141.909 1108.08 165.78 1127.61 212.95C1142.57 249.057 1142.62 286.049 1132.52 323.158C1119.85 369.675 1095.1 408.331 1055.12 436.2C1033.93 450.967 1010.6 460.117 984.305 460.142C946.359 460.177 918.402 442.779 899.251 410.719C885.459 387.632 880.727 362.093 880.633 335.016ZM1091.57 347.39C1104.79 319.541 1110.75 290.402 1106.59 259.628C1103.44 236.378 1094.92 215.437 1076.93 199.661C1052.73 178.434 1024.82 175.81 995.594 186.582C962.446 198.797 939.361 222.781 923.193 253.469C904.269 289.385 897.469 327.212 909.756 366.793C918.104 393.683 934.686 413.695 962.444 422.406C984.604 429.362 1005.98 425.638 1026.33 415.581C1056.01 400.916 1076.49 377.186 1091.57 347.39Z" fill="#587535"/>
<path d="M855.613 342.483C857.8 280.726 881.253 228.087 926.234 184.598C949.888 161.729 977.926 145.247 1011.29 138.631C1069.11 127.168 1120.9 153.784 1143.69 206.379C1161.13 246.639 1161.19 287.885 1149.41 329.262C1134.63 381.129 1105.77 424.231 1059.13 455.304C1034.41 471.771 1007.2 481.972 976.534 482C932.275 482.04 899.667 462.641 877.329 426.894C861.242 401.151 855.723 372.675 855.613 342.483ZM1101.64 356.281C1117.07 325.229 1124.02 292.739 1119.16 258.426C1115.49 232.502 1105.55 209.152 1084.57 191.562C1056.35 167.893 1023.8 164.968 989.701 176.978C951.039 190.598 924.113 217.341 905.254 251.558C883.182 291.605 875.25 333.782 889.582 377.916C899.319 407.898 918.66 430.211 951.036 439.925C976.883 447.68 1001.82 443.528 1025.55 432.315C1060.17 415.963 1084.05 389.504 1101.64 356.281Z" fill="black"/>
<path d="M47.5188 299.984C46.3415 298.614 45.2338 297.176 43.9762 295.884C30.1691 281.703 16.3361 267.547 2.5226 253.372C1.84991 252.682 1.29349 251.878 0.125244 250.442C2.17343 250.255 3.54317 250.023 4.91319 250.021C23.7431 249.997 42.5742 249.915 61.4018 250.127C63.5694 250.151 66.2517 251.32 67.7907 252.862C79.3014 264.391 90.6505 276.084 101.899 287.871C105.308 291.443 108.241 295.47 110.954 299.625C89.5166 299.969 68.5177 299.976 47.5188 299.984Z" fill="#69883D"/>
<path d="M47.2228 300.128C68.5178 299.977 89.5167 299.97 110.971 299.961C110.594 301.366 109.999 303.001 108.894 304.143C95.1189 318.365 81.2994 332.545 67.3863 346.632C66.2298 347.803 64.317 348.88 62.7474 348.892C42.4236 349.042 22.0983 348.991 0 348.991C16.2777 332.092 31.6021 316.182 47.2228 300.128Z" fill="#587535"/>
<path d="M290.074 0C294.874 3.15709 300.608 3.746 304.122 9.0126C309.434 16.972 310.064 27.5321 303.994 35.0135C293.901 47.4516 275.327 45.1841 268.459 32.9813C262.286 22.0126 266.368 5.77942 278.651 1.79985C282.168 0.660522 286.018 0.551529 290.074 0ZM288.91 29.08C291.687 25.8117 291.823 22.1283 290.258 18.3922C288.649 14.5506 282.731 13.3514 281.088 16.847C279.653 19.8982 279.47 24.2098 280.379 27.512C281.399 31.2178 285.13 30.8428 288.91 29.08ZM298.062 29.9456C298.302 25.105 298.543 20.2644 298.783 15.4238C298.354 15.1904 297.925 14.957 297.495 14.7236C296.161 16.4592 292.147 12.7617 292.607 17.7997C292.887 20.8696 293.748 23.9299 294.714 26.8741C295.144 28.1812 296.479 29.1909 298.062 29.9456Z" fill="#69883D"/>
<path d="M393.712 553.61C397.245 546.515 402.176 541.564 410.108 541.07C420.728 540.409 429.167 544.383 433.397 554.556C436.579 562.209 434.786 569.377 429.55 575.845C424.133 582.537 417.479 585.353 408.948 583.525C398.124 581.207 391.88 573.094 392.682 562.198C392.887 559.423 393.234 556.658 393.712 553.61ZM412.674 565.439C412.372 558.115 408.228 554.443 403.553 557.526C399.931 559.915 399.972 563.982 401.13 567.36C401.806 569.334 404.443 571.529 406.527 571.935C410.31 572.671 411.958 569.677 412.674 565.439ZM417.767 567.417C416.773 567.47 415.779 567.523 414.504 567.59C415.907 572.305 419.129 573.007 422.483 571.872C425.686 570.787 426.54 568.229 424.363 565.14C424.025 564.659 424.019 563.613 424.311 563.074C426.087 559.804 425.103 557.435 421.739 556.549C418.344 555.656 415.709 556.859 414.845 561.153C417.33 560.765 419.366 560.448 421.402 560.13C421.443 560.489 421.484 560.848 421.525 561.206C420.442 562.203 419.359 563.2 418.585 563.913C419.804 565.722 420.685 567.027 421.565 568.333C420.5 568.191 419.434 568.048 417.767 567.417Z" fill="#69883D"/>
<path d="M638.681 14.8763C647.474 18.2984 651.19 25.0924 651.773 33.7088C652.375 42.6263 647.883 49.2277 640.544 53.5082C631.754 58.6352 619.064 56.0628 613.835 48.5998C605.513 36.7211 607.028 28.128 615.367 18.9941C621.493 12.2843 630.089 13.1729 638.681 14.8763ZM629.575 30.7879C626.155 26.3266 620.889 25.8427 619.576 30.2558C618.609 33.5052 619.376 37.563 620.421 40.9347C620.722 41.9039 626.073 42.7551 626.689 41.9057C628.512 39.3924 629.154 36.012 630.177 32.9435C630.307 32.5537 629.95 32.0018 629.575 30.7879ZM635.081 27.7361C633.959 29.0687 632.837 30.4013 631.715 31.7339C632.101 32.1649 632.488 32.596 632.874 33.027C634.392 32.2036 635.91 31.3801 637.941 30.2782C639.852 36.3263 632.47 37.1558 631.697 42.0662C635.542 42.5116 639.113 43.1909 643.96 41.0905C641.382 39.9096 640.083 39.3144 639.859 39.2119C640.612 35.6101 641.691 32.5662 641.576 29.5682C641.546 28.7849 637.801 28.1444 635.081 27.7361Z" fill="#F3BE1E"/>
<path d="M765.207 587.323C759.449 589.713 753.914 590.546 748.391 587.927C740.023 583.96 733.528 575.786 734.765 565.739C736.166 554.359 744.001 546.471 754.934 547.028C770.272 547.809 774.726 552.496 777.833 565.599C779.372 572.086 773.209 585.381 765.207 587.323ZM763.571 573.433C764.867 574.185 765.045 585.296 765.571 584.933C766.864 584.04 767.234 573.256 767.071 571.933C766.665 568.651 766.333 565.433 766.121 562.082C762.041 562.158 757.566 568.21 757.571 573.933C759.157 574.01 761.127 573.212 763.571 573.433ZM746.977 561.946C742.571 563.933 742.13 567.647 742.866 571.369C743.269 573.405 745.146 575.942 747.004 576.729C750.645 578.271 753.511 575.891 754.284 571.587C755.376 565.502 753.352 562.472 746.977 561.946Z" fill="#F3BE1E"/>
<path d="M749.993 310.15C749.96 312.116 750.474 313.978 749.772 315.015C748.611 316.729 746.575 319.123 745.073 319.011C743.213 318.871 740.085 316.553 739.996 315.031C739.496 306.439 739.484 297.789 739.97 289.197C740.061 287.599 743.405 284.783 744.853 285.013C746.762 285.316 749.569 287.956 749.737 289.796C750.337 296.375 749.985 303.042 749.993 310.15Z" fill="#F1BA19"/>
<path d="M1091.41 347.729C1076.49 377.186 1056.01 400.916 1026.33 415.581C1005.98 425.638 984.604 429.362 962.444 422.407C934.686 413.695 918.104 393.683 909.756 366.793C897.469 327.212 904.269 289.385 923.193 253.469C939.361 222.781 962.446 198.797 995.594 186.582C1024.82 175.81 1052.73 178.434 1076.93 199.661C1094.92 215.438 1103.44 236.379 1106.59 259.628C1110.75 290.402 1104.79 319.542 1091.41 347.729ZM947.695 253.633C931.846 278.017 924.021 304.451 927.644 333.672C929.747 350.643 935.751 366.107 948.562 377.847C968.08 395.732 990.555 397.148 1014.1 387.293C1062.28 367.127 1090.93 301.984 1073.74 252.419C1061.75 217.862 1029.89 202.441 995.468 214.755C975.281 221.977 960.261 235.78 947.695 253.633Z" fill="#FDFEFD"/>
<path d="M947.908 253.342C960.26 235.78 975.281 221.977 995.468 214.755C1029.89 202.441 1061.75 217.862 1073.74 252.419C1090.93 301.984 1062.28 367.127 1014.1 387.293C990.555 397.148 968.079 395.732 948.562 377.847C935.75 366.107 929.747 350.643 927.643 333.671C924.021 304.451 931.845 278.017 947.908 253.342ZM1009.1 243.485C1002.09 245.301 994.485 245.929 988.198 249.141C962.8 262.117 947.305 295.649 952.968 323.552C959.053 353.535 985.674 365.789 1012.08 350.761C1037.6 336.237 1052.23 301.144 1044.6 272.802C1039.82 255.058 1027.19 244.371 1009.1 243.485Z" fill="#69883D"/>
<path d="M282.645 23.7404C282.637 22.0068 282.49 20.6224 282.908 19.4369C283.146 18.7603 284.613 17.8285 284.986 18.0272C285.828 18.4753 286.897 19.5795 286.863 20.3725C286.783 22.2034 286.101 24.008 285.663 25.8233C284.689 25.2732 283.716 24.7231 282.645 23.7404Z" fill="#69883D"/>
<path d="M621.955 33.4024C623.131 32.409 624.213 31.8087 625.295 31.2085C625.715 33.0102 626.446 34.8169 626.417 36.6114C626.404 37.4368 624.902 38.2383 624.076 39.0507C623.325 37.9491 622.475 36.8985 621.868 35.7222C621.606 35.2137 621.847 34.4457 621.955 33.4024Z" fill="#F3BE1E"/>
<path d="M745.613 570.125C746.532 568.616 747.948 567.12 748.861 566C749.555 567.507 750.779 569.013 750.782 570.521C750.784 571.791 749.366 573.063 748.577 574.335C747.755 572.936 746.43 571.914 745.613 570.125Z" fill="#F3BE1E"/>
<path d="M1009.53 243.485C1027.19 244.371 1039.82 255.058 1044.6 272.802C1052.23 301.144 1037.6 336.237 1012.08 350.761C985.674 365.789 959.053 353.535 952.969 323.552C947.306 295.649 962.8 262.117 988.198 249.141C994.486 245.929 1002.09 245.301 1009.53 243.485ZM1002.84 321.005C1013.28 314.534 1018.1 305.041 1017.57 292.894C1017.28 286.389 1014.76 280.888 1008.68 277.71C1002.71 274.584 996.914 275.865 991.694 279.421C982.443 285.723 978.144 294.742 978.477 305.877C978.894 319.788 989.174 326.446 1002.84 321.005Z" fill="#FDFEFD"/>
<path d="M1002.49 321.168C989.174 326.446 978.894 319.788 978.477 305.877C978.144 294.742 982.443 285.723 991.694 279.421C996.914 275.865 1002.71 274.584 1008.68 277.71C1014.76 280.887 1017.28 286.389 1017.57 292.894C1018.1 305.041 1013.28 314.534 1002.49 321.168Z" fill="#F3BE1E"/>
<path d="M1088.11 147.5C1101.88 151.394 1114.83 157.135 1125.58 165.392C1137.83 174.809 1147.17 186.369 1154.54 199.012C1162.37 212.439 1167.36 226.796 1170.58 241.719C1173.54 255.417 1173.71 269.156 1173.59 282.965C1173.43 300.405 1170.2 317.512 1164.35 334.049C1159.49 347.796 1153.85 361.467 1146.82 374.438C1138.03 390.677 1126.76 405.67 1113.43 419.487C1087.71 446.152 1057.26 466.397 1018.97 476.634C1003.03 480.895 986.718 482.792 970.157 481.695C954.915 480.685 940.215 478.799 926.613 472C932.094 472.973 937.537 472.742 943.061 473.447C972.554 477.207 1000.5 472.395 1026.99 460.78C1075.07 439.7 1108.2 405.807 1131.21 363.67C1148.35 332.269 1157.19 299.034 1156.19 264.018C1155.23 230.074 1145.58 199.104 1121.34 171.995C1112.33 161.924 1100.06 154.646 1088.11 147.5Z" fill="#F1BA19"/>
<path d="M159.613 303H871.613" stroke="black" stroke-width="5"/>
<path d="M121.949 299.956C120.334 298.299 118.719 296.642 117.104 294.986C103.533 281.078 89.9586 267.174 76.4028 253.251C75.754 252.585 75.2683 251.76 73.9561 250.005C76.6407 250.005 78.3561 250.004 80.0715 250.004C96.3789 250.004 112.706 250.476 128.985 249.799C136.774 249.476 141.983 252.12 146.963 257.681C155.371 267.068 164.451 275.849 173.082 285.041C177.375 289.612 181.299 294.53 184.952 299.627C163.66 299.96 142.805 299.958 121.949 299.956Z" fill="#69883D"/>
<path d="M121.713 300.218C142.805 299.958 163.66 299.96 184.971 299.961C184.595 301.364 184.001 302.999 182.897 304.139C169.136 318.349 155.33 332.515 141.433 346.591C140.273 347.765 138.376 348.878 136.814 348.888C116.669 349.024 96.5227 348.956 76.3767 348.918C76.1138 348.917 75.8516 348.632 75.3052 348.316C77.7226 345.392 79.93 342.354 82.5058 339.67C93.6662 328.041 104.915 316.496 116.185 304.973C117.796 303.326 119.706 301.971 121.713 300.218Z" fill="#587535"/>
</svg>
