<svg width="179" height="148" viewBox="0 0 179 148" fill="none" xmlns="http://www.w3.org/2000/svg">
<circle cx="74" cy="74" r="74" fill="#67883B"/>
<circle cx="148" cy="77" r="30.5" fill="white" stroke="#67883B"/>
<path d="M137.764 90.6392C135.321 90.6297 133.219 90.0284 131.457 88.8352C129.705 87.642 128.356 85.9138 127.409 83.6506C126.472 81.3873 126.008 78.6648 126.017 75.483C126.017 72.3106 126.486 69.607 127.423 67.3722C128.37 65.1373 129.72 63.4375 131.472 62.2727C133.233 61.0985 135.33 60.5114 137.764 60.5114C140.198 60.5114 142.291 61.0985 144.043 62.2727C145.804 63.447 147.158 65.1515 148.105 67.3864C149.052 69.6117 149.521 72.3106 149.511 75.483C149.511 78.6742 149.038 81.4015 148.091 83.6648C147.153 85.928 145.809 87.6562 144.057 88.8494C142.305 90.0426 140.207 90.6392 137.764 90.6392ZM137.764 85.5398C139.431 85.5398 140.761 84.7017 141.756 83.0256C142.75 81.3494 143.242 78.8352 143.233 75.483C143.233 73.2765 143.006 71.4394 142.551 69.9716C142.106 68.5038 141.472 67.4006 140.648 66.6619C139.833 65.9233 138.872 65.554 137.764 65.554C136.107 65.554 134.781 66.3826 133.787 68.0398C132.793 69.697 132.291 72.178 132.281 75.483C132.281 77.7178 132.504 79.5833 132.949 81.0795C133.403 82.5663 134.043 83.6837 134.866 84.4318C135.69 85.1705 136.656 85.5398 137.764 85.5398ZM166.553 60.9091V90H160.403V66.7472H160.232L153.57 70.9233V65.4688L160.772 60.9091H166.553Z" fill="#67883B"/>
</svg>
