<svg width="1447" height="1080" viewBox="0 0 1447 1080" fill="none" xmlns="http://www.w3.org/2000/svg">
<path d="M641.492 716.484C651.376 711.789 660.781 706.903 670.415 702.519C685.218 695.784 701.096 692.353 717.061 690.79C731.424 689.383 746.038 690.216 760.53 690.553C776.999 690.936 792.79 694.991 808.277 700.427C829.468 707.865 848.59 718.736 865.859 733.188C885.6 749.709 900.574 769.731 911.225 792.962C918.227 808.231 922.868 824.308 924.506 841.131C925.279 849.08 926.003 857.033 926.774 865.252C803.486 865.252 680.754 865.252 558.022 865.252C557.199 815.225 579.536 753.992 641.492 716.484Z" fill="white"/>
<path d="M1120.01 641C1112.38 646.914 1104.54 652.183 1098 658.754C1085.89 670.935 1080.37 686.315 1077.87 703.226C1074.53 725.774 1082.87 744.724 1095.69 761.826C1106.56 776.332 1121.91 784.964 1140.2 786.892C1152.31 788.168 1164.54 788.373 1176.72 788.955C1178.28 789.029 1179.87 788.486 1181.95 788.146C1184.6 813.604 1187.25 839.073 1190.05 866C1182.39 866 1175.18 866 1167.97 866C1095.83 866 1023.7 866 951.566 866C941.154 866 938.855 863.967 938.011 853.738C935.457 822.78 924.774 794.666 907.879 768.852C903.336 761.91 897.792 755.611 892.569 749.13C889.571 745.41 889.728 743.032 893.28 740.251C895.993 738.127 898.605 735.84 901.048 733.411C914.99 719.553 928.807 705.569 942.783 691.746C962.524 672.22 982.363 652.794 1002.17 633.332C1020.78 615.038 1039.38 596.727 1058.05 578.49C1060.99 575.622 1064.28 573.111 1067.92 569.996C1072.88 576.213 1077.96 582.518 1082.97 588.87C1092.38 600.78 1101.74 612.734 1111.16 624.635C1114.2 628.484 1117.57 632.096 1120.39 636.102C1121.15 637.178 1120.42 639.299 1120.01 641Z" fill="#FBAE17"/>
<path d="M708.853 686.958C696.779 690.382 684.872 693.067 673.566 697.338C657.868 703.269 643.439 711.833 630.039 722.008C625.877 725.169 621.831 728.483 617.886 731.604C558.474 673.212 499.146 614.902 439.484 556.264C460.043 539.675 480.27 523.354 500.714 506.858C510.075 522.683 522.414 534.865 538.842 542.267C552.057 548.221 565.762 551.083 580.642 549.212C601.363 546.605 618.805 538.437 632.635 522.822C641.17 513.186 646.025 501.538 647.779 489.066C649.449 477.195 649.391 465.077 649.958 453.061C650.101 450.035 648.585 446.206 649.956 444.195C651.038 442.607 655.382 443.256 658.274 442.884C668.314 441.596 678.352 440.299 688.391 438.999C698.105 437.74 707.813 436.425 717.535 435.229C723.837 434.453 730.16 433.845 736.775 433.129C737.187 438.753 737.942 444.309 737.948 449.866C738.026 524.008 737.989 598.15 738.014 672.293C738.017 681.831 736.039 683.266 726.604 684.087C720.794 684.592 715.058 685.95 708.853 686.958Z" fill="#FBAE17"/>
<path d="M565.061 808.129C561.33 824.503 557.468 840.443 554.095 856.487C552.812 862.589 550.903 864.99 544.764 864.991C467.281 865.004 389.799 864.973 312.317 865.064C307.517 865.069 305.561 863.256 305.991 858.563C306.998 847.566 307.989 836.567 308.924 825.563C309.665 816.848 310.271 808.12 311.023 799.406C311.276 796.467 311.795 793.552 312.277 790.002C318.6 790.338 324.816 791.052 331.015 790.932C355.072 790.463 376.648 783.587 392.721 764.641C404.126 751.198 411.455 735.828 413.09 717.866C415.156 695.169 408.086 675.672 393.242 658.924C387.405 652.338 380.453 646.739 373.441 640.156C387.937 615.576 406.589 592.902 427.635 571.756C428.535 572.402 429.254 572.785 429.807 573.334C485.808 628.977 541.804 684.625 597.773 740.3C602.325 744.828 602.311 747.579 596.917 753.477C582.431 769.318 572.457 787.739 565.061 808.129Z" fill="#5D7B36"/>
<path d="M866.805 538.269C881.209 546.362 896.193 551.216 912.511 549.921C930.703 548.477 947.114 542.413 960.786 529.776C969.993 521.266 977.278 511.411 982.615 499.772C994.634 509.183 1006.26 518.318 1017.92 527.408C1029.59 536.511 1041.31 545.569 1053.86 555.312C1051.65 557.633 1049.75 559.772 1047.71 561.77C1034.27 574.91 1020.77 587.976 1007.37 601.151C983.513 624.604 959.731 648.132 935.891 671.601C917.394 689.81 898.806 707.926 880.386 726.213C877.36 729.217 875.344 729.847 871.251 727.283C855.49 717.408 839.643 707.581 823.228 698.869C807.861 690.713 790.913 686.959 773.635 685.007C769.869 684.582 766.084 684.332 762.309 683.988C756.803 683.485 755.098 681.64 755.002 676.103C754.99 675.437 755 674.77 755 674.103C755 597.126 755 520.149 755 443.171C755 442.838 754.999 442.505 755 442.172C755.022 434.161 756.819 432.977 764.869 434.022C777.108 435.61 789.415 436.672 801.687 438.01C811.986 439.133 822.278 440.33 832.791 441.519C823.004 481.023 830.952 514.384 866.805 538.269Z" fill="#5D7B36"/>
<path d="M499.996 459.923C501.18 447.317 505.646 436.402 512.877 426.678C524.5 411.05 539.759 401.172 559.172 397.976C577.692 394.928 595.163 397.766 610.893 408.075C628.607 419.684 639.578 435.952 643.062 457.167C646.579 478.587 641.625 498.016 628.432 514.754C617.851 528.18 603.599 536.548 586.442 540.154C568.765 543.869 552.229 541.271 536.693 532.858C517.425 522.423 505.462 506.102 501.075 484.561C499.878 478.683 499.524 472.615 499.075 466.611C498.922 464.568 499.662 462.458 499.996 459.923ZM596.259 413.116C589.349 411.419 582.509 408.655 575.518 408.202C537.103 405.714 507.128 438.602 510.721 475.422C514.322 512.322 551.49 538.415 587.257 528.498C612.665 521.454 630.248 500.592 632.844 474.41C635.327 449.377 621.124 425.234 596.259 413.116Z" fill="#FFFEFC"/>
<path d="M368.633 775.767C359.379 779.803 350.322 782.539 340.413 783.157C316.435 784.653 296.398 776.695 280.619 758.937C269.115 745.991 263.251 730.519 262.913 712.907C262.492 690.955 270.005 672.373 286.035 657.633C298.632 646.05 313.604 639.477 331.111 638.892C343.39 638.481 355.237 640.068 366.296 645.202C376.947 650.146 385.66 657.844 393.014 667.033C400.201 676.012 404.821 686.344 406.637 697.496C410.273 719.829 405.607 740.232 390.687 757.934C384.511 765.26 377.057 770.74 368.633 775.767ZM275.946 695.661C264.816 740.095 302.924 779.919 348.045 771.007C377.465 765.197 398.632 736.961 396.341 706.586C394.04 676.086 369.102 651.357 339.207 649.932C309.501 648.517 286.026 665.231 275.946 695.661Z" fill="#FDFDFD"/>
<path d="M836.971 454.94C843.525 425.616 862.213 407.575 889.899 400.409C917.191 393.346 941.706 401.332 961.253 421.934C971.318 432.542 976.931 445.535 979.133 460.23C982.139 480.285 977.431 498.428 965.709 514.331C954.635 529.354 939.484 538.924 920.642 542.044C905.109 544.616 890.026 543.25 875.913 536.301C858.245 527.601 845.748 513.842 839.054 495.17C834.556 482.625 833.911 469.713 836.163 456.628C836.24 456.178 836.679 455.79 836.971 454.94ZM934.536 415.922C921.689 409.455 908.2 408.05 894.226 410.987C862.445 417.667 841.55 449.075 847.119 481.69C852.458 512.953 883.161 535.787 914.48 531.786C941.26 528.364 963.01 508.126 967.808 482.166C972.756 455.398 959.893 429.356 934.536 415.922Z" fill="#FDFDFD"/>
<path d="M1212.77 758.73C1201.07 771.843 1186.56 779.779 1169.76 781.744C1147.19 784.382 1126.47 779.156 1109.33 762.925C1097.08 751.324 1089.21 737.201 1087.27 720.774C1084.6 698.215 1089.85 677.498 1106.06 660.339C1117.66 648.064 1131.79 640.223 1148.21 638.272C1170.76 635.59 1191.48 640.839 1208.65 657.044C1220.93 668.638 1228.8 682.774 1230.7 699.189C1232.96 718.654 1230.04 737.563 1216.98 753.526C1215.65 755.162 1214.34 756.823 1212.77 758.73ZM1132.42 654.848C1105.86 668.584 1092.49 696.782 1099.45 724.527C1106.92 754.325 1134.13 771.905 1160.75 771.301C1196.75 770.485 1225.87 736.206 1219.67 700.783C1212.51 659.813 1171.14 637.707 1132.42 654.848Z" fill="#FFFEFC"/>
<path d="M596.61 413.265C621.124 425.235 635.327 449.378 632.844 474.411C630.248 500.593 612.665 521.455 587.257 528.499C551.49 538.416 514.322 512.323 510.721 475.423C507.128 438.603 537.103 405.715 575.518 408.203C582.509 408.656 589.349 411.42 596.61 413.265ZM568.008 439.564C568.008 438.234 568.008 436.904 568.008 435.574C568.006 428.87 563.859 425.951 557.39 428.57C555.069 429.51 553.211 431.663 551.244 433.38C550.294 434.21 549.765 435.61 548.733 436.245C539.262 442.076 537.97 446.332 543.015 455.661C537.979 465.056 539.271 469.378 548.745 475.018C549.41 475.414 550.103 476.005 550.438 476.678C554.124 484.083 560.647 484.055 568.008 483.499C568.008 469.038 568.008 454.791 568.008 439.564ZM572.827 479.302C572.945 480.717 573.063 482.131 573.174 483.464C583.213 484.186 584.077 483.805 590.537 476.218C590.946 475.737 591.493 475.338 592.043 475.016C601.384 469.553 602.666 465.174 598.733 457.514C599.275 451.853 601.124 447.341 599.713 444.385C596.084 436.78 589.318 431.371 581.651 428.283C575.9 425.966 572.829 429.148 572.827 435.398C572.825 449.713 572.827 464.027 572.827 479.302ZM578.211 487.399C571.294 487.399 564.377 487.399 557.389 487.399C556.854 492.183 557.419 496.323 562.102 496.99C567.473 497.755 573.06 497.521 578.503 497.083C582.23 496.783 583.416 493.637 583.604 490.18C583.805 486.467 581.06 487.603 578.211 487.399ZM562.065 502.417C561.416 505.505 562.367 507.184 565.826 507.025C568.791 506.889 571.773 506.894 574.739 507.023C578.279 507.178 579.512 505.649 578.659 501.932C573.358 501.932 568.109 501.932 562.065 502.417ZM599.928 477.871C601.578 478.529 603.228 479.187 604.879 479.845C605.161 479.118 605.888 478.008 605.648 477.73C604.516 476.413 603.119 475.324 601.817 474.154C601.076 475.182 600.336 476.209 599.928 477.871ZM604.888 457.782C606.555 457.162 608.222 456.541 609.889 455.92C609.463 455.104 609.133 453.672 608.593 453.587C607.074 453.351 605.469 453.67 603.898 453.769C603.983 455.003 604.068 456.236 604.888 457.782ZM599.817 436.065C602.523 438.479 604.044 436.198 605.273 434.382C605.676 433.786 604.712 432.263 604.373 431.164C602.812 432.107 601.22 433.003 599.719 434.033C599.444 434.222 599.542 434.954 599.817 436.065ZM537.229 457.195C538.587 454.298 536.697 453.428 534.521 453.621C533.274 453.731 532.141 455.14 530.956 455.965C532.217 456.699 533.43 457.542 534.761 458.112C535.259 458.325 536.03 457.904 537.229 457.195ZM537.306 436.461C538.545 436.234 539.785 436.008 541.024 435.781C540.369 434.427 539.983 432.785 538.958 431.828C538.351 431.262 536.735 431.778 535.572 431.807C535.952 433.186 536.331 434.564 537.306 436.461ZM535.958 479.858C537.149 479.628 538.849 479.794 539.409 479.073C540.223 478.027 540.214 476.341 540.556 474.928C539.155 475.234 537.5 475.19 536.441 475.963C535.678 476.519 535.708 478.164 535.958 479.858Z" fill="#F9AE1A"/>
<path d="M276.026 695.26C286.026 665.231 309.501 648.517 339.207 649.933C369.102 651.357 394.04 676.086 396.341 706.587C398.632 736.962 377.464 765.197 348.045 771.008C302.924 779.919 264.816 740.095 276.026 695.26ZM347.107 724.372C351.717 724.97 356.311 725.826 360.939 726.098C366.156 726.404 368.683 724.378 368.512 720.471C368.315 715.969 365.441 714.849 361.373 714.77C353.107 714.611 345.168 712.952 338.34 707.92C330.934 702.461 323.126 702.298 314.696 705.23C310.461 706.704 308.359 708.73 309.069 713.456C309.509 716.385 309.151 719.435 309.151 722.431C309.151 731.534 309.173 731.466 317.545 734.222C320.371 735.153 323.02 736.607 325.804 737.684C330.133 739.36 334.405 741.33 338.883 742.444C348.648 744.871 359.809 740.179 364.78 731.941C364.068 731.901 363.408 731.92 362.767 731.819C355.401 730.666 348.015 729.613 340.699 728.2C339.579 727.984 338.784 726.082 337.838 724.959C339.188 724.413 340.507 723.537 341.894 723.413C343.32 723.285 344.811 723.892 347.107 724.372ZM327.941 675.645C327.553 676.736 327.087 677.806 326.79 678.921C324.703 686.741 326.754 693.569 332.645 698.845C338.894 704.443 346.333 705.534 354.017 702.037C361.299 698.723 365.178 692.787 365.544 684.765C365.942 676.031 360.219 667.87 352.051 665.244C342.844 662.283 334.042 665.865 327.941 675.645ZM295.477 737.572C298.49 736.883 303.46 739.592 303.82 734.126C304.358 725.943 303.96 717.698 303.96 709.153C299.232 709.153 295.112 709.257 291 709.12C287.664 709.01 286.711 710.618 286.792 713.691C286.935 719.157 286.831 724.628 286.831 730.097C286.833 737.553 286.833 737.553 295.477 737.572ZM369.502 709.939C371.252 713.745 373.002 717.551 374.844 721.555C376.299 719.729 378.272 717.724 379.655 715.372C380.781 713.458 381.201 711.129 381.934 708.984C379.304 708.516 376.684 707.779 374.042 707.694C372.728 707.652 371.376 708.806 369.502 709.939Z" fill="#5F7C38"/>
<path d="M934.882 416.062C959.893 429.356 972.756 455.399 967.808 482.167C963.01 508.127 941.26 528.364 914.48 531.786C883.161 535.788 852.458 512.954 847.119 481.69C841.55 449.075 862.445 417.668 894.226 410.988C908.2 408.05 921.689 409.456 934.882 416.062ZM929.091 484.125C930.702 488.286 933.53 488.433 936.492 485.898C939.77 483.091 942.852 480.003 945.69 476.75C948.339 473.714 948.21 470.291 945.484 467.259C943.149 464.661 940.605 462.252 938.158 459.754C933.292 454.789 933.877 452.693 940.619 450.923C945.177 449.725 947.465 446.245 946.467 442.054C945.441 437.743 942.489 435.42 938.302 435.264C934.017 435.105 931.837 437.852 930.91 441.936C929.587 447.766 927.161 448.468 922.83 444.41C920.162 441.909 917.678 439.209 914.972 436.752C911.59 433.68 908.074 433.767 904.756 436.901C902.215 439.302 899.813 441.85 897.302 444.283C892.85 448.598 890.454 447.906 888.925 441.907C887.526 436.425 883.735 434.079 879 435.788C875.114 437.19 872.957 440.028 873.077 444.103C873.197 448.153 875.832 450.196 879.656 451.112C885.748 452.572 886.411 454.991 882.07 459.506C879.877 461.787 877.549 463.938 875.383 466.242C871.392 470.487 871.393 473.783 875.364 477.953C877.545 480.244 879.878 482.39 882.055 484.685C886.34 489.203 885.646 491.486 879.596 493.016C874.304 494.354 871.887 498.43 873.697 503.056C875.198 506.892 878.122 508.993 882.175 508.754C886.203 508.516 888.148 505.773 889.002 501.951C890.231 496.451 892.718 495.683 896.838 499.477C899.409 501.845 901.753 504.455 904.287 506.864C908.253 510.634 911.536 510.665 915.624 506.93C917.835 504.91 919.903 502.732 921.998 500.588C927.121 495.345 926.397 493.272 919.438 490.751C917.259 489.962 914.589 487.655 914.176 485.628C913.711 483.349 914.837 479.92 916.509 478.186C921.255 473.266 927.009 475.829 929.091 484.125Z" fill="#5F7C38"/>
<path d="M1132.77 654.688C1171.14 637.707 1212.51 659.812 1219.67 700.782C1225.87 736.205 1196.75 770.484 1160.75 771.3C1134.13 771.904 1106.92 754.324 1099.45 724.527C1092.49 696.781 1105.86 668.584 1132.77 654.688ZM1128.58 711.842C1129.54 713.79 1130.28 715.896 1131.52 717.644C1132.96 719.666 1134.84 721.374 1136.53 723.218C1136.05 723.696 1135.56 724.174 1135.08 724.653C1132.63 722.224 1130.09 719.87 1127.75 717.345C1125.23 714.639 1125.36 711.799 1127.44 708.744C1128.38 707.359 1129.06 705.56 1129.18 703.9C1129.44 700.253 1129.18 696.573 1129.28 692.911C1129.37 689.658 1128.97 686.42 1125.03 686.304C1120.88 686.182 1120.1 689.385 1120.13 692.914C1120.19 700.577 1120.32 708.247 1120.08 715.902C1119.93 720.431 1121.54 723.845 1124.58 727.059C1127.7 730.363 1130.38 734.081 1133.51 737.928C1136.86 737.04 1140.86 735.951 1144.88 734.915C1151.55 733.196 1153.24 727.115 1148.35 721.936C1144.81 718.185 1141.06 714.625 1137.37 711.014C1134.52 708.226 1131.66 707.786 1128.58 711.842ZM1169.11 723.927C1167.94 727.611 1166.87 731.948 1171.03 733.816C1175.92 736.006 1181.44 736.762 1185.52 737.834C1189.14 733.491 1192.3 729.952 1195.15 726.178C1196.7 724.132 1198.69 721.728 1198.79 719.411C1199.21 709.952 1199.21 700.453 1198.78 690.996C1198.71 689.326 1195.83 687.784 1194.25 686.183C1192.78 687.873 1190.28 689.426 1190.03 691.281C1189.42 695.854 1189.78 700.566 1189.87 705.22C1189.89 706.128 1190.29 707.138 1190.8 707.91C1194.82 713.962 1190.7 722.361 1181.96 723.759C1184.42 721.158 1186.26 719.155 1188.16 717.215C1190.09 715.25 1192.29 713.151 1189.71 710.46C1187.16 707.801 1184.3 708.495 1181.84 710.935C1177.71 715.032 1173.62 719.172 1169.11 723.927ZM1139.92 706.537C1148.7 715.619 1160.23 717.521 1170.2 711.533C1179.68 705.841 1184.09 694.39 1180.56 683.876C1177.34 674.3 1170.44 668.653 1160.47 667.578C1150.69 666.525 1142.74 670.454 1137.71 678.938C1132.25 688.157 1133.08 697.339 1139.92 706.537ZM1166.76 735.842C1166 737.494 1165.24 739.146 1164.26 741.267C1172.75 743.505 1180.34 745.509 1188.32 747.613C1188.91 745.284 1189.32 743.647 1189.84 741.602C1181.99 739.569 1174.8 737.705 1166.76 735.842ZM1150.93 742.257C1153.6 742.022 1155.21 740.694 1153.78 738.097C1153.2 737.028 1150.96 736.014 1149.76 736.279C1143.95 737.56 1138.18 739.136 1132.52 740.978C1131.41 741.339 1130.18 743.318 1130.15 744.582C1130.07 747.416 1132.14 747.472 1134.34 746.858C1139.61 745.394 1144.88 743.977 1150.93 742.257Z" fill="#F9AE1A"/>
<path d="M568.007 440.053C568.007 454.79 568.007 469.037 568.007 483.497C560.646 484.054 554.123 484.082 550.437 476.677C550.102 476.004 549.41 475.413 548.744 475.017C539.271 469.377 537.979 465.055 543.014 455.659C537.969 446.331 539.262 442.075 548.733 436.244C549.764 435.608 550.293 434.209 551.244 433.379C553.21 431.662 555.068 429.509 557.39 428.569C563.858 425.95 568.005 428.869 568.007 435.573C568.008 436.903 568.007 438.233 568.007 440.053ZM562.713 445.627C562.828 445.142 563.129 444.614 563.026 444.182C562.682 442.735 562.195 441.323 561.762 439.897C560.764 440.871 559.778 441.858 558.764 442.815C557.604 443.911 556.306 444.884 555.274 446.086C554.045 447.517 552.876 449.055 552.032 450.724C551.802 451.178 552.659 452.527 553.341 452.983C553.838 453.316 555.118 453.142 555.612 452.703C557.907 450.659 560.05 448.443 562.713 445.627ZM553.282 467.264C555.345 467.489 558.774 468.55 559.236 467.795C561.274 464.468 557.329 464.615 555.835 463.291C554.97 462.525 554.149 461.591 553.128 461.157C552.348 460.825 550.977 460.812 550.434 461.294C549.897 461.769 549.676 463.246 550.022 463.924C550.593 465.045 551.732 465.876 553.282 467.264Z" fill="#060401"/>
<path d="M572.826 478.821C572.826 464.027 572.825 449.712 572.827 435.398C572.828 429.147 575.9 425.965 581.651 428.282C589.317 431.37 596.084 436.78 599.713 444.385C601.124 447.341 599.275 451.852 598.733 457.513C602.666 465.174 601.384 469.552 592.043 475.016C591.493 475.337 590.946 475.736 590.536 476.218C584.077 483.805 583.213 484.185 573.173 483.463C573.062 482.131 572.944 480.716 572.826 478.821ZM580.17 448.324C581.64 449.581 583.005 451.001 584.619 452.033C585.553 452.629 587.01 452.998 587.99 452.693C588.527 452.526 589.102 450.432 588.711 449.755C587.845 448.258 586.39 447.097 585.157 445.818C584.162 444.786 583.15 443.771 582.127 442.767C581.116 441.775 580.081 440.807 579.057 439.829C578.601 441.358 577.774 442.896 577.811 444.413C577.839 445.575 578.957 446.711 580.17 448.324ZM584.772 463.411C583.516 464.693 582.261 465.975 581.005 467.257C581.891 467.83 583.2 469.101 583.594 468.863C586.214 467.277 588.707 465.45 591.054 463.478C591.418 463.173 591.121 461.422 590.585 460.896C590.089 460.411 588.706 460.349 587.992 460.687C586.988 461.163 586.239 462.181 584.772 463.411Z" fill="#060401"/>
<path d="M578.664 487.398C581.06 487.603 583.805 486.466 583.604 490.179C583.416 493.636 582.23 496.782 578.502 497.082C573.06 497.52 567.473 497.754 562.102 496.989C557.418 496.322 556.853 492.182 557.388 487.398C564.377 487.398 571.294 487.398 578.664 487.398Z" fill="#110C02"/>
<path d="M562.462 502.174C568.108 501.932 573.357 501.932 578.658 501.932C579.512 505.649 578.279 507.178 574.738 507.023C571.772 506.894 568.791 506.889 565.825 507.025C562.367 507.184 561.416 505.505 562.462 502.174Z" fill="black"/>
<path d="M599.761 477.553C600.336 476.209 601.076 475.181 601.816 474.154C603.119 475.324 604.516 476.413 605.648 477.729C605.887 478.008 605.16 479.118 604.879 479.845C603.228 479.187 601.578 478.529 599.761 477.553Z" fill="#110C02"/>
<path d="M604.521 457.626C604.068 456.236 603.983 455.003 603.898 453.769C605.469 453.669 607.074 453.351 608.593 453.587C609.133 453.671 609.463 455.103 609.889 455.92C608.222 456.541 606.555 457.162 604.521 457.626Z" fill="#110C02"/>
<path d="M599.642 435.75C599.542 434.954 599.444 434.222 599.719 434.033C601.22 433.003 602.812 432.106 604.373 431.164C604.712 432.263 605.676 433.786 605.273 434.382C604.044 436.198 602.523 438.479 599.642 435.75Z" fill="#110C02"/>
<path d="M536.953 457.482C536.03 457.902 535.259 458.324 534.76 458.11C533.43 457.54 532.216 456.697 530.956 455.963C532.141 455.139 533.273 453.729 534.521 453.619C536.697 453.427 538.587 454.296 536.953 457.482Z" fill="#090601"/>
<path d="M537.008 436.2C536.331 434.562 535.952 433.184 535.572 431.806C536.735 431.776 538.351 431.26 538.958 431.826C539.983 432.784 540.369 434.426 541.024 435.78C539.785 436.006 538.545 436.233 537.008 436.2Z" fill="#110C02"/>
<path d="M535.671 479.59C535.708 478.163 535.677 476.519 536.44 475.962C537.5 475.19 539.155 475.234 540.555 474.928C540.214 476.341 540.222 478.027 539.409 479.073C538.849 479.793 537.149 479.628 535.671 479.59Z" fill="#090601"/>
<path d="M346.691 724.275C344.811 723.892 343.32 723.285 341.894 723.413C340.507 723.537 339.188 724.413 337.838 724.959C338.784 726.082 339.579 727.984 340.699 728.2C348.015 729.613 355.401 730.666 362.767 731.819C363.408 731.92 364.068 731.901 364.78 731.941C359.809 740.179 348.648 744.871 338.883 742.444C334.405 741.33 330.133 739.36 325.804 737.684C323.02 736.607 320.371 735.153 317.545 734.222C309.173 731.466 309.151 731.534 309.151 722.431C309.151 719.435 309.509 716.385 309.069 713.456C308.359 708.73 310.461 706.704 314.696 705.23C323.126 702.298 330.934 702.461 338.34 707.92C345.168 712.952 353.107 714.611 361.373 714.77C365.441 714.849 368.315 715.969 368.512 720.471C368.683 724.378 366.156 726.404 360.939 726.098C356.311 725.826 351.717 724.97 346.691 724.275Z" fill="#FBFCFB"/>
<path d="M328.084 675.292C334.042 665.865 342.844 662.283 352.051 665.243C360.219 667.87 365.942 676.031 365.544 684.765C365.178 692.787 361.299 698.722 354.017 702.036C346.333 705.533 338.894 704.443 332.645 698.845C326.754 693.568 324.703 686.741 326.789 678.92C327.087 677.805 327.553 676.735 328.084 675.292ZM349.933 688.504C351.456 686.335 353.194 684.277 354.403 681.944C354.939 680.91 354.405 679.321 354.357 677.983C352.977 678.364 351.199 678.337 350.299 679.212C348.475 680.987 347.127 683.251 345.501 685.42C343.996 684.096 342.969 682.484 341.744 682.315C340.52 682.147 339.097 683.422 337.761 684.064C340.134 686.713 342.363 689.53 345.038 691.828C345.433 692.168 347.935 690.056 349.933 688.504Z" fill="#FBFCFB"/>
<path d="M295.023 737.572C286.833 737.553 286.833 737.553 286.831 730.098C286.831 724.629 286.935 719.157 286.792 713.691C286.711 710.619 287.663 709.01 291 709.121C295.112 709.257 299.232 709.153 303.96 709.153C303.96 717.699 304.358 725.943 303.82 734.126C303.46 739.592 298.49 736.884 295.023 737.572Z" fill="#FBFCFB"/>
<path d="M369.771 709.68C371.376 708.807 372.728 707.652 374.042 707.694C376.683 707.779 379.304 708.517 381.933 708.985C381.201 711.129 380.781 713.458 379.655 715.372C378.272 717.724 376.299 719.729 374.844 721.555C373.002 717.551 371.252 713.745 369.771 709.68Z" fill="#FBFCFB"/>
<path d="M929.04 483.752C927.009 475.829 921.254 473.265 916.509 478.185C914.836 479.919 913.711 483.348 914.176 485.628C914.589 487.655 917.259 489.961 919.438 490.751C926.396 493.272 927.121 495.345 921.998 500.588C919.903 502.732 917.835 504.91 915.624 506.93C911.536 510.664 908.253 510.634 904.287 506.863C901.753 504.455 899.408 501.844 896.838 499.477C892.718 495.683 890.231 496.45 889.002 501.951C888.148 505.773 886.203 508.516 882.174 508.753C878.122 508.992 875.198 506.892 873.697 503.055C871.887 498.429 874.304 494.354 879.596 493.016C885.646 491.486 886.34 489.202 882.055 484.685C879.878 482.39 877.545 480.243 875.364 477.952C871.393 473.782 871.392 470.486 875.382 466.242C877.549 463.938 879.877 461.786 882.07 459.506C886.411 454.99 885.747 452.572 879.655 451.112C875.832 450.196 873.197 448.152 873.077 444.102C872.957 440.028 875.113 437.19 879 435.787C883.734 434.079 887.526 436.424 888.924 441.907C890.454 447.905 892.849 448.597 897.302 444.283C899.813 441.849 902.214 439.302 904.756 436.901C908.074 433.766 911.59 433.68 914.972 436.751C917.678 439.208 920.161 441.909 922.83 444.409C927.161 448.468 929.586 447.765 930.91 441.936C931.837 437.852 934.017 435.104 938.302 435.264C942.489 435.419 945.441 437.743 946.467 442.053C947.465 446.245 945.177 449.725 940.619 450.922C933.877 452.693 933.292 454.788 938.158 459.754C940.604 462.251 943.149 464.661 945.484 467.258C948.21 470.29 948.338 473.714 945.69 476.749C942.852 480.002 939.769 483.09 936.491 485.897C933.53 488.433 930.702 488.286 929.04 483.752Z" fill="#FDFDFD"/>
<path d="M1128.74 711.506C1131.66 707.786 1134.52 708.226 1137.37 711.015C1141.06 714.625 1144.81 718.185 1148.35 721.936C1153.24 727.115 1151.55 733.196 1144.88 734.915C1140.86 735.952 1136.86 737.04 1133.51 737.928C1130.38 734.081 1127.7 730.363 1124.58 727.06C1121.54 723.845 1119.93 720.431 1120.08 715.903C1120.32 708.247 1120.19 700.577 1120.13 692.914C1120.1 689.386 1120.88 686.182 1125.03 686.304C1128.97 686.42 1129.37 689.659 1129.28 692.911C1129.18 696.573 1129.44 700.253 1129.18 703.9C1129.06 705.56 1128.38 707.359 1127.43 708.744C1125.36 711.799 1125.23 714.639 1127.75 717.345C1130.09 719.87 1132.63 722.224 1135.08 724.653C1135.56 724.175 1136.05 723.697 1136.53 723.218C1134.84 721.374 1132.96 719.666 1131.52 717.644C1130.28 715.896 1129.54 713.79 1128.74 711.506Z" fill="#090601"/>
<path d="M1169.31 723.611C1173.62 719.172 1177.71 715.032 1181.84 710.936C1184.3 708.495 1187.16 707.802 1189.71 710.46C1192.29 713.152 1190.09 715.25 1188.16 717.215C1186.26 719.156 1184.42 721.158 1181.96 723.759C1190.7 722.362 1194.82 713.963 1190.8 707.911C1190.29 707.139 1189.89 706.129 1189.87 705.221C1189.78 700.567 1189.42 695.854 1190.03 691.282C1190.28 689.427 1192.78 687.874 1194.25 686.184C1195.83 687.785 1198.71 689.327 1198.78 690.997C1199.21 700.454 1199.21 709.952 1198.79 719.411C1198.69 721.729 1196.7 724.132 1195.15 726.179C1192.3 729.953 1189.14 733.492 1185.52 737.835C1181.44 736.763 1175.92 736.007 1171.03 733.817C1166.87 731.949 1167.94 727.612 1169.31 723.611Z" fill="#070501"/>
<path d="M1139.68 706.262C1133.08 697.339 1132.25 688.156 1137.71 678.937C1142.74 670.453 1150.69 666.524 1160.47 667.578C1170.44 668.653 1177.34 674.299 1180.56 683.876C1184.09 694.389 1179.68 705.841 1170.2 711.533C1160.23 717.52 1148.7 715.618 1139.68 706.262ZM1173.98 679.644C1166.58 671.065 1156.47 669.007 1147.75 674.309C1139.63 679.251 1136.18 689.418 1139.62 698.217C1143.84 708.982 1155.95 713.867 1166.34 708.993C1177.2 703.901 1180.62 691.733 1173.98 679.644Z" fill="#110C02"/>
<path d="M1167.18 735.842C1174.8 737.705 1181.99 739.569 1189.84 741.603C1189.32 743.647 1188.91 745.284 1188.32 747.613C1180.34 745.509 1172.75 743.505 1164.26 741.267C1165.24 739.146 1166 737.494 1167.18 735.842Z" fill="#090601"/>
<path d="M1150.55 742.4C1144.88 743.978 1139.61 745.394 1134.34 746.858C1132.14 747.472 1130.07 747.416 1130.15 744.583C1130.18 743.318 1131.41 741.339 1132.52 740.978C1138.18 739.136 1143.95 737.56 1149.76 736.279C1150.96 736.014 1153.2 737.028 1153.78 738.097C1155.21 740.694 1153.6 742.022 1150.55 742.4Z" fill="#090601"/>
<path d="M562.48 445.959C560.05 448.445 557.907 450.66 555.612 452.704C555.118 453.143 553.838 453.317 553.341 452.985C552.66 452.529 551.802 451.18 552.032 450.725C552.877 449.057 554.045 447.518 555.274 446.088C556.307 444.885 557.604 443.912 558.764 442.817C559.778 441.859 560.764 440.872 561.762 439.898C562.195 441.324 562.683 442.736 563.026 444.183C563.129 444.615 562.829 445.144 562.48 445.959Z" fill="#F9AE1A"/>
<path d="M552.957 467.046C551.732 465.876 550.594 465.045 550.022 463.924C549.676 463.246 549.898 461.769 550.434 461.293C550.977 460.812 552.348 460.824 553.129 461.157C554.15 461.591 554.97 462.525 555.835 463.291C557.329 464.615 561.275 464.468 559.237 467.795C558.774 468.55 555.346 467.489 552.957 467.046Z" fill="#E39E17"/>
<path d="M579.881 448.091C578.957 446.71 577.839 445.575 577.811 444.412C577.774 442.895 578.601 441.357 579.057 439.828C580.081 440.807 581.116 441.774 582.128 442.767C583.151 443.77 584.162 444.786 585.157 445.817C586.391 447.097 587.846 448.257 588.711 449.755C589.102 450.431 588.527 452.526 587.991 452.692C587.01 452.997 585.553 452.629 584.62 452.033C583.006 451.001 581.64 449.58 579.881 448.091Z" fill="#E39E17"/>
<path d="M585.077 463.189C586.239 462.181 586.988 461.163 587.992 460.687C588.707 460.349 590.089 460.411 590.585 460.896C591.121 461.422 591.418 463.173 591.054 463.478C588.707 465.45 586.214 467.277 583.594 468.863C583.2 469.101 581.891 467.83 581.005 467.257C582.261 465.975 583.516 464.693 585.077 463.189Z" fill="#E39E17"/>
<path d="M349.698 688.792C347.936 690.057 345.433 692.169 345.038 691.829C342.363 689.531 340.134 686.714 337.761 684.065C339.097 683.423 340.52 682.148 341.744 682.317C342.969 682.485 343.996 684.097 345.502 685.421C347.127 683.252 348.476 680.988 350.3 679.213C351.199 678.338 352.977 678.365 354.357 677.984C354.406 679.322 354.94 680.911 354.404 681.945C353.195 684.278 351.456 686.336 349.698 688.792Z" fill="#5F7C38"/>
<path d="M1174.2 679.946C1180.62 691.734 1177.2 703.902 1166.34 708.994C1155.95 713.868 1143.84 708.983 1139.62 698.218C1136.18 689.419 1139.63 679.252 1147.75 674.31C1156.47 669.008 1166.58 671.066 1174.2 679.946ZM1152.42 697.872C1148.63 692.69 1148.54 688.404 1152.17 684.971C1155.32 681.995 1160.28 681.886 1163.55 684.719C1167.3 687.961 1167.38 692.504 1163.79 697.584C1163.6 697.855 1163.44 698.153 1163.28 698.446C1165.53 700.003 1167.79 701.56 1170 703.089C1176.96 695.188 1176.62 684.87 1169.41 678.451C1162.3 672.122 1151.57 672.732 1145.21 679.829C1139.05 686.691 1139.5 696.86 1146.23 702.953C1148.4 701.467 1150.58 699.982 1152.42 697.872ZM1154.78 686.213C1154 688.537 1152.28 691.038 1152.68 693.144C1153.3 696.509 1156.48 697.745 1159.74 696.715C1162.95 695.699 1164.76 693.079 1163.68 689.731C1162.43 685.859 1159.56 684.255 1154.78 686.213ZM1162.64 707.632C1164.18 706.916 1165.71 706.201 1167.44 705.396C1161.25 698.755 1153.21 699.01 1148.25 706.71C1153.25 707.138 1157.55 707.505 1162.64 707.632Z" fill="#E39E17"/>
<path d="M1152.59 698.184C1150.58 699.982 1148.4 701.467 1146.23 702.956C1139.5 696.86 1139.05 686.692 1145.21 679.829C1151.57 672.733 1162.3 672.122 1169.41 678.451C1176.62 684.87 1176.96 695.188 1170 703.089C1167.79 701.56 1165.53 700.003 1163.28 698.442C1163.44 698.153 1163.6 697.855 1163.79 697.585C1167.38 692.504 1167.3 687.961 1163.55 684.719C1160.28 681.886 1155.32 681.995 1152.17 684.971C1148.54 688.405 1148.63 692.691 1152.59 698.184Z" fill="#070501"/>
<path d="M1155.12 686.038C1159.56 684.255 1162.43 685.86 1163.68 689.732C1164.76 693.079 1162.95 695.7 1159.74 696.716C1156.48 697.746 1153.3 696.51 1152.68 693.144C1152.28 691.039 1154 688.537 1155.12 686.038Z" fill="#090601"/>
<path d="M1162.24 707.751C1157.55 707.504 1153.25 707.137 1148.25 706.709C1153.21 699.01 1161.25 698.754 1167.44 705.395C1165.71 706.2 1164.18 706.915 1162.24 707.751Z" fill="#090601"/>
<path d="M256.5 669L181 621" stroke="black" stroke-width="5"/>
<path d="M1238 674L1313.5 626" stroke="black" stroke-width="5"/>
<path d="M520.423 398.301L476.819 320.18" stroke="black" stroke-width="5"/>
<path d="M944.886 390.961L988.459 312.822" stroke="black" stroke-width="5"/>
<circle cx="184.5" cy="622.5" r="7.5" fill="black"/>
<circle cx="7.5" cy="7.5" r="7.5" transform="matrix(-1 0 0 1 1317.5 620)" fill="black"/>
<circle cx="479.185" cy="323.164" r="7.5" transform="rotate(28.3852 479.185 323.164)" fill="black"/>
<circle cx="987.163" cy="316.402" r="7.5" transform="rotate(86.6992 987.163 316.402)" fill="black"/>
</svg>
