<svg version="1.1" id="Layer_1" xmlns="http://www.w3.org/2000/svg" xmlns:xlink="http://www.w3.org/1999/xlink" x="0px" y="0px"
	 width="100%" viewBox="0 0 1447 1080" enable-background="new 0 0 1447 1080" xml:space="preserve">
<path fill="#000000" opacity="1.000000" stroke="none" 
	d="
M912.000000,1081.000000 
	C608.000000,1081.000000 304.500000,1081.000000 1.000000,1081.000000 
	C1.000000,721.000000 1.000000,361.000000 1.000000,1.000000 
	C483.333344,1.000000 965.666687,1.000000 1448.000000,1.000000 
	C1448.000000,361.000000 1448.000000,721.000000 1448.000000,1081.000000 
	C1269.500000,1081.000000 1091.000000,1081.000000 912.000000,1081.000000 
M645.606262,718.033997 
	C584.027161,755.508850 561.689636,816.741455 562.512512,866.767944 
	C685.244324,866.767944 807.976624,866.767944 931.264832,866.767944 
	C930.493408,858.549438 929.769775,850.596191 928.996216,842.647766 
	C927.358948,825.824707 922.717590,809.747620 915.716125,794.478149 
	C905.064209,771.247620 890.090576,751.225159 870.350037,734.704468 
	C853.080872,720.252136 833.958923,709.381714 812.768127,701.943359 
	C797.281128,696.507263 781.489746,692.452332 765.020630,692.069397 
	C750.528809,691.732361 735.914490,690.899841 721.552002,692.306274 
	C705.586853,693.869690 689.708801,697.300354 674.905762,704.035706 
	C665.271606,708.419189 655.866272,713.305420 645.606262,718.033997 
M1120.374023,640.940979 
	C1120.419556,639.299255 1121.146484,637.178345 1120.389038,636.101379 
	C1117.572266,632.096313 1114.204712,628.484192 1111.157349,624.634705 
	C1101.736572,612.733582 1092.381958,600.779968 1082.973145,588.869385 
	C1077.955566,582.517761 1072.879028,576.212708 1067.916504,569.995972 
	C1064.279175,573.110718 1060.992188,575.621582 1058.054688,578.490295 
	C1039.382324,596.726501 1020.783020,615.037720 1002.167175,633.331970 
	C982.363281,652.793762 962.524475,672.220276 942.783508,691.745728 
	C928.807495,705.569214 914.990479,719.553345 901.048279,733.411255 
	C898.604797,735.839966 895.993164,738.126648 893.280518,740.250732 
	C889.728455,743.032166 889.571167,745.410034 892.568726,749.129395 
	C897.792419,755.610962 903.335754,761.909485 907.879211,768.851501 
	C924.774658,794.666077 935.457520,822.779602 938.011658,853.737854 
	C938.855530,863.966431 941.153687,866.000000 951.566040,866.000000 
	C1023.700195,866.000061 1095.834351,866.000000 1167.968506,866.000000 
	C1175.181519,866.000000 1182.394531,866.000000 1190.045410,866.000000 
	C1187.245361,839.072998 1184.596924,813.603516 1181.949707,788.145874 
	C1179.869751,788.485413 1178.281006,789.028870 1176.721680,788.954407 
	C1164.540405,788.372437 1152.312500,788.168335 1140.199707,786.891846 
	C1121.909546,784.964294 1106.565063,776.332214 1095.690918,761.826111 
	C1082.870605,744.723816 1074.528198,725.774109 1077.865356,703.225769 
	C1080.368286,686.314880 1085.886353,670.935242 1098.003418,658.753784 
	C1104.539429,652.182983 1112.384521,646.914368 1120.374023,640.940979 
M709.287964,686.925903 
	C715.057556,685.950623 720.793762,684.592407 726.604248,684.087036 
	C736.039246,683.266479 738.016846,681.831665 738.013672,672.293091 
	C737.988953,598.150940 738.026123,524.008728 737.947327,449.866638 
	C737.941406,444.309906 737.186584,438.753937 736.774902,433.129364 
	C730.159485,433.845306 723.836792,434.453583 717.534668,435.229279 
	C707.812561,436.425903 698.104980,437.740723 688.390442,438.998962 
	C678.352112,440.299164 668.313416,441.596191 658.273621,442.884888 
	C655.381714,443.256104 651.037903,442.607147 649.955566,444.195160 
	C648.584534,446.206604 650.100525,450.035431 649.957825,453.061005 
	C649.390991,465.076996 649.448853,477.195953 647.779175,489.066315 
	C646.024780,501.538696 641.169617,513.186646 632.635193,522.822144 
	C618.804565,538.437195 601.362793,546.605835 580.641846,549.212158 
	C565.761536,551.083923 552.056885,548.221497 538.842285,542.267517 
	C522.414307,534.865784 510.075012,522.683472 500.713348,506.858459 
	C480.269379,523.354919 460.042847,539.675903 439.484192,556.264893 
	C499.145325,614.902100 558.474121,673.212646 617.885986,731.604858 
	C621.830444,728.483521 625.876526,725.169434 630.039062,722.008667 
	C643.438721,711.833801 657.867554,703.269775 673.565857,697.338928 
	C684.872314,693.067261 696.778442,690.382751 709.287964,686.925903 
M565.124329,807.737915 
	C572.457214,787.739014 582.431152,769.318665 596.917236,753.477844 
	C602.311157,747.579468 602.325012,744.828918 597.772949,740.300720 
	C541.804077,684.625427 485.808044,628.977478 429.806702,573.334839 
	C429.253784,572.785461 428.535126,572.402893 427.634613,571.756287 
	C406.588776,592.902466 387.936829,615.576111 373.440582,640.156372 
	C380.453400,646.738953 387.404785,652.338379 393.242462,658.924866 
	C408.085815,675.672180 415.156433,695.169189 413.090332,717.866760 
	C411.455322,735.828674 404.125580,751.198669 392.721375,764.641296 
	C376.648224,783.587463 355.072021,790.463562 331.015350,790.932129 
	C324.815796,791.052856 318.599976,790.338745 312.277191,790.002014 
	C311.794983,793.552246 311.276459,796.467834 311.022858,799.406250 
	C310.270752,808.120850 309.664642,816.848083 308.924194,825.563721 
	C307.989349,836.567383 306.997925,847.566406 305.990845,858.563660 
	C305.561127,863.256653 307.517334,865.069641 312.316895,865.064026 
	C389.799133,864.973450 467.281525,865.004333 544.763855,864.991577 
	C550.902832,864.990540 552.811951,862.589600 554.094849,856.487610 
	C557.467957,840.443909 561.329773,824.503052 565.124329,807.737915 
M866.530640,538.023315 
	C830.952148,514.384277 823.004395,481.024048 832.790710,441.520264 
	C822.277466,440.331024 811.986145,439.133270 801.686707,438.010529 
	C789.414551,436.672729 777.107788,435.611206 764.868958,434.022858 
	C756.818481,432.978088 755.021484,434.161896 755.000122,442.172516 
	C754.999207,442.505737 755.000000,442.838989 755.000000,443.172211 
	C755.000000,520.149536 755.000000,597.126892 755.000000,674.104248 
	C755.000000,674.770752 754.990051,675.437378 755.001587,676.103699 
	C755.097534,681.640991 756.802979,683.485962 762.308472,683.988464 
	C766.083679,684.332947 769.869263,684.582886 773.635132,685.008179 
	C790.912720,686.959290 807.861206,690.713989 823.227844,698.869690 
	C839.643372,707.582214 855.490295,717.409058 871.250732,727.283508 
	C875.343445,729.847778 877.360352,729.217834 880.386353,726.213684 
	C898.805847,707.926880 917.394348,689.810486 935.891113,671.601379 
	C959.730835,648.132446 983.512878,624.604858 1007.367920,601.151489 
	C1020.767822,587.977173 1034.274292,574.911255 1047.707397,561.770569 
	C1049.749512,559.772827 1051.653687,557.634155 1053.856812,555.312927 
	C1041.305054,545.570129 1029.594604,536.511353 1017.918518,527.408508 
	C1006.258850,518.318298 994.633545,509.184021 982.614502,499.772552 
	C977.277893,511.411591 969.993103,521.266846 960.785706,529.776917 
	C947.113708,542.413513 930.703003,548.477600 912.510925,549.921814 
	C896.193298,551.217163 881.209167,546.363220 866.530640,538.023315 
M499.994202,460.378387 
	C499.662048,462.458130 498.921661,464.568451 499.074707,466.611847 
	C499.524323,472.614929 499.877899,478.683228 501.075073,484.561859 
	C505.461700,506.101990 517.425415,522.423340 536.693420,532.858276 
	C552.228882,541.271790 568.765015,543.869873 586.442200,540.154297 
	C603.598694,536.548157 617.851135,528.180298 628.432373,514.754639 
	C641.624756,498.016052 646.579346,478.587158 643.061707,457.167419 
	C639.577698,435.952057 628.606812,419.684784 610.892700,408.075287 
	C595.163391,397.766632 577.691956,394.927948 559.171814,397.976654 
	C539.758545,401.172424 524.499573,411.050659 512.877319,426.678558 
	C505.645660,436.402618 501.179901,447.316986 499.994202,460.378387 
M368.959839,775.559753 
	C377.057220,770.740479 384.511322,765.259949 390.686462,757.933838 
	C405.606964,740.232483 410.273132,719.829468 406.636780,697.496582 
	C404.820923,686.344666 400.201263,676.012695 393.014038,667.032959 
	C385.659851,657.844543 376.947144,650.146484 366.296265,645.202393 
	C355.236572,640.068665 343.389557,638.481445 331.111328,638.892029 
	C313.604126,639.477478 298.631500,646.049866 286.034576,657.633240 
	C270.005157,672.372925 262.491852,690.955688 262.913086,712.907349 
	C263.251099,730.519592 269.114502,745.991089 280.618530,758.937439 
	C296.397858,776.695129 316.434631,784.652954 340.412506,783.156982 
	C350.322052,782.538757 359.379059,779.803711 368.959839,775.559753 
M836.949341,455.373352 
	C836.678833,455.790222 836.239746,456.178131 836.162354,456.628204 
	C833.911072,469.713379 834.555847,482.625458 839.053528,495.169800 
	C845.748291,513.841919 858.244751,527.601440 875.913208,536.301453 
	C890.025574,543.250427 905.109009,544.616455 920.641418,542.044434 
	C939.484070,538.924194 954.634644,529.354492 965.708740,514.330688 
	C977.430725,498.427765 982.138977,480.284729 979.132996,460.229919 
	C976.930420,445.535126 971.317871,432.541748 961.253052,421.933868 
	C941.705750,401.331696 917.190491,393.346100 889.898682,400.409454 
	C862.213257,407.574677 843.524963,425.616272 836.949341,455.373352 
M1213.019409,758.472412 
	C1214.340210,756.822815 1215.645996,755.161133 1216.983887,753.525574 
	C1230.041992,737.562012 1232.964233,718.653870 1230.704468,699.188904 
	C1228.798706,682.773193 1220.929199,668.637207 1208.648071,657.043518 
	C1191.481689,640.838013 1170.761719,635.589233 1148.206909,638.271118 
	C1131.793213,640.222839 1117.655029,648.063232 1106.057983,660.338135 
	C1089.845947,677.497864 1084.602905,698.214539 1087.266113,720.773804 
	C1089.205322,737.200378 1097.076416,751.322998 1109.327393,762.923950 
	C1126.468262,779.155640 1147.189819,784.381042 1169.755005,781.742981 
	C1186.555786,779.778870 1201.070679,771.842224 1213.019409,758.472412 
z"/>
<path fill="#FFFFFF" opacity="1.000000" stroke="none" 
	d="
M645.982361,718.000244 
	C655.866272,713.305420 665.271606,708.419189 674.905762,704.035706 
	C689.708801,697.300354 705.586853,693.869690 721.552002,692.306274 
	C735.914490,690.899841 750.528809,691.732361 765.020630,692.069397 
	C781.489746,692.452332 797.281128,696.507263 812.768127,701.943359 
	C833.958923,709.381714 853.080872,720.252136 870.350037,734.704468 
	C890.090576,751.225159 905.064209,771.247620 915.716125,794.478149 
	C922.717590,809.747620 927.358948,825.824707 928.996216,842.647766 
	C929.769775,850.596191 930.493408,858.549438 931.264832,866.767944 
	C807.976624,866.767944 685.244324,866.767944 562.512512,866.767944 
	C561.689636,816.741455 584.027161,755.508850 645.982361,718.000244 
z"/>
<path fill="#FBAE17" opacity="1.000000" stroke="none" 
	d="
M1120.006592,640.999634 
	C1112.384521,646.914368 1104.539429,652.182983 1098.003418,658.753784 
	C1085.886353,670.935242 1080.368286,686.314880 1077.865356,703.225769 
	C1074.528198,725.774109 1082.870605,744.723816 1095.690918,761.826111 
	C1106.565063,776.332214 1121.909546,784.964294 1140.199707,786.891846 
	C1152.312500,788.168335 1164.540405,788.372437 1176.721680,788.954407 
	C1178.281006,789.028870 1179.869751,788.485413 1181.949707,788.145874 
	C1184.596924,813.603516 1187.245361,839.072998 1190.045410,866.000000 
	C1182.394531,866.000000 1175.181519,866.000000 1167.968506,866.000000 
	C1095.834351,866.000000 1023.700195,866.000061 951.566040,866.000000 
	C941.153687,866.000000 938.855530,863.966431 938.011658,853.737854 
	C935.457520,822.779602 924.774658,794.666077 907.879211,768.851501 
	C903.335754,761.909485 897.792419,755.610962 892.568726,749.129395 
	C889.571167,745.410034 889.728455,743.032166 893.280518,740.250732 
	C895.993164,738.126648 898.604797,735.839966 901.048279,733.411255 
	C914.990479,719.553345 928.807495,705.569214 942.783508,691.745728 
	C962.524475,672.220276 982.363281,652.793762 1002.167175,633.331970 
	C1020.783020,615.037720 1039.382324,596.726501 1058.054688,578.490295 
	C1060.992188,575.621582 1064.279175,573.110718 1067.916504,569.995972 
	C1072.879028,576.212708 1077.955566,582.517761 1082.973145,588.869385 
	C1092.381958,600.779968 1101.736572,612.733582 1111.157349,624.634705 
	C1114.204712,628.484192 1117.572266,632.096313 1120.389038,636.101379 
	C1121.146484,637.178345 1120.419556,639.299255 1120.006592,640.999634 
z"/>
<path fill="#FBAE17" opacity="1.000000" stroke="none" 
	d="
M708.852539,686.958130 
	C696.778442,690.382751 684.872314,693.067261 673.565857,697.338928 
	C657.867554,703.269775 643.438721,711.833801 630.039062,722.008667 
	C625.876526,725.169434 621.830444,728.483521 617.885986,731.604858 
	C558.474121,673.212646 499.145325,614.902100 439.484192,556.264893 
	C460.042847,539.675903 480.269379,523.354919 500.713348,506.858459 
	C510.075012,522.683472 522.414307,534.865784 538.842285,542.267517 
	C552.056885,548.221497 565.761536,551.083923 580.641846,549.212158 
	C601.362793,546.605835 618.804565,538.437195 632.635193,522.822144 
	C641.169617,513.186646 646.024780,501.538696 647.779175,489.066315 
	C649.448853,477.195953 649.390991,465.076996 649.957825,453.061005 
	C650.100525,450.035431 648.584534,446.206604 649.955566,444.195160 
	C651.037903,442.607147 655.381714,443.256104 658.273621,442.884888 
	C668.313416,441.596191 678.352112,440.299164 688.390442,438.998962 
	C698.104980,437.740723 707.812561,436.425903 717.534668,435.229279 
	C723.836792,434.453583 730.159485,433.845306 736.774902,433.129364 
	C737.186584,438.753937 737.941406,444.309906 737.947327,449.866638 
	C738.026123,524.008728 737.988953,598.150940 738.013672,672.293091 
	C738.016846,681.831665 736.039246,683.266479 726.604248,684.087036 
	C720.793762,684.592407 715.057556,685.950623 708.852539,686.958130 
z"/>
<path fill="#5D7B36" opacity="1.000000" stroke="none" 
	d="
M565.060608,808.129517 
	C561.329773,824.503052 557.467957,840.443909 554.094849,856.487610 
	C552.811951,862.589600 550.902832,864.990540 544.763855,864.991577 
	C467.281525,865.004333 389.799133,864.973450 312.316895,865.064026 
	C307.517334,865.069641 305.561127,863.256653 305.990845,858.563660 
	C306.997925,847.566406 307.989349,836.567383 308.924194,825.563721 
	C309.664642,816.848083 310.270752,808.120850 311.022858,799.406250 
	C311.276459,796.467834 311.794983,793.552246 312.277191,790.002014 
	C318.599976,790.338745 324.815796,791.052856 331.015350,790.932129 
	C355.072021,790.463562 376.648224,783.587463 392.721375,764.641296 
	C404.125580,751.198669 411.455322,735.828674 413.090332,717.866760 
	C415.156433,695.169189 408.085815,675.672180 393.242462,658.924866 
	C387.404785,652.338379 380.453400,646.738953 373.440582,640.156372 
	C387.936829,615.576111 406.588776,592.902466 427.634613,571.756287 
	C428.535126,572.402893 429.253784,572.785461 429.806702,573.334839 
	C485.808044,628.977478 541.804077,684.625427 597.772949,740.300720 
	C602.325012,744.828918 602.311157,747.579468 596.917236,753.477844 
	C582.431152,769.318665 572.457214,787.739014 565.060608,808.129517 
z"/>
<path fill="#5D7B36" opacity="1.000000" stroke="none" 
	d="
M866.804688,538.269897 
	C881.209167,546.363220 896.193298,551.217163 912.510925,549.921814 
	C930.703003,548.477600 947.113708,542.413513 960.785706,529.776917 
	C969.993103,521.266846 977.277893,511.411591 982.614502,499.772552 
	C994.633545,509.184021 1006.258850,518.318298 1017.918518,527.408508 
	C1029.594604,536.511353 1041.305054,545.570129 1053.856812,555.312927 
	C1051.653687,557.634155 1049.749512,559.772827 1047.707397,561.770569 
	C1034.274292,574.911255 1020.767822,587.977173 1007.367920,601.151489 
	C983.512878,624.604858 959.730835,648.132446 935.891113,671.601379 
	C917.394348,689.810486 898.805847,707.926880 880.386353,726.213684 
	C877.360352,729.217834 875.343445,729.847778 871.250732,727.283508 
	C855.490295,717.409058 839.643372,707.582214 823.227844,698.869690 
	C807.861206,690.713989 790.912720,686.959290 773.635132,685.008179 
	C769.869263,684.582886 766.083679,684.332947 762.308472,683.988464 
	C756.802979,683.485962 755.097534,681.640991 755.001587,676.103699 
	C754.990051,675.437378 755.000000,674.770752 755.000000,674.104248 
	C755.000000,597.126892 755.000000,520.149536 755.000000,443.172211 
	C755.000000,442.838989 754.999207,442.505737 755.000122,442.172516 
	C755.021484,434.161896 756.818481,432.978088 764.868958,434.022858 
	C777.107788,435.611206 789.414551,436.672729 801.686707,438.010529 
	C811.986145,439.133270 822.277466,440.331024 832.790710,441.520264 
	C823.004395,481.024048 830.952148,514.384277 866.804688,538.269897 
z"/>
<path fill="#FFFEFC" opacity="1.000000" stroke="none" 
	d="
M499.995850,459.923615 
	C501.179901,447.316986 505.645660,436.402618 512.877319,426.678558 
	C524.499573,411.050659 539.758545,401.172424 559.171814,397.976654 
	C577.691956,394.927948 595.163391,397.766632 610.892700,408.075287 
	C628.606812,419.684784 639.577698,435.952057 643.061707,457.167419 
	C646.579346,478.587158 641.624756,498.016052 628.432373,514.754639 
	C617.851135,528.180298 603.598694,536.548157 586.442200,540.154297 
	C568.765015,543.869873 552.228882,541.271790 536.693420,532.858276 
	C517.425415,522.423340 505.461700,506.101990 501.075073,484.561859 
	C499.877899,478.683228 499.524323,472.614929 499.074707,466.611847 
	C498.921661,464.568451 499.662048,462.458130 499.995850,459.923615 
M596.259033,413.116333 
	C589.349243,411.419220 582.508545,408.655029 575.518188,408.202301 
	C537.102478,405.714081 507.127838,438.602661 510.720947,475.422211 
	C514.321899,512.322144 551.489502,538.415527 587.257263,528.498596 
	C612.665161,521.454041 630.247620,500.592743 632.844238,474.410339 
	C635.326965,449.377106 621.124023,425.234253 596.259033,413.116333 
z"/>
<path fill="#FDFDFD" opacity="1.000000" stroke="none" 
	d="
M368.632874,775.767700 
	C359.379059,779.803711 350.322052,782.538757 340.412506,783.156982 
	C316.434631,784.652954 296.397858,776.695129 280.618530,758.937439 
	C269.114502,745.991089 263.251099,730.519592 262.913086,712.907349 
	C262.491852,690.955688 270.005157,672.372925 286.034576,657.633240 
	C298.631500,646.049866 313.604126,639.477478 331.111328,638.892029 
	C343.389557,638.481445 355.236572,640.068665 366.296265,645.202393 
	C376.947144,650.146484 385.659851,657.844543 393.014038,667.032959 
	C400.201263,676.012695 404.820923,686.344666 406.636780,697.496582 
	C410.273132,719.829468 405.606964,740.232483 390.686462,757.933838 
	C384.511322,765.259949 377.057220,770.740479 368.632874,775.767700 
M275.945526,695.661072 
	C264.815918,740.094910 302.924316,779.919373 348.045319,771.007568 
	C377.464355,765.197083 398.632141,736.961609 396.340973,706.586548 
	C394.040344,676.086243 369.101654,651.357056 339.207306,649.932739 
	C309.500824,648.517456 286.025452,665.231018 275.945526,695.661072 
z"/>
<path fill="#FDFDFD" opacity="1.000000" stroke="none" 
	d="
M836.970947,454.939819 
	C843.524963,425.616272 862.213257,407.574677 889.898682,400.409454 
	C917.190491,393.346100 941.705750,401.331696 961.253052,421.933868 
	C971.317871,432.541748 976.930420,445.535126 979.132996,460.229919 
	C982.138977,480.284729 977.430725,498.427765 965.708740,514.330688 
	C954.634644,529.354492 939.484070,538.924194 920.641418,542.044434 
	C905.109009,544.616455 890.025574,543.250427 875.913208,536.301453 
	C858.244751,527.601440 845.748291,513.841919 839.053528,495.169800 
	C834.555847,482.625458 833.911072,469.713379 836.162354,456.628204 
	C836.239746,456.178131 836.678833,455.790222 836.970947,454.939819 
M934.535339,415.921844 
	C921.689148,409.455475 908.199890,408.049988 894.225830,410.987244 
	C862.445129,417.667297 841.549866,449.074738 847.119080,481.689606 
	C852.457581,512.953491 883.160583,535.787415 914.479431,531.785767 
	C941.259766,528.364014 963.010010,508.126495 967.808105,482.166107 
	C972.755432,455.398407 959.892639,429.355530 934.535339,415.921844 
z"/>
<path fill="#FFFEFC" opacity="1.000000" stroke="none" 
	d="
M1212.772461,758.729248 
	C1201.070679,771.842224 1186.555786,779.778870 1169.755005,781.742981 
	C1147.189819,784.381042 1126.468262,779.155640 1109.327393,762.923950 
	C1097.076416,751.322998 1089.205322,737.200378 1087.266113,720.773804 
	C1084.602905,698.214539 1089.845947,677.497864 1106.057983,660.338135 
	C1117.655029,648.063232 1131.793213,640.222839 1148.206909,638.271118 
	C1170.761719,635.589233 1191.481689,640.838013 1208.648071,657.043518 
	C1220.929199,668.637207 1228.798706,682.773193 1230.704468,699.188904 
	C1232.964233,718.653870 1230.041992,737.562012 1216.983887,753.525574 
	C1215.645996,755.161133 1214.340210,756.822815 1212.772461,758.729248 
M1132.423462,654.847229 
	C1105.856567,668.583557 1092.486084,696.781067 1099.446289,724.526611 
	C1106.920898,754.324036 1134.133301,771.903931 1160.750122,771.300354 
	C1196.747559,770.484131 1225.865601,736.205139 1219.674438,700.781921 
	C1212.513794,659.812256 1171.141968,637.706726 1132.423462,654.847229 
z"/>
<path fill="#F9AE1A" opacity="1.000000" stroke="none" 
	d="
M596.609375,413.264282 
	C621.124023,425.234253 635.326965,449.377106 632.844238,474.410339 
	C630.247620,500.592743 612.665161,521.454041 587.257263,528.498596 
	C551.489502,538.415527 514.321899,512.322144 510.720947,475.422211 
	C507.127838,438.602661 537.102478,405.714081 575.518188,408.202301 
	C582.508545,408.655029 589.349243,411.419220 596.609375,413.264282 
M568.007629,439.563385 
	C568.007629,438.233337 568.007996,436.903320 568.007568,435.573273 
	C568.005493,428.869598 563.858459,425.950256 557.389893,428.569244 
	C555.068481,429.509186 553.210449,431.662476 551.243774,433.379730 
	C550.293640,434.209381 549.764648,435.608978 548.733154,436.244080 
	C539.262085,442.075562 537.969666,446.331635 543.014648,455.659882 
	C537.978760,465.055389 539.270874,469.377289 548.744629,475.017151 
	C549.409851,475.413177 550.102661,476.004669 550.437439,476.677124 
	C554.123718,484.082550 560.646484,484.054565 568.007629,483.498047 
	C568.007629,469.037445 568.007629,454.790771 568.007629,439.563385 
M572.826416,479.301453 
	C572.944397,480.716034 573.062317,482.130585 573.173462,483.462952 
	C583.212830,484.185333 584.076904,483.804413 590.536499,476.217468 
	C590.946167,475.736298 591.492676,475.337250 592.042969,475.015381 
	C601.383911,469.552094 602.665955,465.173523 598.732971,457.513123 
	C599.274902,451.852112 601.123779,447.340698 599.713196,444.384796 
	C596.083923,436.779785 589.317444,431.370300 581.651306,428.281921 
	C575.899719,425.964844 572.828369,429.147156 572.827271,435.397766 
	C572.824707,449.712189 572.826355,464.026642 572.826416,479.301453 
M578.210327,487.397888 
	C571.293701,487.397888 564.377075,487.397888 557.388367,487.397888 
	C556.853577,492.182159 557.418579,496.322449 562.101868,496.989227 
	C567.472778,497.753937 573.060242,497.520172 578.502319,497.082458 
	C582.229736,496.782623 583.416138,493.636108 583.603760,490.179413 
	C583.805298,486.466095 581.059998,487.602783 578.210327,487.397888 
M562.064697,502.416504 
	C561.415894,505.504517 562.367126,507.182892 565.825623,507.024261 
	C568.791199,506.888214 571.772461,506.893463 574.738647,507.022736 
	C578.279297,507.177063 579.511902,505.648468 578.658447,501.931000 
	C573.357666,501.931000 568.108398,501.931000 562.064697,502.416504 
M599.927429,477.869995 
	C601.577881,478.528107 603.228271,479.186188 604.878723,479.844269 
	C605.160461,479.117401 605.887512,478.007385 605.647949,477.728851 
	C604.515625,476.412567 603.118896,475.323700 601.816467,474.153748 
	C601.076111,475.180878 600.335693,476.208008 599.927429,477.869995 
M604.888245,457.781586 
	C606.555054,457.160889 608.221802,456.540222 609.888611,455.919525 
	C609.462769,455.102844 609.132629,453.670837 608.592712,453.586792 
	C607.073975,453.350403 605.468811,453.668884 603.897766,453.768555 
	C603.982788,455.002167 604.067810,456.235779 604.888245,457.781586 
M599.817261,436.064026 
	C602.523071,438.478577 604.043396,436.197479 605.272522,434.381714 
	C605.676208,433.785278 604.711853,432.262726 604.373047,431.163635 
	C602.812012,432.106018 601.219421,433.002441 599.718567,434.032562 
	C599.443542,434.221344 599.541504,434.953491 599.817261,436.064026 
M537.228821,457.194214 
	C538.587158,454.297058 536.697144,453.427612 534.521240,453.619934 
	C533.273621,453.730255 532.140747,455.139587 530.956238,455.964081 
	C532.216309,456.698395 533.429810,457.541260 534.760315,458.111053 
	C535.259033,458.324646 536.029846,457.902954 537.228821,457.194214 
M537.305359,436.460602 
	C538.544861,436.233826 539.784424,436.007050 541.023926,435.780243 
	C540.368958,434.426239 539.982727,432.784485 538.957397,431.827148 
	C538.351074,431.261078 536.734375,431.777191 535.572021,431.806671 
	C535.951416,433.184875 536.330811,434.563110 537.305359,436.460602 
M535.958191,479.857605 
	C537.148743,479.627258 538.848694,479.792999 539.408813,479.072571 
	C540.222351,478.026215 540.213440,476.340454 540.555359,474.927399 
	C539.155151,475.233185 537.500244,475.189484 536.440369,475.962158 
	C535.677429,476.518341 535.707886,478.162872 535.958191,479.857605 
z"/>
<path fill="#5F7C38" opacity="1.000000" stroke="none" 
	d="
M276.025879,695.259705 
	C286.025452,665.231018 309.500824,648.517456 339.207306,649.932739 
	C369.101654,651.357056 394.040344,676.086243 396.340973,706.586548 
	C398.632141,736.961609 377.464355,765.197083 348.045319,771.007568 
	C302.924316,779.919373 264.815918,740.094910 276.025879,695.259705 
M347.107117,724.372314 
	C351.716492,724.970337 356.310760,725.826416 360.939301,726.097961 
	C366.156006,726.403931 368.682892,724.377869 368.511780,720.470703 
	C368.314697,715.968933 365.440948,714.848633 361.372833,714.770264 
	C353.106964,714.611145 345.167664,712.951843 338.339935,707.919678 
	C330.933655,702.461121 323.125458,702.297485 314.695984,705.230347 
	C310.460632,706.703918 308.358612,708.729980 309.068970,713.455994 
	C309.509277,716.385437 309.150665,719.434998 309.150665,722.430603 
	C309.150665,731.534241 309.173309,731.465515 317.544678,734.222229 
	C320.370880,735.152893 323.020355,736.606567 325.803680,737.684204 
	C330.132629,739.360352 334.404755,741.330444 338.882996,742.443726 
	C348.647827,744.871277 359.809204,740.178894 364.780121,731.941223 
	C364.067932,731.901123 363.408081,731.919739 362.766907,731.819336 
	C355.401093,730.665527 348.015106,729.612976 340.698853,728.200012 
	C339.578430,727.983643 338.783569,726.081604 337.838135,724.959167 
	C339.187469,724.413086 340.507202,723.536682 341.894318,723.412537 
	C343.319885,723.284851 344.811188,723.891663 347.107117,724.372314 
M327.940674,675.644836 
	C327.552765,676.735657 327.086945,677.805725 326.789520,678.920715 
	C324.703247,686.740845 326.754028,693.568481 332.644745,698.845215 
	C338.893738,704.442810 346.332672,705.533752 354.017059,702.036621 
	C361.299011,698.722717 365.177856,692.786926 365.543884,684.765198 
	C365.942383,676.031006 360.219238,667.870422 352.050751,665.243652 
	C342.844360,662.283142 334.041718,665.865417 327.940674,675.644836 
M295.476868,737.571716 
	C298.489746,736.883423 303.459778,739.592163 303.819641,734.125549 
	C304.358246,725.942810 303.959595,717.698303 303.959595,709.152832 
	C299.231750,709.152832 295.111725,709.256653 290.999664,709.120361 
	C287.663391,709.009705 286.711273,710.618469 286.791656,713.691101 
	C286.934601,719.156494 286.830536,724.628357 286.831360,730.097473 
	C286.832520,737.553040 286.833160,737.553040 295.476868,737.571716 
M369.501526,709.939270 
	C371.251892,713.745117 373.002258,717.550964 374.843658,721.554688 
	C376.299042,719.729065 378.271820,717.723755 379.655334,715.371826 
	C380.781006,713.458191 381.200684,711.129211 381.933411,708.984436 
	C379.304138,708.516357 376.683502,707.779053 374.041931,707.694214 
	C372.727966,707.652039 371.375549,708.806396 369.501526,709.939270 
z"/>
<path fill="#5F7C38" opacity="1.000000" stroke="none" 
	d="
M934.881470,416.061615 
	C959.892639,429.355530 972.755432,455.398407 967.808105,482.166107 
	C963.010010,508.126495 941.259766,528.364014 914.479431,531.785767 
	C883.160583,535.787415 852.457581,512.953491 847.119080,481.689606 
	C841.549866,449.074738 862.445129,417.667297 894.225830,410.987244 
	C908.199890,408.049988 921.689148,409.455475 934.881470,416.061615 
M929.091064,484.124878 
	C930.701904,488.285950 933.529968,488.433044 936.491394,485.897369 
	C939.769592,483.090485 942.851746,480.002228 945.690002,476.749146 
	C948.338440,473.713593 948.209839,470.290131 945.484131,467.258270 
	C943.148865,464.660736 940.604614,462.251404 938.157654,459.753998 
	C933.292297,454.788116 933.877258,452.693054 940.618835,450.922119 
	C945.176758,449.724792 947.465210,446.244690 946.467224,442.053284 
	C945.440979,437.742645 942.489136,435.419220 938.301636,435.263702 
	C934.016663,435.104553 931.837219,437.851837 930.910034,441.935730 
	C929.586548,447.765198 927.160767,448.467682 922.830078,444.409576 
	C920.161560,441.908997 917.677856,439.208588 914.971924,436.751129 
	C911.590332,433.680054 908.074280,433.766510 904.755981,436.901031 
	C902.214600,439.301605 899.812805,441.849304 897.301697,444.282776 
	C892.849365,448.597382 890.454285,447.905518 888.924438,441.906677 
	C887.526306,436.424377 883.734375,434.078644 878.999939,435.787262 
	C875.113464,437.189911 872.956787,440.027832 873.077209,444.102203 
	C873.196899,448.152527 875.831909,450.195709 879.655457,451.111938 
	C885.747559,452.571808 886.411072,454.990417 882.069702,459.505890 
	C879.877075,461.786407 877.548950,463.937836 875.382568,466.242035 
	C871.392151,470.486328 871.393250,473.782166 875.363770,477.952332 
	C877.545044,480.243286 879.878174,482.389740 882.054993,484.684753 
	C886.340027,489.202545 885.645691,491.485962 879.595764,493.015747 
	C874.303833,494.353821 871.887329,498.429199 873.697266,503.055267 
	C875.198303,506.891815 878.121704,508.992401 882.174500,508.753326 
	C886.203308,508.515625 888.148132,505.772736 889.001892,501.951080 
	C890.230774,496.450104 892.718262,495.682800 896.838196,499.477051 
	C899.408569,501.844147 901.753235,504.454620 904.287048,506.863373 
	C908.252991,510.633667 911.536194,510.664551 915.624268,506.929596 
	C917.835022,504.909851 919.903259,502.731598 921.998047,500.587891 
	C927.121277,495.344727 926.396606,493.271729 919.437988,490.750732 
	C917.259155,489.961365 914.589294,487.654663 914.175842,485.627991 
	C913.710693,483.348328 914.836365,479.919281 916.508972,478.185242 
	C921.254395,473.265381 927.008728,475.828857 929.091064,484.124878 
z"/>
<path fill="#F9AE1A" opacity="1.000000" stroke="none" 
	d="
M1132.765869,654.687866 
	C1171.141968,637.706726 1212.513794,659.812256 1219.674438,700.781921 
	C1225.865601,736.205139 1196.747559,770.484131 1160.750122,771.300354 
	C1134.133301,771.903931 1106.920898,754.324036 1099.446289,724.526611 
	C1092.486084,696.781067 1105.856567,668.583557 1132.765869,654.687866 
M1128.580200,711.841980 
	C1129.542236,713.789673 1130.281616,715.895691 1131.524658,717.643555 
	C1132.963257,719.666260 1134.844971,721.373718 1136.534302,723.218079 
	C1136.048950,723.696289 1135.563599,724.174438 1135.078247,724.652649 
	C1132.627075,722.223694 1130.094849,719.870117 1127.746948,717.345154 
	C1125.230103,714.638550 1125.357178,711.798767 1127.435059,708.743896 
	C1128.377319,707.358643 1129.061768,705.559692 1129.178833,703.900146 
	C1129.436401,700.253113 1129.182007,696.573242 1129.281006,692.910706 
	C1129.368896,689.658325 1128.968628,686.420105 1125.030518,686.303955 
	C1120.883301,686.181641 1120.097534,689.385315 1120.125488,692.914001 
	C1120.186401,700.577209 1120.324707,708.247009 1120.075317,715.902527 
	C1119.927734,720.431152 1121.538574,723.845215 1124.576782,727.059326 
	C1127.699341,730.362549 1130.382690,734.081055 1133.510498,737.928101 
	C1136.857544,737.039612 1140.863281,735.951416 1144.882324,734.915039 
	C1151.549194,733.196106 1153.244873,727.115234 1148.350952,721.936096 
	C1144.806274,718.184814 1141.057495,714.625061 1137.365967,711.014343 
	C1134.515381,708.226074 1131.656250,707.786255 1128.580200,711.841980 
M1169.110962,723.927246 
	C1167.943726,727.611267 1166.869263,731.948059 1171.033325,733.816101 
	C1175.915405,736.006165 1181.440918,736.762146 1185.522339,737.834167 
	C1189.141479,733.491394 1192.302368,729.952271 1195.151855,726.177979 
	C1196.696777,724.131653 1198.690186,721.728271 1198.793335,719.410767 
	C1199.214722,709.951721 1199.213135,700.453186 1198.781494,690.996033 
	C1198.705322,689.326233 1195.831665,687.784119 1194.250000,686.183044 
	C1192.776733,687.873352 1190.282471,689.425964 1190.032227,691.281128 
	C1189.415405,695.853760 1189.779419,700.566345 1189.871582,705.220276 
	C1189.889648,706.128540 1190.291748,707.138367 1190.804443,707.910278 
	C1194.824219,713.962219 1190.696777,722.361511 1181.961182,723.758728 
	C1184.420898,721.157837 1186.260986,719.155090 1188.164795,717.214905 
	C1190.092896,715.249878 1192.290283,713.151062 1189.707520,710.459656 
	C1187.156738,707.801392 1184.297241,708.494690 1181.836548,710.935425 
	C1177.706909,715.031799 1173.620361,719.171570 1169.110962,723.927246 
M1139.916016,706.536926 
	C1148.703857,715.619141 1160.229736,717.520874 1170.198853,711.533264 
	C1179.675659,705.841492 1184.093750,694.390015 1180.557129,683.876526 
	C1177.335693,674.300171 1170.438354,668.653442 1160.467163,667.578491 
	C1150.694824,666.524963 1142.743042,670.453552 1137.714966,678.938110 
	C1132.251831,688.156921 1133.077881,697.339355 1139.916016,706.536926 
M1166.757812,735.841858 
	C1165.996704,737.494080 1165.235596,739.146301 1164.258789,741.266602 
	C1172.746094,743.504944 1180.343872,745.508667 1188.322998,747.612915 
	C1188.910889,745.284119 1189.324341,743.646667 1189.840332,741.602478 
	C1181.992676,739.569275 1174.798584,737.705322 1166.757812,735.841858 
M1150.934326,742.256897 
	C1153.598511,742.022278 1155.205200,740.693970 1153.783203,738.096863 
	C1153.198120,737.028320 1150.957886,736.014160 1149.758057,736.278687 
	C1143.945801,737.559998 1138.182983,739.136108 1132.523071,740.978088 
	C1131.413940,741.339050 1130.183472,743.317993 1130.148193,744.582520 
	C1130.069092,747.416321 1132.137817,747.471741 1134.343628,746.857971 
	C1139.607300,745.393677 1144.884155,743.977478 1150.934326,742.256897 
z"/>
<path fill="#060401" opacity="1.000000" stroke="none" 
	d="
M568.007629,440.053711 
	C568.007629,454.790771 568.007629,469.037445 568.007629,483.498047 
	C560.646484,484.054565 554.123718,484.082550 550.437439,476.677124 
	C550.102661,476.004669 549.409851,475.413177 548.744629,475.017151 
	C539.270874,469.377289 537.978760,465.055389 543.014648,455.659882 
	C537.969666,446.331635 539.262085,442.075562 548.733154,436.244080 
	C549.764648,435.608978 550.293640,434.209381 551.243774,433.379730 
	C553.210449,431.662476 555.068481,429.509186 557.389893,428.569244 
	C563.858459,425.950256 568.005493,428.869598 568.007568,435.573273 
	C568.007996,436.903320 568.007629,438.233337 568.007629,440.053711 
M562.712830,445.627319 
	C562.828552,445.142914 563.128906,444.614685 563.026245,444.182159 
	C562.682678,442.735565 562.194885,441.323181 561.762390,439.897675 
	C560.764160,440.871552 559.778259,441.858459 558.764404,442.815826 
	C557.604126,443.911530 556.306641,444.884399 555.273865,446.086792 
	C554.044983,447.517456 552.876709,449.055817 552.032227,450.724640 
	C551.802307,451.178925 552.659668,452.528046 553.340881,452.983948 
	C553.838013,453.316589 555.118469,453.142700 555.612061,452.703156 
	C557.907288,450.659119 560.050049,448.443848 562.712830,445.627319 
M553.282471,467.264282 
	C555.345703,467.489532 558.773865,468.550934 559.236572,467.795685 
	C561.274475,464.468994 557.329407,464.615234 555.835022,463.291870 
	C554.969910,462.525696 554.149536,461.591553 553.128601,461.157166 
	C552.348206,460.825104 550.977356,460.812134 550.433960,461.294098 
	C549.897644,461.769836 549.676147,463.247009 550.022034,463.925049 
	C550.593506,465.045441 551.731934,465.876678 553.282471,467.264282 
z"/>
<path fill="#060401" opacity="1.000000" stroke="none" 
	d="
M572.826416,478.821259 
	C572.826355,464.026642 572.824707,449.712189 572.827271,435.397766 
	C572.828369,429.147156 575.899719,425.964844 581.651306,428.281921 
	C589.317444,431.370300 596.083923,436.779785 599.713196,444.384796 
	C601.123779,447.340698 599.274902,451.852112 598.732971,457.513123 
	C602.665955,465.173523 601.383911,469.552094 592.042969,475.015381 
	C591.492676,475.337250 590.946167,475.736298 590.536499,476.217468 
	C584.076904,483.804413 583.212830,484.185333 573.173462,483.462952 
	C573.062317,482.130585 572.944397,480.716034 572.826416,478.821259 
M580.170227,448.323486 
	C581.640015,449.580780 583.005615,451.001099 584.619568,452.032806 
	C585.552734,452.629303 587.010315,452.997711 587.990479,452.692749 
	C588.526855,452.525879 589.102173,450.431702 588.711060,449.755005 
	C587.845642,448.257599 586.390442,447.097260 585.156921,445.817657 
	C584.162415,444.785889 583.150513,443.770355 582.127563,442.766846 
	C581.116272,441.774780 580.081360,440.806885 579.056824,439.828430 
	C578.601257,441.357452 577.774109,442.895447 577.810669,444.412628 
	C577.838684,445.574829 578.957397,446.710754 580.170227,448.323486 
M584.771851,463.410889 
	C583.516357,464.692932 582.260925,465.974976 581.005432,467.257019 
	C581.891235,467.829834 583.199890,469.101288 583.594421,468.862518 
	C586.214233,467.276794 588.707092,465.449493 591.054077,463.478058 
	C591.417969,463.172424 591.121399,461.421387 590.584717,460.895966 
	C590.089417,460.411011 588.706604,460.348907 587.992554,460.687164 
	C586.987793,461.163208 586.239502,462.180756 584.771851,463.410889 
z"/>
<path fill="#110C02" opacity="1.000000" stroke="none" 
	d="
M578.664673,487.398010 
	C581.059998,487.602783 583.805298,486.466095 583.603760,490.179413 
	C583.416138,493.636108 582.229736,496.782623 578.502319,497.082458 
	C573.060242,497.520172 567.472778,497.753937 562.101868,496.989227 
	C557.418579,496.322449 556.853577,492.182159 557.388367,487.397888 
	C564.377075,487.397888 571.293701,487.397888 578.664673,487.398010 
z"/>
<path fill="#000000" opacity="1.000000" stroke="none" 
	d="
M562.461914,502.173767 
	C568.108398,501.931000 573.357666,501.931000 578.658447,501.931000 
	C579.511902,505.648468 578.279297,507.177063 574.738647,507.022736 
	C571.772461,506.893463 568.791199,506.888214 565.825623,507.024261 
	C562.367126,507.182892 561.415894,505.504517 562.461914,502.173767 
z"/>
<path fill="#110C02" opacity="1.000000" stroke="none" 
	d="
M599.761353,477.552551 
	C600.335693,476.208008 601.076111,475.180878 601.816467,474.153748 
	C603.118896,475.323700 604.515625,476.412567 605.647949,477.728851 
	C605.887512,478.007385 605.160461,479.117401 604.878723,479.844269 
	C603.228271,479.186188 601.577881,478.528107 599.761353,477.552551 
z"/>
<path fill="#110C02" opacity="1.000000" stroke="none" 
	d="
M604.520508,457.625488 
	C604.067810,456.235779 603.982788,455.002167 603.897766,453.768555 
	C605.468811,453.668884 607.073975,453.350403 608.592712,453.586792 
	C609.132629,453.670837 609.462769,455.102844 609.888611,455.919556 
	C608.221802,456.540222 606.555054,457.160889 604.520508,457.625488 
z"/>
<path fill="#110C02" opacity="1.000000" stroke="none" 
	d="
M599.642273,435.749451 
	C599.541504,434.953491 599.443542,434.221344 599.718567,434.032562 
	C601.219421,433.002441 602.812012,432.106018 604.373047,431.163635 
	C604.711853,432.262726 605.676208,433.785278 605.272522,434.381714 
	C604.043396,436.197479 602.523071,438.478577 599.642273,435.749451 
z"/>
<path fill="#090601" opacity="1.000000" stroke="none" 
	d="
M536.952698,457.482544 
	C536.029846,457.902954 535.259033,458.324646 534.760315,458.111053 
	C533.429810,457.541260 532.216309,456.698395 530.956238,455.964111 
	C532.140747,455.139587 533.273621,453.730255 534.521240,453.619934 
	C536.697144,453.427612 538.587158,454.297058 536.952698,457.482544 
z"/>
<path fill="#110C02" opacity="1.000000" stroke="none" 
	d="
M537.007812,436.200989 
	C536.330811,434.563110 535.951416,433.184875 535.572021,431.806671 
	C536.734375,431.777191 538.351074,431.261078 538.957397,431.827148 
	C539.982727,432.784485 540.368958,434.426239 541.023926,435.780273 
	C539.784424,436.007050 538.544861,436.233826 537.007812,436.200989 
z"/>
<path fill="#090601" opacity="1.000000" stroke="none" 
	d="
M535.671326,479.589783 
	C535.707886,478.162872 535.677429,476.518341 536.440369,475.962158 
	C537.500244,475.189484 539.155151,475.233185 540.555298,474.927399 
	C540.213440,476.340454 540.222351,478.026215 539.408813,479.072571 
	C538.848694,479.792999 537.148743,479.627258 535.671326,479.589783 
z"/>
<path fill="#FBFCFB" opacity="1.000000" stroke="none" 
	d="
M346.690430,724.274658 
	C344.811188,723.891663 343.319885,723.284851 341.894318,723.412537 
	C340.507202,723.536682 339.187469,724.413086 337.838135,724.959167 
	C338.783569,726.081604 339.578430,727.983643 340.698853,728.200012 
	C348.015106,729.612976 355.401093,730.665527 362.766907,731.819336 
	C363.408081,731.919739 364.067932,731.901123 364.780121,731.941223 
	C359.809204,740.178894 348.647827,744.871277 338.882996,742.443726 
	C334.404755,741.330444 330.132629,739.360352 325.803680,737.684204 
	C323.020355,736.606567 320.370880,735.152893 317.544678,734.222229 
	C309.173309,731.465515 309.150665,731.534241 309.150665,722.430603 
	C309.150665,719.434998 309.509277,716.385437 309.068970,713.455994 
	C308.358612,708.729980 310.460632,706.703918 314.695984,705.230347 
	C323.125458,702.297485 330.933655,702.461121 338.339935,707.919678 
	C345.167664,712.951843 353.106964,714.611145 361.372833,714.770264 
	C365.440948,714.848633 368.314697,715.968933 368.511780,720.470703 
	C368.682892,724.377869 366.156006,726.403931 360.939301,726.097961 
	C356.310760,725.826416 351.716492,724.970337 346.690430,724.274658 
z"/>
<path fill="#FBFCFB" opacity="1.000000" stroke="none" 
	d="
M328.083557,675.291992 
	C334.041718,665.865417 342.844360,662.283142 352.050751,665.243652 
	C360.219238,667.870422 365.942383,676.031006 365.543884,684.765198 
	C365.177856,692.786926 361.299011,698.722717 354.017059,702.036621 
	C346.332672,705.533752 338.893738,704.442810 332.644745,698.845215 
	C326.754028,693.568481 324.703247,686.740845 326.789520,678.920715 
	C327.086945,677.805725 327.552765,676.735657 328.083557,675.291992 
M349.933044,688.504700 
	C351.456024,686.334900 353.194489,684.276794 354.403381,681.944214 
	C354.939514,680.909790 354.405365,679.320801 354.357025,677.983521 
	C352.976685,678.364563 351.198883,678.337097 350.299408,679.212341 
	C348.475342,680.987305 347.126678,683.250854 345.501434,685.420593 
	C343.995636,684.096375 342.969299,682.484497 341.744232,682.315735 
	C340.519867,682.147156 339.096619,683.422302 337.760559,684.064453 
	C340.133759,686.713501 342.362823,689.530396 345.037537,691.828613 
	C345.432922,692.168335 347.935425,690.055786 349.933044,688.504700 
z"/>
<path fill="#FBFCFB" opacity="1.000000" stroke="none" 
	d="
M295.022888,737.571533 
	C286.833160,737.553040 286.832520,737.553040 286.831360,730.097473 
	C286.830536,724.628357 286.934601,719.156494 286.791656,713.691101 
	C286.711273,710.618469 287.663391,709.009705 290.999664,709.120361 
	C295.111725,709.256653 299.231750,709.152832 303.959595,709.152832 
	C303.959595,717.698303 304.358246,725.942810 303.819641,734.125549 
	C303.459778,739.592163 298.489746,736.883423 295.022888,737.571533 
z"/>
<path fill="#FBFCFB" opacity="1.000000" stroke="none" 
	d="
M369.771027,709.679382 
	C371.375549,708.806396 372.727966,707.652039 374.041931,707.694214 
	C376.683502,707.779053 379.304138,708.516357 381.933411,708.984436 
	C381.200684,711.129211 380.781006,713.458191 379.655334,715.371826 
	C378.271820,717.723755 376.299042,719.729065 374.843658,721.554688 
	C373.002258,717.550964 371.251892,713.745117 369.771027,709.679382 
z"/>
<path fill="#FDFDFD" opacity="1.000000" stroke="none" 
	d="
M929.040039,483.752136 
	C927.008728,475.828857 921.254395,473.265381 916.508972,478.185242 
	C914.836365,479.919281 913.710693,483.348328 914.175842,485.627991 
	C914.589294,487.654663 917.259155,489.961365 919.437988,490.750732 
	C926.396606,493.271729 927.121277,495.344727 921.998047,500.587891 
	C919.903259,502.731598 917.835022,504.909851 915.624268,506.929596 
	C911.536194,510.664551 908.252991,510.633667 904.287048,506.863373 
	C901.753235,504.454620 899.408569,501.844147 896.838196,499.477051 
	C892.718262,495.682800 890.230774,496.450104 889.001892,501.951080 
	C888.148132,505.772736 886.203308,508.515625 882.174500,508.753326 
	C878.121704,508.992401 875.198303,506.891815 873.697266,503.055267 
	C871.887329,498.429199 874.303833,494.353821 879.595764,493.015747 
	C885.645691,491.485962 886.340027,489.202545 882.054993,484.684753 
	C879.878174,482.389740 877.545044,480.243286 875.363770,477.952332 
	C871.393250,473.782166 871.392151,470.486328 875.382568,466.242035 
	C877.548950,463.937836 879.877075,461.786407 882.069702,459.505890 
	C886.411072,454.990417 885.747559,452.571808 879.655457,451.111938 
	C875.831909,450.195709 873.196899,448.152527 873.077209,444.102203 
	C872.956787,440.027832 875.113464,437.189911 878.999939,435.787262 
	C883.734375,434.078644 887.526306,436.424377 888.924438,441.906677 
	C890.454285,447.905518 892.849365,448.597382 897.301697,444.282776 
	C899.812805,441.849304 902.214600,439.301605 904.755981,436.901031 
	C908.074280,433.766510 911.590332,433.680054 914.971924,436.751129 
	C917.677856,439.208588 920.161560,441.908997 922.830078,444.409576 
	C927.160767,448.467682 929.586548,447.765198 930.910034,441.935730 
	C931.837219,437.851837 934.016663,435.104553 938.301636,435.263702 
	C942.489136,435.419220 945.440979,437.742645 946.467224,442.053284 
	C947.465210,446.244690 945.176758,449.724792 940.618835,450.922119 
	C933.877258,452.693054 933.292297,454.788116 938.157654,459.753998 
	C940.604614,462.251404 943.148865,464.660736 945.484131,467.258270 
	C948.209839,470.290131 948.338440,473.713593 945.690002,476.749146 
	C942.851746,480.002228 939.769592,483.090485 936.491394,485.897369 
	C933.529968,488.433044 930.701904,488.285950 929.040039,483.752136 
z"/>
<path fill="#090601" opacity="1.000000" stroke="none" 
	d="
M1128.736816,711.505859 
	C1131.656250,707.786255 1134.515381,708.226074 1137.365967,711.014343 
	C1141.057495,714.625061 1144.806274,718.184814 1148.350952,721.936096 
	C1153.244873,727.115234 1151.549194,733.196106 1144.882324,734.915039 
	C1140.863281,735.951416 1136.857544,737.039612 1133.510498,737.928101 
	C1130.382690,734.081055 1127.699341,730.362549 1124.576782,727.059326 
	C1121.538574,723.845215 1119.927734,720.431152 1120.075317,715.902527 
	C1120.324707,708.247009 1120.186401,700.577209 1120.125488,692.914001 
	C1120.097534,689.385315 1120.883301,686.181641 1125.030518,686.303955 
	C1128.968628,686.420105 1129.368896,689.658325 1129.281006,692.910706 
	C1129.182007,696.573242 1129.436401,700.253113 1129.178833,703.900146 
	C1129.061768,705.559692 1128.377319,707.358643 1127.435059,708.743896 
	C1125.357178,711.798767 1125.230103,714.638550 1127.746948,717.345154 
	C1130.094849,719.870117 1132.627075,722.223694 1135.078247,724.652649 
	C1135.563599,724.174438 1136.048950,723.696289 1136.534302,723.218079 
	C1134.844971,721.373718 1132.963257,719.666260 1131.524658,717.643555 
	C1130.281616,715.895691 1129.542236,713.789673 1128.736816,711.505859 
z"/>
<path fill="#070501" opacity="1.000000" stroke="none" 
	d="
M1169.313354,723.610168 
	C1173.620361,719.171570 1177.706909,715.031799 1181.836548,710.935425 
	C1184.297241,708.494690 1187.156738,707.801392 1189.707520,710.459656 
	C1192.290283,713.151062 1190.092896,715.249878 1188.164795,717.214905 
	C1186.260986,719.155090 1184.420898,721.157837 1181.961182,723.758728 
	C1190.696777,722.361511 1194.824219,713.962219 1190.804443,707.910278 
	C1190.291748,707.138367 1189.889648,706.128540 1189.871582,705.220276 
	C1189.779419,700.566345 1189.415405,695.853760 1190.032227,691.281128 
	C1190.282471,689.425964 1192.776733,687.873352 1194.250000,686.183044 
	C1195.831665,687.784119 1198.705322,689.326233 1198.781494,690.996033 
	C1199.213135,700.453186 1199.214722,709.951721 1198.793335,719.410767 
	C1198.690186,721.728271 1196.696777,724.131653 1195.151855,726.177979 
	C1192.302368,729.952271 1189.141479,733.491394 1185.522339,737.834167 
	C1181.440918,736.762146 1175.915405,736.006165 1171.033325,733.816101 
	C1166.869263,731.948059 1167.943726,727.611267 1169.313354,723.610168 
z"/>
<path fill="#110C02" opacity="1.000000" stroke="none" 
	d="
M1139.678223,706.262390 
	C1133.077881,697.339355 1132.251831,688.156921 1137.714966,678.938110 
	C1142.743042,670.453552 1150.694824,666.524963 1160.467163,667.578491 
	C1170.438354,668.653442 1177.335693,674.300171 1180.557129,683.876526 
	C1184.093750,694.390015 1179.675659,705.841492 1170.198853,711.533264 
	C1160.229736,717.520874 1148.703857,715.619141 1139.678223,706.262390 
M1173.983154,679.644348 
	C1166.584717,671.066040 1156.466553,669.007996 1147.755005,674.309631 
	C1139.633545,679.252197 1136.175171,689.418457 1139.622070,698.217712 
	C1143.838745,708.982300 1155.952271,713.867493 1166.343384,708.993958 
	C1177.201538,703.901489 1180.617065,691.733398 1173.983154,679.644348 
z"/>
<path fill="#090601" opacity="1.000000" stroke="none" 
	d="
M1167.181152,735.841675 
	C1174.798584,737.705322 1181.992676,739.569275 1189.840332,741.602478 
	C1189.324341,743.646667 1188.910889,745.284119 1188.322998,747.612915 
	C1180.343872,745.508667 1172.746094,743.504944 1164.258789,741.266602 
	C1165.235596,739.146301 1165.996704,737.494080 1167.181152,735.841675 
z"/>
<path fill="#090601" opacity="1.000000" stroke="none" 
	d="
M1150.545044,742.399353 
	C1144.884155,743.977478 1139.607300,745.393677 1134.343628,746.857971 
	C1132.137817,747.471741 1130.069092,747.416321 1130.148193,744.582520 
	C1130.183472,743.317993 1131.413940,741.339050 1132.523071,740.978088 
	C1138.182983,739.136108 1143.945801,737.559998 1149.758057,736.278687 
	C1150.957886,736.014160 1153.198120,737.028320 1153.783203,738.096863 
	C1155.205200,740.693970 1153.598511,742.022278 1150.545044,742.399353 
z"/>
<path fill="#F9AE1A" opacity="1.000000" stroke="none" 
	d="
M562.480103,445.958618 
	C560.050049,448.443848 557.907288,450.659119 555.612061,452.703156 
	C555.118469,453.142700 553.838013,453.316589 553.340881,452.983948 
	C552.659668,452.528046 551.802307,451.178925 552.032227,450.724640 
	C552.876709,449.055817 554.044983,447.517456 555.273865,446.086792 
	C556.306641,444.884399 557.604126,443.911530 558.764404,442.815826 
	C559.778259,441.858459 560.764160,440.871552 561.762329,439.897675 
	C562.194885,441.323181 562.682678,442.735565 563.026245,444.182159 
	C563.128906,444.614685 562.828552,445.142914 562.480103,445.958618 
z"/>
<path fill="#E39E17" opacity="1.000000" stroke="none" 
	d="
M552.956909,467.047028 
	C551.731934,465.876678 550.593506,465.045441 550.022034,463.925049 
	C549.676147,463.247009 549.897644,461.769836 550.433960,461.294098 
	C550.977356,460.812134 552.348206,460.825104 553.128601,461.157166 
	C554.149536,461.591553 554.969910,462.525696 555.835022,463.291870 
	C557.329407,464.615234 561.274475,464.468994 559.236572,467.795685 
	C558.773865,468.550934 555.345703,467.489532 552.956909,467.047028 
z"/>
<path fill="#E39E17" opacity="1.000000" stroke="none" 
	d="
M579.880615,448.090942 
	C578.957397,446.710754 577.838684,445.574829 577.810669,444.412628 
	C577.774109,442.895447 578.601257,441.357452 579.056824,439.828430 
	C580.081360,440.806885 581.116272,441.774780 582.127563,442.766846 
	C583.150513,443.770355 584.162415,444.785889 585.156921,445.817657 
	C586.390442,447.097260 587.845642,448.257599 588.711060,449.755005 
	C589.102173,450.431702 588.526855,452.525879 587.990479,452.692749 
	C587.010315,452.997711 585.552734,452.629303 584.619568,452.032806 
	C583.005615,451.001099 581.640015,449.580780 579.880615,448.090942 
z"/>
<path fill="#E39E17" opacity="1.000000" stroke="none" 
	d="
M585.076660,463.188782 
	C586.239502,462.180756 586.987793,461.163208 587.992554,460.687164 
	C588.706604,460.348907 590.089417,460.411011 590.584717,460.895966 
	C591.121399,461.421387 591.417969,463.172424 591.054077,463.478058 
	C588.707092,465.449493 586.214233,467.276794 583.594421,468.862518 
	C583.199890,469.101288 581.891235,467.829834 581.005432,467.257019 
	C582.260925,465.974976 583.516357,464.692932 585.076660,463.188782 
z"/>
<path fill="#5F7C38" opacity="1.000000" stroke="none" 
	d="
M349.698059,688.791260 
	C347.935425,690.055786 345.432922,692.168335 345.037537,691.828613 
	C342.362823,689.530396 340.133759,686.713501 337.760559,684.064453 
	C339.096619,683.422302 340.519867,682.147156 341.744232,682.315735 
	C342.969299,682.484497 343.995636,684.096375 345.501434,685.420593 
	C347.126678,683.250854 348.475342,680.987305 350.299408,679.212341 
	C351.198883,678.337097 352.976685,678.364563 354.357025,677.983521 
	C354.405365,679.320801 354.939514,680.909790 354.403381,681.944214 
	C353.194489,684.276794 351.456024,686.334900 349.698059,688.791260 
z"/>
<path fill="#E39E17" opacity="1.000000" stroke="none" 
	d="
M1174.197754,679.945923 
	C1180.617065,691.733398 1177.201538,703.901489 1166.343384,708.993958 
	C1155.952271,713.867493 1143.838745,708.982300 1139.622070,698.217712 
	C1136.175171,689.418457 1139.633545,679.252197 1147.755005,674.309631 
	C1156.466553,669.007996 1166.584717,671.066040 1174.197754,679.945923 
M1152.421143,697.871643 
	C1148.626099,692.690063 1148.544189,688.404236 1152.174561,684.970276 
	C1155.320190,681.994812 1160.276001,681.885315 1163.551147,684.718750 
	C1167.297729,687.960388 1167.379761,692.503418 1163.788330,697.584045 
	C1163.596924,697.854858 1163.443726,698.152649 1163.278687,698.445679 
	C1165.532715,700.002625 1167.786865,701.559631 1170.000854,703.088867 
	C1176.955933,695.187866 1176.623535,684.869324 1169.409424,678.450867 
	C1162.295776,672.121704 1151.573975,672.732117 1145.208496,679.828857 
	C1139.053467,686.691040 1139.503906,696.859558 1146.229248,702.952576 
	C1148.405029,701.466919 1150.580811,699.981323 1152.421143,697.871643 
M1154.776367,686.212646 
	C1154.003784,688.536438 1152.281616,691.037720 1152.675293,693.143311 
	C1153.304688,696.508728 1156.477783,697.745117 1159.736206,696.714722 
	C1162.949341,695.698730 1164.757812,693.078613 1163.679199,689.731201 
	C1162.431152,685.858765 1159.559570,684.254639 1154.776367,686.212646 
M1162.643799,707.631470 
	C1164.177490,706.915955 1165.711182,706.200439 1167.437012,705.395264 
	C1161.248535,698.754333 1153.206543,699.010193 1148.245728,706.709839 
	C1153.253662,707.137634 1157.547241,707.504395 1162.643799,707.631470 
z"/>
<path fill="#070501" opacity="1.000000" stroke="none" 
	d="
M1152.588867,698.183716 
	C1150.580811,699.981323 1148.405029,701.466919 1146.231079,702.955383 
	C1139.503906,696.859558 1139.053467,686.691040 1145.208496,679.828857 
	C1151.573975,672.732117 1162.295776,672.121704 1169.409424,678.450867 
	C1176.623535,684.869324 1176.955933,695.187866 1170.000854,703.088867 
	C1167.786865,701.559631 1165.532715,700.002625 1163.275635,698.441772 
	C1163.443726,698.152649 1163.596924,697.854858 1163.788330,697.584045 
	C1167.379761,692.503418 1167.297729,687.960388 1163.551147,684.718750 
	C1160.276001,681.885315 1155.320190,681.994812 1152.174561,684.970276 
	C1148.544189,688.404236 1148.626099,692.690063 1152.588867,698.183716 
z"/>
<path fill="#090601" opacity="1.000000" stroke="none" 
	d="
M1155.115479,686.037109 
	C1159.559570,684.254639 1162.431152,685.858765 1163.679199,689.731201 
	C1164.757812,693.078613 1162.949341,695.698730 1159.736206,696.714722 
	C1156.477783,697.745117 1153.304688,696.508728 1152.675293,693.143311 
	C1152.281616,691.037720 1154.003784,688.536438 1155.115479,686.037109 
z"/>
<path fill="#090601" opacity="1.000000" stroke="none" 
	d="
M1162.242310,707.751343 
	C1157.547241,707.504395 1153.253662,707.137634 1148.245728,706.709839 
	C1153.206543,699.010193 1161.248535,698.754333 1167.437012,705.395264 
	C1165.711182,706.200439 1164.177490,706.915955 1162.242310,707.751343 
z"/>
</svg>