<svg width="369" height="176" viewBox="0 0 369 176" fill="none" xmlns="http://www.w3.org/2000/svg">
<path d="M83.4917 26.4839C93.3756 21.789 102.781 16.9028 112.415 12.5193C127.218 5.78396 143.096 2.3533 159.061 0.789886C173.424 -0.616547 188.038 0.215972 202.53 0.553008C218.999 0.935943 234.79 4.99087 250.277 10.427C271.468 17.8653 290.59 28.7357 307.859 43.1881C327.6 59.7088 342.574 79.7312 353.225 102.962C360.227 118.231 364.868 134.308 366.506 151.131C367.279 159.08 368.003 167.033 368.774 175.252C245.486 175.252 122.754 175.252 0.0218358 175.252C-0.80104 125.225 21.5365 63.9925 83.4917 26.4839Z" fill="white"/>
</svg>
